<svg xmlns="http://www.w3.org/2000/svg" width="512" height="512" viewBox="0 0 512 512"><path d="M72.09,56.21c0,18.59-2.19,27.63-4.5,37.21-.25,1-.49,2-.73,3a136.42,136.42,0,0,0-3.79,25.47c-.19,3.44-.31,7.21-.31,11.44,0,2.11,0,4.1.09,6a140.69,140.69,0,0,0,2.57,24.38c.68,3.41,1.43,6.5,2.17,9.56,2.31,9.57,4.5,18.61,4.5,37.21,0,.32,0,.62,0,.94a142.13,142.13,0,0,1-1.85,24c-.77,4.45-1.69,8.29-2.64,12.22-.07.26-.13.53-.2.8-2.31,9.57-4.63,19.7-4.63,39.14,0,15.39,1.46,24.94,3.21,33,.52,2.41,1.07,4.69,1.62,6.94,2.31,9.57,4.5,18.61,4.5,37.2A140.29,140.29,0,0,1,70,391.15c-.71,3.87-1.54,7.32-2.39,10.84-1.14,4.72-2.3,9.54-3.2,15.47,0,0-2,19-1,26.8,18.59,0,27.63,2.19,37.2,4.5l3,.73a135.57,135.57,0,0,0,25.47,3.78c3.44.2,7.2.31,11.43.31,2.12,0,4.1,0,6-.08a141.55,141.55,0,0,0,24.37-2.57c3.42-.68,6.51-1.43,9.57-2.17,9.57-2.31,18.61-4.5,37.2-4.5h1a142.13,142.13,0,0,1,24,1.85c4.44.77,8.29,1.69,12.22,2.64l.79.19c9.58,2.31,19.71,4.63,39.15,4.63,15.39,0,24.94-1.45,33-3.2,2.4-.53,4.68-1.07,6.94-1.62,9.57-2.31,18.61-4.5,37.2-4.5a141.18,141.18,0,0,1,26.35,2.1c3.88.72,7.33,1.55,10.85,2.4,4.72,1.14,9.53,2.3,15.46,3.19,3.74.57,7.94,1,12.83,1.31l11.65.32c0-18.59,2.18-27.63,4.5-37.2.24-1,.48-2,.72-3a136.15,136.15,0,0,0,3.79-25.47c.19-3.43.31-7.2.31-11.43,0-2.12,0-4.1-.09-6a139.57,139.57,0,0,0-2.57-24.37c-.68-3.41-1.43-6.51-2.16-9.57-2.32-9.57-4.5-18.61-4.5-37.2v-1a142,142,0,0,1,1.86-24c.76-4.44,1.69-8.29,2.64-12.21.06-.27.12-.54.19-.8,2.31-9.57,4.63-19.7,4.63-39.15,0-15.39-1.46-24.94-3.21-33-.52-2.4-1.07-4.68-1.61-6.94-2.32-9.57-4.5-18.61-4.5-37.2a140.32,140.32,0,0,1,2.1-26.35c.71-3.88,1.59-7.32,2.4-10.85,2-8.6,4.43-35.69,4.24-42.27-18.6,0-27.64-2.18-37.21-4.5l-3-.72a136.16,136.16,0,0,0-25.46-3.79c-3.44-.19-7.21-.31-11.44-.31-2.12,0-4.1,0-6,.09a139.57,139.57,0,0,0-24.37,2.57c-3.41.68-6.5,1.43-9.56,2.16-9.58,2.32-18.62,4.5-37.21,4.5h-.94a142,142,0,0,1-24-1.86c-4.45-.76-8.3-1.69-12.22-2.64l-.8-.19c-9.57-2.31-19.7-4.63-39.14-4.63-15.39,0-24.94,1.46-33,3.21-2.4.52-4.68,1.07-6.93,1.61-9.57,2.32-18.62,4.5-37.21,4.5a140.32,140.32,0,0,1-26.35-2.1C119,62.72,115.54,61.89,112,61c-4.72-1.14-9.53-2.29-15.46-3.19C96.56,57.84,85.79,56.47,72.09,56.21Z" fill="#77e9d4"/><path d="M489.49,34.36c-21.62,0-32.14-2.54-43.27-5.23l-3.53-.85a158.56,158.56,0,0,0-29.62-4.4c-4-.23-8.38-.36-13.3-.36-2.46,0-4.77,0-7,.1a163.41,163.41,0,0,0-28.35,3c-4,.79-7.56,1.66-11.12,2.52-11.13,2.69-21.65,5.23-43.27,5.23H309A164.75,164.75,0,0,1,281,32.2c-5.17-.89-9.65-2-14.21-3.07l-.93-.22c-11.13-2.69-22.92-5.39-45.52-5.39-17.9,0-29,1.69-38.39,3.73-2.79.61-5.44,1.25-8.06,1.88-11.13,2.69-21.65,5.23-43.27,5.23A164.26,164.26,0,0,1,100,31.92c-4.51-.83-8.52-1.8-12.61-2.79-5.49-1.33-11.08-2.67-18-3.72,0,0-17.47-3.32-28.46-1.89,0,21.62-2.54,32.14-5.23,43.27-.28,1.17-.56,2.34-.84,3.53a157.61,157.61,0,0,0-4.41,29.62c-.22,4-.36,8.38-.36,13.3,0,2.46,0,4.77.1,7a162.28,162.28,0,0,0,3,28.35c.78,4,1.65,7.56,2.51,11.12,2.69,11.13,5.23,21.65,5.23,43.27v1.1a164.8,164.8,0,0,1-2.16,28c-.89,5.16-2,9.64-3.07,14.21-.07.3-.15.61-.22.92-2.69,11.14-5.39,22.92-5.39,45.52,0,17.9,1.7,29,3.73,38.39.61,2.79,1.25,5.44,1.88,8.06,2.69,11.13,5.23,21.65,5.23,43.27A163.32,163.32,0,0,1,38.47,413c-.83,4.51-1.8,8.52-2.79,12.61-1.32,5.49-2.67,11.09-3.71,18,0,0-3.4,21.87-1.22,31.17,21.62,0,32.14,2.54,43.27,5.23l3.53.84a157.61,157.61,0,0,0,29.62,4.41c4,.22,8.38.36,13.3.36,2.46,0,4.77,0,7-.1a163.41,163.41,0,0,0,28.35-3c4-.79,7.56-1.66,11.12-2.52,11.13-2.69,21.65-5.23,43.27-5.23h1.1a164.8,164.8,0,0,1,28,2.16c5.16.89,9.64,2,14.21,3.07l.92.22c11.14,2.69,22.92,5.39,45.52,5.39,17.9,0,29-1.7,38.39-3.73,2.79-.61,5.44-1.25,8.06-1.88,11.13-2.69,21.65-5.23,43.27-5.23a163.32,163.32,0,0,1,30.65,2.44c4.51.83,8.52,1.8,12.61,2.79,5.49,1.32,11.09,2.67,18,3.71,0,0,16.58,2.66,28.46,1.9,0-21.62,2.54-32.14,5.23-43.27.28-1.17.56-2.34.84-3.53a157.61,157.61,0,0,0,4.41-29.62c.22-4,.36-8.38.36-13.3,0-2.46,0-4.77-.1-7a163.41,163.41,0,0,0-3-28.35c-.79-4-1.66-7.57-2.52-11.12-2.69-11.13-5.23-21.65-5.23-43.27v-1.1a164.8,164.8,0,0,1,2.16-28c.89-5.17,2-9.64,3.07-14.21.07-.31.15-.62.22-.92,2.69-11.14,5.39-22.92,5.39-45.53,0-17.9-1.7-29-3.73-38.38-.61-2.8-1.25-5.44-1.88-8.07-2.69-11.13-5.23-21.64-5.23-43.26a163.32,163.32,0,0,1,2.44-30.65c.83-4.51,1.8-8.52,2.79-12.61,1.32-5.49,2.67-11.09,3.71-18C488.27,65.53,490.72,43.77,489.49,34.36Z" fill="none" stroke="#f2b433" stroke-miterlimit="10" stroke-width="7"/><path d="M419.78,206.61c-35.66,0-55.72-9.63-70.37-16.66-11.19-5.37-17.35-8.33-33.75-8.33s-22.57,3-33.75,8.33c-14.65,7-34.71,16.66-70.37,16.66S155.83,197,141.18,190c-11.19-5.37-17.35-8.33-33.75-8.33V97c35.66,0,55.72,9.62,70.36,16.66C189,119.05,195.14,122,211.54,122s22.57-3,33.75-8.32C259.94,106.64,280,97,315.66,97s55.72,9.62,70.36,16.66c11.19,5.37,17.35,8.32,33.76,8.32Z" fill="#ccfde7"/><path d="M156.29,140.45a11.52,11.52,0,0,1,9.23-.51q6.6,2.24,8.17,7.64a10,10,0,0,1,.14,5.55l-5.52-1.87a8.11,8.11,0,0,0-.38-3.33,6.35,6.35,0,0,0-9.28-2.35,12.57,12.57,0,0,0-4,6.3c-1,3-1.16,5.39-.46,7.27a6,6,0,0,0,3.82,3.77,5.48,5.48,0,0,0,5-.44,8.81,8.81,0,0,0,2.41-2.6l5.48,1.86a12.56,12.56,0,0,1-6,5.8,11.14,11.14,0,0,1-8.4.17q-5.64-1.91-7.63-6.66t.18-11.17Q151.34,143,156.29,140.45Z" fill="#0d03a0"/><path d="M201.38,173q-3.48,2.91-9.43,2.28t-8.76-4.2q-3.8-4.41-3-11.89c.54-5.09,2.35-8.75,5.43-11q3.48-2.91,9.43-2.28t8.76,4.2q3.8,4.26,3,11.89T201.38,173Zm-3.18-4.6q2.3-2.33,2.79-7T199.73,154a7.23,7.23,0,0,0-11-1.16q-2.32,2.33-2.82,7t1.29,7.45a6.74,6.74,0,0,0,5.24,3.12A6.63,6.63,0,0,0,198.2,168.43Z" fill="#0d03a0"/><path d="M215.08,147.89l5.82-.35,1.38,22.85,13.92-.84.3,5-19.73,1.19Z" fill="#0d03a0"/><path d="M237.2,146.45l5.78-1.32,3.82,16.71a9.75,9.75,0,0,0,1.6,3.95q1.54,2,5,1.26t4-3.31a9.78,9.78,0,0,0-.28-4.25l-3.82-16.71,5.78-1.32,3.82,16.72a14.41,14.41,0,0,1,.2,7.07q-1.49,5-8.55,6.61c-4.7,1.08-8.24.33-10.59-2.23a14.36,14.36,0,0,1-2.89-6.45Z" fill="#0d03a0"/><path d="M283.9,130.53l7.61-3.53,11.75,25.32-4.93,2.29-7.94-17.13c-.23-.49-.55-1.18-.95-2.08l-.93-2.06,5.06,23.48-5.14,2.38-14.63-19,1,2c.43.88.75,1.57,1,2.06l7.95,17.13-4.93,2.29L267,138.37l7.7-3.57,13.85,17.76Z" fill="#0d03a0"/><path d="M330.6,126.16a7,7,0,0,1,1.09,4.31,6.19,6.19,0,0,1-1.47,4.05A6.71,6.71,0,0,1,328,136a6.21,6.21,0,0,1,3.11,2.6,7.38,7.38,0,0,1,.91,4.14,8.12,8.12,0,0,1-1.44,4.39,7.7,7.7,0,0,1-5.28,3.36,19.42,19.42,0,0,1-4,.21l-12.56-.56L310,122.27l13.48.6C326.9,123.07,329.27,124.16,330.6,126.16Zm-15.7,12-.33,7.43,6.77.31a6.63,6.63,0,0,0,2.85-.37,3.5,3.5,0,0,0,2-3.4,3,3,0,0,0-1.64-3.07,7,7,0,0,0-2.76-.59Zm.48-10.76-.27,6.15,6.77.3a5.7,5.7,0,0,0,3-.56,2.63,2.63,0,0,0,1.24-2.4,2.49,2.49,0,0,0-1.38-2.64,10.48,10.48,0,0,0-3.27-.58Z" fill="#0d03a0"/><path d="M339.18,156l-5.32-2.3,11.07-25.62,5.32,2.29Z" fill="#0d03a0"/><path d="M364.89,137.22l6.16,2.38-.87,29.59-5.89-2.28.35-6-9.59-3.71-3.83,4.67-5.69-2.2Zm-6.62,16.05,6.66,2.58.68-11.51Z" fill="#0d03a0"/><path d="M419.78,415.31c-35.66,0-55.72-9.63-70.37-16.66-11.19-5.37-17.35-8.32-33.75-8.32s-22.57,2.95-33.75,8.32c-14.65,7-34.71,16.66-70.37,16.66s-55.71-9.63-70.36-16.66c-11.19-5.37-17.35-8.32-33.75-8.32V305.72c35.66,0,55.72,9.63,70.36,16.66,11.19,5.37,17.35,8.32,33.75,8.32s22.57-2.95,33.75-8.32c14.65-7,34.71-16.66,70.37-16.66s55.72,9.63,70.36,16.66c11.19,5.37,17.35,8.32,33.76,8.32Z" fill="#ccfde7"/><path d="M179.41,266.11q-6.42,2.68-15.91-.24l-12.11-3.73-6.45,20.92-12.08-3.72,17.93-58.19,25,7.7q8.64,2.66,12.39,8.74t.84,15.52Q185.83,263.42,179.41,266.11Zm-2.82-23.83a10.29,10.29,0,0,0-5.87-3.93l-11-3.37-5.28,17.13,11,3.38a9.74,9.74,0,0,0,7.11-.1q3-1.38,4.36-5.92C177.84,246.44,177.73,244.05,176.59,242.28Z" fill="#da592e" stroke="#da592e" stroke-miterlimit="10" stroke-width="2"/><path d="M206.18,236.37l12.66-1.28,5,49.7,30.25-3,1.1,10.89L212.27,297Z" fill="#da592e" stroke="#da592e" stroke-miterlimit="10" stroke-width="2"/><path d="M277.36,219.84l14.17-2.57,32.06,56.08L310,275.81l-6.19-11.6-22.06,4-1.83,13.05-13.1,2.38Zm5.93,37.43,15.35-2.78L286.8,232.28Z" fill="#da592e" stroke="#da592e" stroke-miterlimit="10" stroke-width="2"/><path d="M378,225.89,392,229.68,362.3,261.05l-6,22L344,279.74l6-22L339.7,215.45l14.47,3.94,5.22,28.91Z" fill="#da592e" stroke="#da592e" stroke-miterlimit="10" stroke-width="2"/><path d="M188.67,372.34q-2.79,1.55-7.26.71L175.7,372l-1.86,9.86-5.7-1.08,5.19-27.42,11.77,2.22a9.69,9.69,0,0,1,6.09,3.35q2,2.58,1.18,7Q191.46,370.78,188.67,372.34Zm-2.51-10.71a4.74,4.74,0,0,0-2.88-1.49l-5.16-1-1.53,8.07,5.17,1a4.48,4.48,0,0,0,3.23-.41,4.09,4.09,0,0,0,1.68-2.92A3.86,3.86,0,0,0,186.16,361.63Z" fill="#0d03a0"/><path d="M217.13,358.59a6.88,6.88,0,0,1,2.58,2,8.77,8.77,0,0,1,1.37,2.37,7.79,7.79,0,0,1,.48,2.94,8.34,8.34,0,0,1-1.06,3.9,5.62,5.62,0,0,1-3.35,2.67,5.27,5.27,0,0,1,2.71,2.24,9.23,9.23,0,0,1,.74,4.38l0,1.87a15.52,15.52,0,0,0,.12,2.6,2.33,2.33,0,0,0,1.06,1.6v.71l-6.44-.09c-.17-.63-.29-1.12-.36-1.51a13.56,13.56,0,0,1-.21-2.4v-2.6c0-1.78-.29-3-.88-3.57s-1.68-.91-3.31-.93l-5.69-.08-.15,10.94-5.7-.08.39-27.91,13.34.19A12,12,0,0,1,217.13,358.59Zm-12.11,4-.11,7.5,6.28.08a6.71,6.71,0,0,0,2.81-.41,3.15,3.15,0,0,0,1.7-3.12c0-1.69-.5-2.84-1.55-3.43a5.71,5.71,0,0,0-2.7-.53Z" fill="#0d03a0"/><path d="M252,379.53q-2.62,3.71-8.53,4.64t-9.54-1.78q-4.82-3.3-6-10.72-1.2-7.57,2.39-12,2.61-3.7,8.52-4.64t9.55,1.79q4.77,3.13,6,10.71C255.14,372.45,254.34,376.46,252,379.53Zm-4.26-3.62q1.6-2.85.87-7.5t-3.14-6.86a7.23,7.23,0,0,0-10.9,1.72c-1.09,1.89-1.39,4.4-.9,7.5s1.55,5.39,3.17,6.86a6.74,6.74,0,0,0,5.86,1.66A6.67,6.67,0,0,0,247.72,375.91Z" fill="#0d03a0"/><path d="M265.39,367.27l.22.6a12.57,12.57,0,0,0,2.19,4.05,3.06,3.06,0,0,0,4.76-1.86,7.85,7.85,0,0,0-.63-2.83l-6.68-18.35,5.48-2,6.64,18.25a11.31,11.31,0,0,1,.8,5.72q-.71,4-5.7,5.82t-7.67-.24a14.41,14.41,0,0,1-4.37-6.68l-.22-.61Z" fill="#0d03a0"/><path d="M298.05,339.73l-13.55,5.88,2.36,5.44,12.44-5.4,1.93,4.45-12.44,5.4,2.85,6.58,14.18-6.15,2,4.61L288.41,369l-11.11-25.6,18.78-8.15Z" fill="#0d03a0"/><path d="M314.3,335.29a11.45,11.45,0,0,1,8.79-2.86q6.95.46,9.86,5.29A10,10,0,0,1,334.5,343l-5.81-.39a7.86,7.86,0,0,0-1.23-3.12,5.74,5.74,0,0,0-4.48-2.12,5.68,5.68,0,0,0-5.08,2.23c-1.31,1.63-2.07,4-2.28,7.13s.27,5.5,1.42,7.14a6,6,0,0,0,4.66,2.66,5.47,5.47,0,0,0,4.7-1.7,8.78,8.78,0,0,0,1.66-3.13l5.78.38a12.51,12.51,0,0,1-4.32,7.15,11.13,11.13,0,0,1-8.07,2.33q-5.94-.41-9.08-4.48t-2.69-10.85Q310.16,339,314.3,335.29Z" fill="#0d03a0"/><path d="M363.7,346.84l-2.06,4.48-7.59-3.49-9.6,20.87-5.34-2.46,9.61-20.86-7.62-3.51,2.07-4.49Z" fill="#0d03a0"/></svg>