<svg width="567" height="443" viewBox="0 0 567 443" fill="none" xmlns="http://www.w3.org/2000/svg">
<g clip-path="url(#clip0_59_19911)">
<path fill-rule="evenodd" clip-rule="evenodd" d="M87.23 29.917H518.873V383.667H87.23V29.917Z" fill="#201C1D"/>
<path fill-rule="evenodd" clip-rule="evenodd" d="M91.854 41.336H215.756C151.097 64.483 104.819 126.296 104.819 198.904C104.819 268.347 147.148 327.919 207.404 353.232H91.854V41.336ZM328.523 41.336H492.039L488.566 46.949L496.771 51.644L500.582 45.481L493.336 41.336H514.248V353.232H336.875C397.131 327.92 439.461 268.347 439.461 198.904C439.461 182.445 437.074 166.543 432.645 151.518C440.469 155.77 449.436 158.185 458.967 158.185C489.465 158.185 514.197 133.453 514.197 102.953C514.197 87.803 508.092 74.075 498.209 64.096L502.342 57.364L480.215 44.601L476.44 50.549C470.948 48.718 465.073 47.725 458.967 47.725C430.783 47.725 407.526 68.848 404.16 96.122C384.832 71.335 358.676 52.129 328.523 41.334V41.336Z" fill="white"/>
<path fill-rule="evenodd" clip-rule="evenodd" d="M272.14 41.354C359.137 41.354 429.69 111.906 429.69 198.905C429.69 285.904 359.137 356.455 272.14 356.455C185.143 356.455 114.589 285.902 114.589 198.905C114.589 111.908 185.142 41.354 272.14 41.354Z" fill="#FFAE12"/>
<path fill-rule="evenodd" clip-rule="evenodd" d="M272.14 149.372C299.493 149.372 321.672 171.554 321.672 198.905C321.672 226.256 299.492 248.438 272.14 248.438C244.788 248.438 222.607 226.256 222.607 198.905C222.607 171.554 244.788 149.372 272.14 149.372Z" fill="#201C1D"/>
<path fill-rule="evenodd" clip-rule="evenodd" d="M272.14 193.959C274.871 193.959 277.086 196.174 277.086 198.904C277.086 201.634 274.871 203.85 272.14 203.85C269.409 203.85 267.194 201.635 267.194 198.904C267.194 196.173 269.409 193.959 272.14 193.959Z" fill="white"/>
<path fill-rule="evenodd" clip-rule="evenodd" d="M458.967 56.6111C463.311 56.6111 467.516 57.2101 471.502 58.3281L471.275 58.6851L492.064 70.5201C499.597 78.2071 504.478 88.5041 505.214 99.9291C503.527 98.7981 501.495 98.1381 499.31 98.1381C493.443 98.1381 488.685 102.896 488.685 108.764C488.685 114.632 493.443 119.389 499.31 119.389C500.419 119.389 501.49 119.219 502.494 118.904C495.992 136.641 478.955 149.301 458.967 149.301C433.377 149.301 412.623 128.548 412.623 102.954C412.623 77.3601 433.377 56.6101 458.967 56.6101V56.6111ZM466.881 65.4331L469.957 60.7401L492.084 73.5021L489.299 78.1971L466.881 65.4331V65.4331Z" fill="#FFAE12"/>
<path fill-rule="evenodd" clip-rule="evenodd" d="M295.5 290.479L294.34 292.565L298.406 300.279L300.623 300.126L295.5 290.479Z" fill="#201C1D"/>
<path fill-rule="evenodd" clip-rule="evenodd" d="M366.791 266.603L369.232 265.42L367.787 262.694L368.416 262.366C391.434 250.236 405.449 242.846 416.502 215.489C424.203 196.428 430.723 176.414 437.17 156.622C438.871 151.397 440.565 146.207 442.113 141.508L433.91 138.414C432.074 143.954 430.447 148.944 428.828 153.921C422.437 173.541 415.973 193.38 408.363 212.216C398.513 236.599 385.58 243.417 364.344 254.608L363.682 254.957L363.684 254.961L362.338 252.425L359.988 253.675L366.791 266.605V266.603Z" fill="#201C1D"/>
<path fill-rule="evenodd" clip-rule="evenodd" d="M349.353 259.329L355.664 271.992L362.982 268.447L356.535 255.509L349.353 259.329Z" fill="#201C1D"/>
<path fill-rule="evenodd" clip-rule="evenodd" d="M328.447 291.14L339.049 309.032L340 308.398L331.271 289.557L328.447 291.14Z" fill="#201C1D"/>
<path fill-rule="evenodd" clip-rule="evenodd" d="M294.441 284.595L304.937 304.357L324.146 294.325L324.463 290.934L353.734 274.522L346.414 261.117L316.711 276.245L313.541 274.302L294.441 284.595Z" fill="#201C1D"/>
<path fill-rule="evenodd" clip-rule="evenodd" d="M458.967 71.892C463.033 71.892 466.916 72.675 470.477 74.096L472.305 71.01L482.707 76.731L480.551 80.619C486.397 86.267 490.031 94.188 490.031 102.957C490.031 120.112 476.121 134.022 458.967 134.022C454.467 134.022 450.192 133.064 446.33 131.341L442.971 137.234L434.813 134.67L439.081 126.819C432.251 121.12 427.905 112.547 427.905 102.957C427.905 94.622 431.19 87.053 436.534 81.474L434.309 80.247C429.807 77.767 434.994 71.924 438.172 74.605L441.336 77.276C439.445 79.039 437.815 81.326 437.061 83.815C436.159 86.783 436.643 89.579 439.422 91.194L451.465 98.19C453.043 95.713 455.815 94.068 458.967 94.068C463.877 94.068 467.858 98.048 467.858 102.957C467.858 104.458 467.485 105.872 466.829 107.112L477.852 113.516L479.883 114.695L481.311 112.825L485.12 107.838L486.655 105.827L484.721 104.183L472.68 93.944L477.168 86.267L466.588 80.547L463.342 86.003L451.129 75.618C449.822 74.506 448.326 74.158 446.799 74.37C450.535 72.777 454.649 71.894 458.967 71.894V71.892Z" fill="#201C1D"/>
<path fill-rule="evenodd" clip-rule="evenodd" d="M449.406 77.653L466.172 91.908C464.1 90.555 461.627 89.767 458.967 89.767C455.194 89.767 451.789 91.353 449.387 93.894L440.76 88.883C435.74 85.968 445.274 74.138 449.406 77.653V77.653ZM468.709 94.066L482.998 106.217L479.189 111.205L471.587 106.791C471.956 105.577 472.155 104.29 472.155 102.955C472.155 99.53 470.848 96.41 468.708 94.066H468.709Z" fill="#201C1D"/>
<path fill-rule="evenodd" clip-rule="evenodd" d="M458.967 98.6279C461.358 98.6279 463.295 100.566 463.295 102.955C463.295 105.344 461.358 107.283 458.967 107.283C456.576 107.283 454.641 105.345 454.641 102.955C454.641 100.565 456.578 98.6279 458.967 98.6279ZM458.045 100.037H459.889V102.034H461.887V103.878H459.889V105.873H458.045V103.878H456.049V102.034H458.045V100.037Z" fill="white"/>
<path fill-rule="evenodd" clip-rule="evenodd" d="M498.807 118.477H499.815V115.701H498.807V118.477ZM501.338 118.276L502.313 118.016L501.594 115.334L500.619 115.594L501.338 118.276ZM503.731 117.428L504.606 116.923L503.215 114.52L502.342 115.024L503.731 117.429V117.428ZM505.823 115.989L506.536 115.276L504.573 113.314L503.86 114.026L505.823 115.989ZM507.471 114.057L507.975 113.184L505.571 111.797L505.067 112.669L507.471 114.057ZM508.565 111.766L508.825 110.792L506.143 110.073L505.881 111.046L508.565 111.766ZM509.026 109.268V108.261H506.249V109.268H509.026ZM508.825 106.738L508.565 105.762L505.881 106.481L506.143 107.456L508.825 106.738V106.738ZM507.977 104.344L507.471 103.471L505.067 104.86L505.573 105.733L507.977 104.344ZM506.536 102.251L505.823 101.538L503.862 103.502L504.575 104.215L506.536 102.251ZM496.309 118.016L497.284 118.276L498.003 115.594L497.03 115.334L496.309 118.016ZM494.016 116.923L494.891 117.427L496.28 115.022L495.407 114.519L494.016 116.922V116.923ZM492.086 115.276L492.799 115.989L494.762 114.025L494.049 113.312L492.086 115.276ZM490.647 113.183L491.151 114.056L493.557 112.667L493.051 111.794L490.647 113.182V113.183ZM489.799 110.79L490.061 111.765L492.741 111.046L492.481 110.071L489.799 110.79ZM489.598 108.26V109.267H492.375V108.26H489.598ZM490.061 105.762L489.799 106.736L492.481 107.454L492.741 106.481L490.061 105.761V105.762ZM491.151 103.47L490.649 104.344L493.053 105.731L493.557 104.858L491.151 103.47V103.47ZM492.799 101.539L492.086 102.252L494.049 104.214L494.762 103.503L492.799 101.54V101.539Z" fill="white"/>
<path fill-rule="evenodd" clip-rule="evenodd" d="M122.294 54.6331C130.936 54.6331 137.944 61.6411 137.944 70.2831C137.944 78.9251 130.936 85.9331 122.294 85.9331C113.652 85.9331 106.644 78.9251 106.644 70.2831C106.644 61.6411 113.652 54.6331 122.294 54.6331V54.6331Z" fill="#201C1D"/>
<path fill-rule="evenodd" clip-rule="evenodd" d="M122.294 59.759C128.106 59.759 132.818 64.472 132.818 70.283C132.818 76.094 128.105 80.808 122.294 80.808C116.483 80.808 111.769 76.095 111.769 70.283C111.769 64.471 116.482 59.759 122.294 59.759V59.759Z" fill="white"/>
<path fill-rule="evenodd" clip-rule="evenodd" d="M130.843 63.5571L120.732 81.0711C119.635 82.9711 112.491 78.8461 113.588 76.9471L123.699 59.4331C124.796 57.5331 131.941 61.6581 130.843 63.5581V63.5571Z" fill="#201C1D"/>
<path fill-rule="evenodd" clip-rule="evenodd" d="M127.56 61.031C127.921 61.24 128.046 61.707 127.838 62.069L126.37 64.611C126.162 64.973 125.694 65.098 125.333 64.889C124.972 64.681 124.846 64.214 125.055 63.851L126.523 61.309C126.732 60.947 127.199 60.822 127.561 61.031H127.56Z" fill="white"/>
<path fill-rule="evenodd" clip-rule="evenodd" d="M137.521 53.6799L138.366 54.5249L136.475 56.4159L135.629 55.5699L137.52 53.6799H137.521ZM142.731 60.8019L143.186 61.9069L140.714 62.9259L140.258 61.8209L142.73 60.8019H142.731ZM130.739 49.3969L131.827 49.8929L130.719 52.3259L129.631 51.8299L130.739 49.3969ZM105.69 55.0559L106.536 54.2109L108.427 56.1019L107.581 56.9479L105.69 55.0569V55.0559ZM112.812 49.8469L113.918 49.3909L114.937 51.8629L113.832 52.3189L112.812 49.8469ZM101.407 61.8389L101.903 60.7509L104.337 61.8589L103.841 62.9469L101.408 61.8389H101.407ZM107.066 86.8879L106.221 86.0429L108.112 84.1519L108.958 84.9979L107.067 86.8889L107.066 86.8879ZM101.857 79.7659L101.401 78.6609L103.873 77.6419L104.329 78.7469L101.857 79.7659ZM113.849 91.1709L112.761 90.6749L113.869 88.2419L114.957 88.7379L113.849 91.1709V91.1709ZM138.898 85.5119L138.053 86.3569L136.162 84.4659L137.007 83.6199L138.898 85.5109V85.5119ZM131.776 90.7209L130.671 91.1769L129.652 88.7049L130.757 88.2489L131.777 90.7199L131.776 90.7209ZM143.181 78.7289L142.685 79.8169L140.252 78.7089L140.748 77.6209L143.181 78.7289ZM123.267 94.4719H121.32V90.1189H123.267V94.4719ZM98.106 71.2579V69.3109H102.459V71.2579H98.106ZM121.32 46.0969H123.267V50.4499H121.32V46.0969ZM146.481 69.3109V71.2579H142.128V69.3109H146.481Z" fill="#201C1D"/>
<path fill-rule="evenodd" clip-rule="evenodd" d="M491.258 172.825H498.477V206.184H495.7V178.245H494.036V206.184H491.259V172.825H491.258ZM498.477 219.944V253.998H491.258V219.944H494.035V248.579H495.699V219.944H498.476H498.477Z" fill="#201C1D"/>
<path fill-rule="evenodd" clip-rule="evenodd" d="M483.982 180.402H486.357V180.036H487.767V181.253H486.357V180.887H483.982V180.401V180.402ZM483.982 184.593H487.767V184.902H483.982V184.593ZM483.982 188.606H486.357V188.24H487.767V189.457H486.357V189.091H483.982V188.605V188.606ZM483.982 192.797H487.767V193.106H483.982V192.797ZM483.982 196.81H486.357V196.444H487.767V197.661H486.357V197.295H483.982V196.809V196.81ZM483.982 201H487.767V201.309H483.982V201ZM483.982 205.014H486.357V204.648H487.767V205.865H486.357V205.499H483.982V205.014V205.014ZM483.982 209.204H487.767V209.512H483.982V209.204ZM483.982 246.138H486.357V246.502H487.767V245.285H486.357V245.651H483.982V246.137V246.138ZM483.982 241.946H487.767V241.637H483.982V241.946ZM483.982 237.933H486.357V238.299H487.767V237.081H486.357V237.446H483.982V237.932V237.933ZM483.982 233.743H487.767V233.434H483.982V233.743ZM483.982 229.73H486.357V230.094H487.767V228.877H486.357V229.243H483.982V229.729V229.73ZM483.982 225.539H487.767V225.229H483.982V225.539ZM483.982 221.526H486.357V221.891H487.767V220.673H486.357V221.038H483.982V221.525V221.526ZM483.982 217.336H487.767V217.027H483.982V217.336ZM484.482 212.52H487.521V214.198H484.482V212.52ZM482.496 212.307C482.683 212.307 482.828 212.374 482.933 212.507C483.058 212.664 483.12 212.925 483.12 213.291C483.12 213.657 483.056 213.916 482.931 214.076C482.828 214.207 482.683 214.272 482.496 214.272C482.309 214.272 482.158 214.2 482.043 214.057C481.93 213.913 481.871 213.656 481.871 213.287C481.871 212.925 481.933 212.664 482.06 212.505C482.164 212.374 482.308 212.308 482.496 212.308V212.307ZM482.496 212.613C482.451 212.613 482.412 212.627 482.377 212.655C482.342 212.683 482.314 212.735 482.295 212.808C482.27 212.903 482.258 213.063 482.258 213.289C482.258 213.515 482.268 213.67 482.291 213.754C482.314 213.838 482.342 213.895 482.377 213.922C482.412 213.95 482.451 213.964 482.496 213.964C482.541 213.964 482.58 213.949 482.615 213.921C482.65 213.894 482.677 213.842 482.697 213.769C482.722 213.674 482.734 213.514 482.734 213.288C482.734 213.062 482.722 212.907 482.701 212.823C482.678 212.739 482.648 212.682 482.615 212.654C482.58 212.626 482.541 212.612 482.496 212.612V212.613ZM481.055 221.736V221.367H481.78V221.736H481.055ZM483.158 221.906V222.249H481.865C481.879 222.12 481.922 221.997 481.992 221.881C482.06 221.765 482.199 221.611 482.406 221.42C482.572 221.266 482.673 221.159 482.711 221.106C482.764 221.029 482.787 220.954 482.787 220.88C482.787 220.798 482.766 220.734 482.723 220.69C482.678 220.645 482.616 220.624 482.539 220.624C482.461 220.624 482.4 220.647 482.353 220.693C482.31 220.739 482.283 220.816 482.275 220.924L481.908 220.887C481.929 220.684 481.998 220.539 482.115 220.451C482.23 220.362 482.375 220.318 482.547 220.318C482.738 220.318 482.887 220.369 482.996 220.472C483.103 220.574 483.158 220.702 483.158 220.854C483.158 220.941 483.142 221.023 483.111 221.101C483.08 221.18 483.031 221.262 482.963 221.347C482.918 221.404 482.838 221.486 482.723 221.593C482.606 221.699 482.534 221.771 482.502 221.806C482.471 221.841 482.445 221.875 482.426 221.907H483.158V221.906ZM480.98 229.94V229.571H481.705V229.94H480.98ZM482.56 230.453V230.066H481.773V229.743L482.609 228.521H482.918V229.742H483.156V230.066H482.918V230.453H482.56V230.453ZM482.56 229.742V229.085L482.119 229.742H482.56ZM481.013 238.128V237.759H481.738V238.128H481.013ZM483.12 237.188L482.765 237.228C482.755 237.155 482.732 237.1 482.697 237.065C482.66 237.03 482.611 237.012 482.552 237.012C482.476 237.012 482.41 237.047 482.355 237.117C482.302 237.187 482.267 237.333 482.253 237.554C482.345 237.446 482.46 237.391 482.597 237.391C482.751 237.391 482.882 237.45 482.991 237.567C483.1 237.684 483.157 237.835 483.157 238.02C483.157 238.217 483.098 238.375 482.983 238.495C482.868 238.614 482.719 238.673 482.538 238.673C482.345 238.673 482.184 238.599 482.059 238.447C481.934 238.296 481.872 238.049 481.872 237.705C481.872 237.352 481.936 237.099 482.067 236.942C482.198 236.787 482.366 236.709 482.575 236.709C482.721 236.709 482.843 236.75 482.936 236.832C483.034 236.913 483.094 237.032 483.12 237.188V237.188ZM482.286 237.993C482.286 238.113 482.311 238.206 482.368 238.271C482.423 238.335 482.485 238.369 482.555 238.369C482.623 238.369 482.682 238.342 482.727 238.289C482.772 238.235 482.795 238.147 482.795 238.026C482.795 237.901 482.77 237.809 482.721 237.752C482.672 237.692 482.612 237.664 482.537 237.664C482.467 237.664 482.406 237.691 482.357 237.748C482.308 237.803 482.285 237.885 482.285 237.993H482.286ZM481.038 246.331V245.962H481.763V246.331H481.038ZM482.214 245.807C482.118 245.767 482.048 245.711 482.005 245.641C481.962 245.57 481.941 245.493 481.941 245.41C481.941 245.266 481.992 245.148 482.091 245.055C482.191 244.961 482.333 244.914 482.519 244.914C482.701 244.914 482.843 244.961 482.943 245.055C483.044 245.149 483.095 245.267 483.095 245.41C483.095 245.499 483.072 245.578 483.027 245.648C482.98 245.717 482.914 245.771 482.83 245.807C482.937 245.85 483.017 245.912 483.074 245.994C483.129 246.076 483.158 246.171 483.158 246.278C483.158 246.457 483.101 246.6 482.988 246.712C482.875 246.823 482.722 246.879 482.535 246.879C482.359 246.879 482.215 246.833 482.099 246.741C481.96 246.632 481.892 246.483 481.892 246.295C481.892 246.191 481.917 246.096 481.97 246.008C482.021 245.921 482.103 245.854 482.214 245.807ZM482.29 245.436C482.29 245.509 482.309 245.566 482.351 245.607C482.394 245.649 482.449 245.668 482.519 245.668C482.587 245.668 482.644 245.649 482.687 245.607C482.728 245.565 482.75 245.507 482.75 245.434C482.75 245.365 482.728 245.31 482.687 245.268C482.644 245.227 482.589 245.207 482.521 245.207C482.451 245.207 482.394 245.227 482.353 245.269C482.31 245.311 482.291 245.366 482.291 245.436H482.29ZM482.255 246.259C482.255 246.361 482.282 246.44 482.333 246.497C482.386 246.554 482.45 246.582 482.528 246.582C482.604 246.582 482.667 246.555 482.717 246.5C482.766 246.445 482.791 246.366 482.791 246.263C482.791 246.173 482.766 246.101 482.715 246.045C482.664 245.991 482.6 245.964 482.522 245.964C482.432 245.964 482.366 245.995 482.321 246.057C482.276 246.12 482.255 246.187 482.255 246.259V246.259ZM483.157 205.882V206.225H481.864C481.878 206.096 481.921 205.973 481.991 205.857C482.059 205.741 482.198 205.587 482.405 205.396C482.571 205.242 482.672 205.136 482.71 205.082C482.763 205.005 482.786 204.93 482.786 204.856C482.786 204.773 482.765 204.71 482.722 204.666C482.677 204.622 482.615 204.6 482.538 204.6C482.46 204.6 482.399 204.622 482.352 204.669C482.309 204.715 482.282 204.793 482.274 204.9L481.907 204.863C481.928 204.66 481.997 204.515 482.114 204.427C482.229 204.338 482.374 204.294 482.546 204.294C482.737 204.294 482.886 204.345 482.995 204.448C483.102 204.55 483.157 204.677 483.157 204.83C483.157 204.916 483.141 204.999 483.11 205.077C483.079 205.156 483.03 205.237 482.962 205.323C482.917 205.38 482.837 205.463 482.722 205.569C482.605 205.675 482.533 205.747 482.501 205.781C482.47 205.816 482.444 205.85 482.425 205.883H483.157V205.882ZM482.634 198.021V197.634H481.847V197.311L482.683 196.089H482.992V197.31H483.23V197.634H482.992V198.021H482.635H482.634ZM482.634 197.31V196.652L482.193 197.31H482.634ZM483.161 188.348L482.804 188.388C482.796 188.314 482.773 188.26 482.736 188.225C482.699 188.19 482.652 188.172 482.594 188.172C482.516 188.172 482.449 188.207 482.397 188.277C482.342 188.347 482.309 188.492 482.295 188.714C482.387 188.606 482.5 188.551 482.637 188.551C482.791 188.551 482.922 188.61 483.033 188.727C483.142 188.844 483.197 188.995 483.197 189.181C483.197 189.378 483.14 189.536 483.023 189.655C482.908 189.774 482.759 189.833 482.58 189.833C482.385 189.833 482.225 189.758 482.1 189.607C481.975 189.456 481.913 189.208 481.913 188.865C481.913 188.512 481.977 188.258 482.108 188.103C482.239 187.947 482.409 187.869 482.616 187.869C482.762 187.869 482.884 187.909 482.979 187.992C483.075 188.074 483.137 188.192 483.163 188.348H483.161ZM482.325 189.153C482.325 189.273 482.352 189.365 482.407 189.43C482.462 189.495 482.526 189.528 482.596 189.528C482.664 189.528 482.721 189.501 482.766 189.448C482.813 189.394 482.834 189.306 482.834 189.185C482.834 189.06 482.811 188.968 482.762 188.91C482.711 188.851 482.651 188.822 482.578 188.822C482.505 188.822 482.447 188.85 482.396 188.906C482.347 188.961 482.324 189.043 482.324 189.152L482.325 189.153ZM482.227 180.558C482.131 180.517 482.063 180.462 482.02 180.392C481.975 180.321 481.956 180.244 481.956 180.16C481.956 180.017 482.005 179.899 482.104 179.806C482.206 179.712 482.348 179.665 482.532 179.665C482.716 179.665 482.856 179.712 482.958 179.806C483.059 179.899 483.11 180.017 483.11 180.16C483.11 180.25 483.087 180.329 483.04 180.399C482.993 180.468 482.929 180.522 482.845 180.559C482.952 180.601 483.032 180.664 483.089 180.746C483.144 180.828 483.171 180.923 483.171 181.03C483.171 181.208 483.114 181.352 483.001 181.463C482.888 181.575 482.737 181.63 482.55 181.63C482.374 181.63 482.23 181.585 482.113 181.492C481.976 181.383 481.908 181.235 481.908 181.046C481.908 180.942 481.933 180.846 481.984 180.759C482.037 180.672 482.117 180.604 482.228 180.558H482.227ZM482.303 180.187C482.303 180.26 482.324 180.317 482.365 180.358C482.408 180.4 482.461 180.42 482.531 180.42C482.601 180.42 482.658 180.4 482.699 180.358C482.74 180.317 482.761 180.258 482.761 180.185C482.761 180.116 482.74 180.061 482.699 180.019C482.658 179.977 482.603 179.957 482.535 179.957C482.465 179.957 482.408 179.977 482.365 180.02C482.324 180.061 482.303 180.117 482.303 180.187V180.187ZM482.27 181.01C482.27 181.112 482.295 181.191 482.348 181.248C482.399 181.305 482.463 181.333 482.541 181.333C482.619 181.333 482.682 181.305 482.73 181.25C482.781 181.196 482.804 181.117 482.804 181.013C482.804 180.924 482.781 180.85 482.73 180.796C482.677 180.741 482.613 180.715 482.537 180.715C482.447 180.715 482.379 180.746 482.336 180.808C482.291 180.871 482.27 180.937 482.27 181.01Z" fill="#201C1D"/>
<path fill-rule="evenodd" clip-rule="evenodd" d="M489.312 210.215H500.42V215.914H489.312V210.215Z" fill="#201C1D"/>
<path fill-rule="evenodd" clip-rule="evenodd" d="M462.56 172.825H469.777V206.184H467.002V178.245H465.336V206.184H462.561V172.825H462.56ZM469.777 219.944V253.998H462.56V219.944H465.335V248.579H467.001V219.944H469.776H469.777Z" fill="#201C1D"/>
<path fill-rule="evenodd" clip-rule="evenodd" d="M455.283 180.402H457.658V180.036H459.068V181.253H457.658V180.887H455.283V180.401V180.402ZM455.283 184.593H459.068V184.902H455.283V184.593ZM455.283 188.606H457.658V188.24H459.068V189.457H457.658V189.091H455.283V188.605V188.606ZM455.283 192.797H459.068V193.106H455.283V192.797ZM455.283 196.81H457.658V196.444H459.068V197.661H457.658V197.295H455.283V196.809V196.81ZM455.283 201H459.068V201.309H455.283V201ZM455.283 205.014H457.658V204.648H459.068V205.865H457.658V205.499H455.283V205.014V205.014ZM455.283 209.204H459.068V209.512H455.283V209.204ZM455.283 246.138H457.658V246.502H459.068V245.285H457.658V245.651H455.283V246.137V246.138ZM455.283 241.946H459.068V241.637H455.283V241.946ZM455.283 237.933H457.658V238.299H459.068V237.081H457.658V237.446H455.283V237.932V237.933ZM455.283 233.743H459.068V233.434H455.283V233.743ZM455.283 229.73H457.658V230.094H459.068V228.877H457.658V229.243H455.283V229.729V229.73ZM455.283 225.539H459.068V225.229H455.283V225.539ZM455.283 221.526H457.658V221.891H459.068V220.673H457.658V221.038H455.283V221.525V221.526ZM455.283 217.336H459.068V217.027H455.283V217.336ZM455.783 212.52H458.824V214.198H455.783V212.52ZM453.797 212.307C453.984 212.307 454.129 212.374 454.234 212.507C454.359 212.664 454.421 212.925 454.421 213.291C454.421 213.657 454.359 213.916 454.232 214.076C454.129 214.207 453.984 214.272 453.797 214.272C453.61 214.272 453.459 214.2 453.346 214.057C453.231 213.913 453.174 213.656 453.174 213.287C453.174 212.925 453.236 212.664 453.361 212.505C453.464 212.374 453.609 212.308 453.797 212.308V212.307ZM453.797 212.613C453.754 212.613 453.713 212.627 453.678 212.655C453.643 212.683 453.616 212.735 453.596 212.808C453.571 212.903 453.559 213.063 453.559 213.289C453.559 213.515 453.571 213.67 453.592 213.754C453.615 213.838 453.645 213.895 453.68 213.922C453.713 213.95 453.754 213.964 453.797 213.964C453.842 213.964 453.881 213.949 453.916 213.921C453.951 213.894 453.978 213.842 453.998 213.769C454.023 213.674 454.037 213.514 454.037 213.288C454.037 213.062 454.025 212.907 454.002 212.823C453.978 212.739 453.951 212.682 453.916 212.654C453.881 212.626 453.842 212.612 453.797 212.612V212.613ZM452.356 221.736V221.367H453.081V221.736H452.356ZM454.46 221.906V222.249H453.167C453.183 222.12 453.224 221.997 453.294 221.881C453.364 221.765 453.503 221.611 453.708 221.42C453.874 221.266 453.976 221.159 454.015 221.106C454.066 221.029 454.091 220.954 454.091 220.88C454.091 220.798 454.068 220.734 454.025 220.69C453.98 220.645 453.92 220.624 453.841 220.624C453.765 220.624 453.702 220.647 453.658 220.693C453.613 220.739 453.586 220.816 453.578 220.924L453.211 220.887C453.234 220.684 453.303 220.539 453.418 220.451C453.533 220.362 453.678 220.318 453.852 220.318C454.041 220.318 454.19 220.369 454.299 220.472C454.406 220.574 454.461 220.702 454.461 220.854C454.461 220.941 454.445 221.023 454.414 221.101C454.383 221.18 454.334 221.262 454.268 221.347C454.223 221.404 454.143 221.486 454.026 221.593C453.911 221.699 453.837 221.771 453.805 221.806C453.774 221.841 453.748 221.875 453.729 221.907H454.461L454.46 221.906ZM452.282 229.94V229.571H453.007V229.94H452.282ZM453.864 230.453V230.066H453.077V229.743L453.911 228.521H454.22V229.742H454.46V230.066H454.22V230.453H453.865H453.864ZM453.864 229.742V229.085L453.421 229.742H453.864ZM452.317 238.128V237.759H453.042V238.128H452.317ZM454.424 237.188L454.067 237.228C454.059 237.155 454.036 237.1 453.999 237.065C453.962 237.03 453.915 237.012 453.856 237.012C453.778 237.012 453.711 237.047 453.659 237.117C453.604 237.187 453.571 237.333 453.557 237.554C453.649 237.446 453.762 237.391 453.899 237.391C454.053 237.391 454.184 237.45 454.294 237.567C454.405 237.684 454.46 237.835 454.46 238.02C454.46 238.217 454.401 238.375 454.286 238.495C454.171 238.614 454.022 238.673 453.841 238.673C453.648 238.673 453.488 238.599 453.363 238.447C453.238 238.296 453.176 238.049 453.176 237.705C453.176 237.352 453.24 237.099 453.371 236.942C453.502 236.787 453.672 236.709 453.879 236.709C454.025 236.709 454.146 236.75 454.242 236.832C454.338 236.913 454.398 237.032 454.426 237.188H454.424ZM453.588 237.993C453.588 238.113 453.615 238.206 453.67 238.271C453.725 238.335 453.789 238.369 453.859 238.369C453.927 238.369 453.984 238.342 454.029 238.289C454.076 238.235 454.097 238.147 454.097 238.026C454.097 237.901 454.074 237.809 454.023 237.752C453.974 237.692 453.914 237.664 453.839 237.664C453.769 237.664 453.708 237.691 453.659 237.748C453.61 237.803 453.587 237.885 453.587 237.993H453.588ZM452.34 246.331V245.962H453.067V246.331H452.34ZM453.516 245.807C453.42 245.767 453.352 245.711 453.307 245.641C453.264 245.57 453.245 245.493 453.245 245.41C453.245 245.266 453.294 245.148 453.393 245.055C453.494 244.961 453.635 244.914 453.821 244.914C454.003 244.914 454.145 244.961 454.247 245.055C454.347 245.149 454.397 245.267 454.397 245.41C454.397 245.499 454.376 245.578 454.329 245.648C454.282 245.717 454.218 245.771 454.134 245.807C454.239 245.85 454.321 245.912 454.376 245.994C454.433 246.076 454.46 246.171 454.46 246.278C454.46 246.457 454.403 246.6 454.29 246.712C454.177 246.823 454.026 246.879 453.837 246.879C453.663 246.879 453.519 246.833 453.402 246.741C453.263 246.632 453.195 246.483 453.195 246.295C453.195 246.191 453.222 246.096 453.273 246.008C453.324 245.921 453.406 245.854 453.517 245.807H453.516ZM453.592 245.436C453.592 245.509 453.611 245.566 453.654 245.607C453.695 245.649 453.75 245.668 453.82 245.668C453.89 245.668 453.945 245.649 453.988 245.607C454.029 245.565 454.05 245.507 454.05 245.434C454.05 245.365 454.029 245.31 453.988 245.268C453.947 245.227 453.892 245.207 453.824 245.207C453.754 245.207 453.697 245.227 453.654 245.269C453.613 245.311 453.592 245.366 453.592 245.436ZM453.557 246.259C453.557 246.361 453.584 246.44 453.635 246.497C453.688 246.554 453.752 246.582 453.83 246.582C453.906 246.582 453.969 246.555 454.019 246.5C454.068 246.445 454.093 246.366 454.093 246.263C454.093 246.173 454.068 246.101 454.017 246.045C453.966 245.991 453.902 245.964 453.826 245.964C453.734 245.964 453.668 245.995 453.625 246.057C453.58 246.12 453.557 246.187 453.557 246.259V246.259ZM454.459 205.882V206.225H453.166C453.182 206.096 453.223 205.973 453.293 205.857C453.363 205.741 453.502 205.587 453.707 205.396C453.873 205.242 453.975 205.136 454.014 205.082C454.065 205.005 454.09 204.93 454.09 204.856C454.09 204.773 454.067 204.71 454.024 204.666C453.979 204.622 453.919 204.6 453.84 204.6C453.764 204.6 453.701 204.622 453.657 204.669C453.612 204.715 453.585 204.793 453.577 204.9L453.21 204.863C453.233 204.66 453.302 204.515 453.417 204.427C453.532 204.338 453.677 204.294 453.851 204.294C454.04 204.294 454.189 204.345 454.298 204.448C454.405 204.55 454.46 204.677 454.46 204.83C454.46 204.916 454.444 204.999 454.413 205.077C454.382 205.156 454.333 205.237 454.267 205.323C454.222 205.38 454.142 205.463 454.025 205.569C453.91 205.675 453.836 205.747 453.804 205.781C453.773 205.816 453.747 205.85 453.728 205.883H454.46L454.459 205.882ZM453.937 198.021V197.634H453.15V197.311L453.984 196.089H454.293V197.31H454.533V197.634H454.293V198.021H453.937V198.021ZM453.937 197.31V196.652L453.494 197.31H453.937ZM454.462 188.348L454.105 188.388C454.097 188.314 454.074 188.26 454.037 188.225C454.002 188.19 453.953 188.172 453.894 188.172C453.816 188.172 453.752 188.207 453.697 188.277C453.644 188.347 453.609 188.492 453.595 188.714C453.687 188.606 453.8 188.551 453.939 188.551C454.091 188.551 454.224 188.61 454.334 188.727C454.443 188.844 454.498 188.995 454.498 189.181C454.498 189.378 454.441 189.536 454.326 189.655C454.209 189.774 454.062 189.833 453.881 189.833C453.686 189.833 453.527 189.758 453.402 189.607C453.277 189.456 453.213 189.208 453.213 188.865C453.213 188.512 453.279 188.258 453.41 188.103C453.539 187.947 453.709 187.869 453.918 187.869C454.062 187.869 454.185 187.909 454.279 187.992C454.375 188.074 454.437 188.192 454.463 188.348H454.462ZM453.626 189.153C453.626 189.273 453.653 189.365 453.708 189.43C453.765 189.495 453.827 189.528 453.897 189.528C453.965 189.528 454.022 189.501 454.069 189.448C454.114 189.394 454.135 189.306 454.135 189.185C454.135 189.06 454.112 188.968 454.063 188.91C454.014 188.851 453.954 188.822 453.879 188.822C453.809 188.822 453.748 188.85 453.699 188.906C453.65 188.961 453.625 189.043 453.625 189.152L453.626 189.153ZM453.53 180.558C453.434 180.517 453.364 180.462 453.321 180.392C453.278 180.321 453.257 180.244 453.257 180.16C453.257 180.017 453.306 179.899 453.407 179.806C453.507 179.712 453.649 179.665 453.835 179.665C454.017 179.665 454.159 179.712 454.259 179.806C454.36 179.899 454.411 180.017 454.411 180.16C454.411 180.25 454.388 180.329 454.341 180.399C454.296 180.468 454.23 180.522 454.146 180.559C454.253 180.601 454.334 180.664 454.39 180.746C454.445 180.828 454.474 180.923 454.474 181.03C454.474 181.208 454.417 181.352 454.302 181.463C454.189 181.575 454.038 181.63 453.851 181.63C453.675 181.63 453.531 181.585 453.414 181.492C453.277 181.383 453.209 181.235 453.209 181.046C453.209 180.942 453.234 180.846 453.287 180.759C453.338 180.672 453.42 180.604 453.531 180.558H453.53ZM453.604 180.187C453.604 180.26 453.626 180.317 453.667 180.358C453.71 180.4 453.765 180.42 453.835 180.42C453.903 180.42 453.96 180.4 454.001 180.358C454.044 180.317 454.065 180.258 454.065 180.185C454.065 180.116 454.044 180.061 454.001 180.019C453.96 179.978 453.905 179.957 453.837 179.957C453.767 179.957 453.71 179.977 453.669 180.02C453.626 180.061 453.605 180.117 453.605 180.187H453.604ZM453.571 181.01C453.571 181.112 453.596 181.191 453.649 181.248C453.702 181.305 453.766 181.333 453.844 181.333C453.92 181.333 453.983 181.305 454.031 181.25C454.082 181.196 454.107 181.117 454.107 181.013C454.107 180.924 454.082 180.85 454.031 180.796C453.98 180.741 453.916 180.715 453.838 180.715C453.748 180.715 453.682 180.746 453.637 180.808C453.592 180.871 453.571 180.937 453.571 181.01Z" fill="#201C1D"/>
<path fill-rule="evenodd" clip-rule="evenodd" d="M460.615 210.215H471.723V215.914H460.615V210.215Z" fill="#201C1D"/>
<path fill-rule="evenodd" clip-rule="evenodd" d="M391.559 338.119V333.518H471.319V335.287H395.11V336.349H471.319V338.118H391.559V338.119ZM479.092 333.518H504.147V338.119H479.092V336.35H500.594V335.288H479.092V333.519V333.518Z" fill="#201C1D"/>
<path fill-rule="evenodd" clip-rule="evenodd" d="M395.812 342.758V340.345H395.639V342.758H395.812Z" fill="#201C1D"/>
<path fill-rule="evenodd" clip-rule="evenodd" d="M398.184 342.758V341.244H398.391V340.345H398.184H397.908H397.703V341.244H397.908V342.758H398.184Z" fill="#201C1D"/>
<path fill-rule="evenodd" clip-rule="evenodd" d="M400.455 342.758V340.345H400.281V342.758H400.455Z" fill="#201C1D"/>
<path fill-rule="evenodd" clip-rule="evenodd" d="M402.826 342.758V341.244H403.033V340.345H402.826H402.553H402.346V341.244H402.553V342.758H402.826Z" fill="#201C1D"/>
<path fill-rule="evenodd" clip-rule="evenodd" d="M405.098 342.758V340.345H404.924V342.758H405.098Z" fill="#201C1D"/>
<path fill-rule="evenodd" clip-rule="evenodd" d="M407.469 342.758V341.244H407.676V340.345H407.469H407.195H406.988V341.244H407.195V342.758H407.469Z" fill="#201C1D"/>
<path fill-rule="evenodd" clip-rule="evenodd" d="M409.74 342.758V340.345H409.566V342.758H409.74Z" fill="#201C1D"/>
<path fill-rule="evenodd" clip-rule="evenodd" d="M412.111 342.758V341.244H412.318V340.345H412.111H411.838H411.631V341.244H411.838V342.758H412.111Z" fill="#201C1D"/>
<path fill-rule="evenodd" clip-rule="evenodd" d="M473.596 339.359V332.277H476.816V339.359H473.596Z" fill="#201C1D"/>
<path fill-rule="evenodd" clip-rule="evenodd" d="M414.383 342.758V340.345H414.209V342.758H414.383Z" fill="#201C1D"/>
<path fill-rule="evenodd" clip-rule="evenodd" d="M416.754 342.758V341.244H416.961V340.345H416.754H416.48H416.273V341.244H416.48V342.758H416.754Z" fill="#201C1D"/>
<path fill-rule="evenodd" clip-rule="evenodd" d="M419.025 342.758V340.345H418.852V342.758H419.025Z" fill="#201C1D"/>
<path fill-rule="evenodd" clip-rule="evenodd" d="M421.398 342.758V341.244H421.603V340.345H421.398H421.123H420.916V341.244H421.123V342.758H421.398Z" fill="#201C1D"/>
<path fill-rule="evenodd" clip-rule="evenodd" d="M423.668 342.758V340.345H423.494V342.758H423.668Z" fill="#201C1D"/>
<path fill-rule="evenodd" clip-rule="evenodd" d="M426.041 342.758V341.244H426.246V340.345H426.041H425.766H425.559V341.244H425.766V342.758H426.041Z" fill="#201C1D"/>
<path fill-rule="evenodd" clip-rule="evenodd" d="M428.312 342.758V340.345H428.137V342.758H428.312Z" fill="#201C1D"/>
<path fill-rule="evenodd" clip-rule="evenodd" d="M430.684 342.758V341.244H430.889V340.345H430.684H430.408H430.201V341.244H430.408V342.758H430.684Z" fill="#201C1D"/>
<path fill-rule="evenodd" clip-rule="evenodd" d="M432.953 342.758V340.345H432.779V342.758H432.953Z" fill="#201C1D"/>
<path fill-rule="evenodd" clip-rule="evenodd" d="M435.326 342.758V341.244H435.533V340.345H435.326H435.051H434.844V341.244H435.051V342.758H435.326Z" fill="#201C1D"/>
<path fill-rule="evenodd" clip-rule="evenodd" d="M437.598 342.758V340.345H437.422V342.758H437.598Z" fill="#201C1D"/>
<path fill-rule="evenodd" clip-rule="evenodd" d="M439.969 342.758V341.244H440.176V340.345H439.969H439.693H439.488V341.244H439.693V342.758H439.969Z" fill="#201C1D"/>
<path fill-rule="evenodd" clip-rule="evenodd" d="M442.24 342.758V340.345H442.064V342.758H442.24Z" fill="#201C1D"/>
<path fill-rule="evenodd" clip-rule="evenodd" d="M444.611 342.758V341.244H444.818V340.345H444.611H444.336H444.131V341.244H444.336V342.758H444.611Z" fill="#201C1D"/>
<path fill-rule="evenodd" clip-rule="evenodd" d="M446.883 342.758V340.345H446.709V342.758H446.883Z" fill="#201C1D"/>
<path fill-rule="evenodd" clip-rule="evenodd" d="M449.254 342.758V341.244H449.459V340.345H449.254H448.978H448.773V341.244H448.978V342.758H449.254Z" fill="#201C1D"/>
<path fill-rule="evenodd" clip-rule="evenodd" d="M451.525 342.758V340.345H451.35V342.758H451.525Z" fill="#201C1D"/>
<path fill-rule="evenodd" clip-rule="evenodd" d="M453.896 342.758V341.244H454.103V340.345H453.896H453.621H453.414V341.244H453.621V342.758H453.896Z" fill="#201C1D"/>
<path fill-rule="evenodd" clip-rule="evenodd" d="M456.168 342.758V340.345H455.994V342.758H456.168Z" fill="#201C1D"/>
<path fill-rule="evenodd" clip-rule="evenodd" d="M458.539 342.758V341.244H458.746V340.345H458.539H458.266H458.059V341.244H458.266V342.758H458.539Z" fill="#201C1D"/>
<path fill-rule="evenodd" clip-rule="evenodd" d="M460.81 342.758V340.345H460.637V342.758H460.81Z" fill="#201C1D"/>
<path fill-rule="evenodd" clip-rule="evenodd" d="M463.182 342.758V341.244H463.389V340.345H463.182H462.908H462.701V341.244H462.908V342.758H463.182Z" fill="#201C1D"/>
<path fill-rule="evenodd" clip-rule="evenodd" d="M465.453 342.758V340.345H465.279V342.758H465.453Z" fill="#201C1D"/>
<path fill-rule="evenodd" clip-rule="evenodd" d="M467.824 342.758V341.244H468.031V340.345H467.824H467.551H467.344V341.244H467.551V342.758H467.824Z" fill="#201C1D"/>
<path fill-rule="evenodd" clip-rule="evenodd" d="M470.096 342.758V340.345H469.922V342.758H470.096Z" fill="#201C1D"/>
<path fill-rule="evenodd" clip-rule="evenodd" d="M472.467 342.758V341.244H472.674V340.345H472.467H472.193H471.986V341.244H472.193V342.758H472.467Z" fill="#201C1D"/>
<path fill-rule="evenodd" clip-rule="evenodd" d="M474.738 342.758V340.345H474.564V342.758H474.738Z" fill="#201C1D"/>
<path fill-rule="evenodd" clip-rule="evenodd" d="M477.111 342.758V341.244H477.316V340.345H477.111H476.836H476.629V341.244H476.836V342.758H477.111Z" fill="#201C1D"/>
<path fill-rule="evenodd" clip-rule="evenodd" d="M479.381 342.758V340.345H479.207V342.758H479.381Z" fill="#201C1D"/>
<path fill-rule="evenodd" clip-rule="evenodd" d="M481.754 342.758V341.244H481.959V340.345H481.754H481.478H481.271V341.244H481.478V342.758H481.754Z" fill="#201C1D"/>
<path fill-rule="evenodd" clip-rule="evenodd" d="M484.023 342.758V340.345H483.85V342.758H484.023Z" fill="#201C1D"/>
<path fill-rule="evenodd" clip-rule="evenodd" d="M486.396 342.758V341.244H486.602V340.345H486.396H486.121H485.914V341.244H486.121V342.758H486.396Z" fill="#201C1D"/>
<path fill-rule="evenodd" clip-rule="evenodd" d="M488.668 342.758V340.345H488.492V342.758H488.668Z" fill="#201C1D"/>
<path fill-rule="evenodd" clip-rule="evenodd" d="M491.039 342.758V341.244H491.244V340.345H491.039H490.764H490.557V341.244H490.764V342.758H491.039Z" fill="#201C1D"/>
<path fill-rule="evenodd" clip-rule="evenodd" d="M493.31 342.758V340.345H493.135V342.758H493.31Z" fill="#201C1D"/>
<path fill-rule="evenodd" clip-rule="evenodd" d="M495.682 342.758V341.244H495.887V340.345H495.682H495.406H495.201V341.244H495.406V342.758H495.682Z" fill="#201C1D"/>
<path fill-rule="evenodd" clip-rule="evenodd" d="M497.953 342.758V340.345H497.777V342.758H497.953Z" fill="#201C1D"/>
<path fill-rule="evenodd" clip-rule="evenodd" d="M500.324 342.758V341.244H500.531V340.345H500.324H500.049H499.844V341.244H500.049V342.758H500.324Z" fill="#201C1D"/>
<path fill-rule="evenodd" clip-rule="evenodd" d="M474.965 338.712V332.926H475.447V338.712H474.965Z" fill="white"/>
<path fill-rule="evenodd" clip-rule="evenodd" d="M424.213 316.871C426.121 315.544 427.373 313.365 427.397 310.898H425.02C425.012 312.616 424.282 314.164 423.114 315.25L424.214 316.871H424.213ZM427.313 309.72C426.985 307.562 425.708 305.709 423.911 304.584L422.755 306.186C423.849 307.054 424.632 308.296 424.911 309.72H427.313V309.72ZM422.854 304.034C421.942 303.645 420.934 303.43 419.876 303.43C418.399 303.43 417.024 303.849 415.862 304.571L416.473 305.472C417.252 305.102 418.121 304.894 419.041 304.894C420.019 304.894 420.945 305.129 421.762 305.547L422.854 304.034V304.034ZM414.911 305.269C413.61 306.394 412.706 307.955 412.436 309.72H413.172C413.461 308.239 414.299 306.952 415.463 306.081L414.91 305.269H414.911ZM412.352 310.899C412.369 312.799 413.118 314.529 414.332 315.829L414.84 315.127C413.748 314.048 413.069 312.553 413.063 310.899H412.352Z" fill="#201C1D"/>
<path fill-rule="evenodd" clip-rule="evenodd" d="M419.689 305.732C422.248 306.049 424.228 308.231 424.228 310.876C424.228 313.737 421.908 316.059 419.044 316.059C416.18 316.059 413.862 313.738 413.862 310.876C413.862 308.212 415.874 306.017 418.46 305.726L419.071 304.559L419.688 305.733L419.689 305.732Z" fill="#201C1D"/>
<path fill-rule="evenodd" clip-rule="evenodd" d="M419.041 315.138C421.394 315.138 423.305 313.227 423.305 310.872C423.305 308.517 421.395 306.607 419.041 306.607C416.687 306.607 414.775 308.517 414.775 310.872C414.775 313.227 416.685 315.138 419.041 315.138Z" fill="white"/>
<path fill-rule="evenodd" clip-rule="evenodd" d="M418.627 306.93H419.453V308.941H418.627V306.93Z" fill="#201C1D"/>
<path d="M421.107 319.692V318.13H421.419L421.788 319.236C421.821 319.339 421.847 319.416 421.862 319.467C421.88 319.41 421.909 319.326 421.946 319.216L422.319 318.129H422.598V319.691H422.399V318.383L421.944 319.691H421.759L421.306 318.361V319.691H421.107V319.692ZM423.646 319.552C423.576 319.613 423.505 319.655 423.441 319.68C423.375 319.704 423.304 319.717 423.23 319.717C423.105 319.717 423.009 319.687 422.943 319.625C422.877 319.565 422.843 319.487 422.843 319.394C422.843 319.337 422.855 319.288 422.88 319.242C422.905 319.196 422.939 319.159 422.98 319.132C423.021 319.104 423.066 319.083 423.119 319.07C423.154 319.06 423.213 319.05 423.289 319.041C423.443 319.023 423.556 319.001 423.631 318.975V318.926C423.631 318.847 423.613 318.792 423.578 318.76C423.529 318.717 423.455 318.695 423.359 318.695C423.267 318.695 423.201 318.711 423.158 318.742C423.115 318.774 423.084 318.83 423.062 318.911L422.877 318.885C422.893 318.805 422.922 318.741 422.961 318.692C422.998 318.642 423.057 318.604 423.131 318.578C423.203 318.551 423.289 318.537 423.387 318.537C423.485 318.537 423.561 318.549 423.621 318.572C423.681 318.594 423.726 318.623 423.756 318.658C423.783 318.692 423.803 318.735 423.815 318.788C423.821 318.821 423.825 318.88 423.825 318.965V319.221C423.825 319.4 423.829 319.513 423.839 319.559C423.847 319.607 423.862 319.653 423.886 319.696H423.687C423.666 319.656 423.654 319.609 423.648 319.556L423.646 319.552ZM423.63 319.123C423.56 319.152 423.454 319.176 423.318 319.196C423.238 319.207 423.183 319.219 423.15 319.234C423.117 319.248 423.091 319.269 423.074 319.296C423.056 319.323 423.047 319.354 423.047 319.387C423.047 319.438 423.066 319.481 423.106 319.515C423.145 319.549 423.202 319.566 423.276 319.566C423.35 319.566 423.415 319.55 423.473 319.517C423.53 319.485 423.573 319.441 423.6 319.384C423.621 319.341 423.631 319.278 423.631 319.194V319.123H423.63ZM423.993 319.691L424.407 319.102L424.024 318.559H424.262L424.436 318.824C424.469 318.875 424.497 318.918 424.516 318.951C424.547 318.905 424.576 318.863 424.602 318.826L424.793 318.559H425.021L424.63 319.092L425.05 319.691H424.816L424.584 319.339L424.522 319.243L424.225 319.69H423.993V319.691ZM425.266 319.691V319.472H425.485V319.691H425.266Z" fill="#201C1D"/>
<path d="M414.084 319.692V318.13H414.396L414.765 319.236C414.8 319.339 414.826 319.416 414.839 319.467C414.857 319.41 414.886 319.326 414.923 319.216L415.298 318.129H415.575V319.691H415.376V318.383L414.921 319.691H414.735L414.284 318.361V319.691H414.083L414.084 319.692ZM415.885 318.351V318.129H416.078V318.351H415.885ZM415.885 319.692V318.56H416.078V319.692H415.885ZM416.369 319.692V318.56H416.543V318.721C416.627 318.596 416.746 318.534 416.902 318.534C416.97 318.534 417.033 318.547 417.089 318.571C417.148 318.596 417.191 318.628 417.218 318.668C417.247 318.708 417.267 318.755 417.278 318.81C417.284 318.846 417.288 318.909 417.288 318.996V319.692H417.097V319.004C417.097 318.926 417.089 318.867 417.076 318.828C417.06 318.79 417.033 318.759 416.996 318.736C416.957 318.713 416.914 318.701 416.863 318.701C416.781 318.701 416.711 318.726 416.65 318.779C416.591 318.831 416.562 318.928 416.562 319.074V319.692H416.369V319.692ZM417.639 319.692V319.473H417.858V319.692H417.639Z" fill="#201C1D"/>
<path fill-rule="evenodd" clip-rule="evenodd" d="M448.328 316.871C450.234 315.544 451.486 313.365 451.51 310.898H449.133C449.125 312.616 448.395 314.164 447.227 315.25L448.328 316.871V316.871ZM451.428 309.72C451.098 307.562 449.821 305.709 448.024 304.584L446.868 306.186C447.962 307.054 448.745 308.296 449.024 309.72H451.428V309.72ZM446.969 304.034C446.055 303.645 445.047 303.43 443.989 303.43C442.512 303.43 441.137 303.849 439.975 304.571L440.588 305.472C441.365 305.102 442.236 304.894 443.154 304.894C444.134 304.894 445.058 305.129 445.875 305.547L446.969 304.034V304.034ZM439.026 305.269C437.723 306.394 436.819 307.955 436.549 309.72H437.285C437.576 308.239 438.412 306.952 439.576 306.081L439.025 305.269H439.026ZM436.465 310.899C436.485 312.799 437.231 314.529 438.445 315.829L438.953 315.127C437.861 314.048 437.182 312.553 437.176 310.899H436.465Z" fill="#201C1D"/>
<path fill-rule="evenodd" clip-rule="evenodd" d="M443.803 305.732C446.362 306.049 448.342 308.231 448.342 310.876C448.342 313.737 446.022 316.059 443.16 316.059C440.298 316.059 437.976 313.738 437.976 310.876C437.976 308.212 439.988 306.017 442.574 305.726L443.187 304.559L443.802 305.733L443.803 305.732Z" fill="#201C1D"/>
<path fill-rule="evenodd" clip-rule="evenodd" d="M443.154 315.138C445.509 315.138 447.418 313.227 447.418 310.872C447.418 308.517 445.51 306.607 443.154 306.607C440.798 306.607 438.89 308.517 438.89 310.872C438.89 313.227 440.798 315.138 443.154 315.138Z" fill="white"/>
<path fill-rule="evenodd" clip-rule="evenodd" d="M442.74 306.93H443.568V308.941H442.74V306.93Z" fill="#201C1D"/>
<path d="M445.221 319.692V318.13H445.533L445.902 319.236C445.937 319.339 445.963 319.416 445.976 319.467C445.993 319.41 446.023 319.326 446.06 319.216L446.435 318.129H446.712V319.691H446.513V318.383L446.058 319.691H445.872L445.421 318.361V319.691H445.22L445.221 319.692ZM447.76 319.552C447.69 319.613 447.621 319.655 447.555 319.68C447.491 319.704 447.418 319.717 447.344 319.717C447.219 319.717 447.123 319.687 447.057 319.625C446.991 319.565 446.957 319.487 446.957 319.394C446.957 319.337 446.969 319.288 446.994 319.242C447.019 319.196 447.053 319.159 447.094 319.132C447.135 319.104 447.18 319.083 447.233 319.07C447.27 319.06 447.327 319.05 447.403 319.041C447.557 319.023 447.673 319.001 447.745 318.975C447.747 318.949 447.747 318.932 447.747 318.926C447.747 318.847 447.728 318.792 447.692 318.76C447.643 318.717 447.569 318.695 447.473 318.695C447.383 318.695 447.317 318.711 447.272 318.742C447.229 318.774 447.198 318.83 447.178 318.911L446.991 318.885C447.009 318.805 447.036 318.741 447.075 318.692C447.114 318.642 447.171 318.604 447.245 318.578C447.317 318.551 447.403 318.537 447.501 318.537C447.599 318.537 447.677 318.549 447.737 318.572C447.796 318.594 447.84 318.623 447.87 318.658C447.897 318.692 447.917 318.735 447.929 318.788C447.937 318.821 447.939 318.88 447.939 318.965V319.221C447.939 319.4 447.943 319.513 447.953 319.559C447.961 319.607 447.976 319.653 448.002 319.696H447.801C447.782 319.656 447.768 319.609 447.762 319.556L447.76 319.552ZM447.744 319.123C447.674 319.152 447.57 319.176 447.432 319.196C447.352 319.207 447.297 319.219 447.264 319.234C447.231 319.248 447.205 319.269 447.188 319.296C447.17 319.323 447.163 319.354 447.163 319.387C447.163 319.438 447.181 319.481 447.22 319.515C447.259 319.549 447.316 319.566 447.39 319.566C447.464 319.566 447.531 319.55 447.587 319.517C447.646 319.485 447.687 319.441 447.714 319.384C447.735 319.341 447.745 319.278 447.745 319.194V319.123H447.744ZM448.107 319.691L448.521 319.102L448.138 318.559H448.376L448.552 318.824C448.583 318.875 448.611 318.918 448.63 318.951C448.661 318.905 448.69 318.863 448.716 318.826L448.907 318.559H449.135L448.744 319.092L449.166 319.691H448.93L448.698 319.339L448.636 319.243L448.339 319.69H448.107V319.691ZM449.38 319.691V319.472H449.599V319.691H449.38Z" fill="#201C1D"/>
<path d="M438.199 319.692V318.13H438.51L438.879 319.236C438.914 319.339 438.94 319.416 438.953 319.467C438.973 319.41 439 319.326 439.037 319.216L439.412 318.129H439.689V319.691H439.49V318.383L439.037 319.691H438.85L438.399 318.361V319.691H438.2L438.199 319.692ZM440 318.351V318.129H440.191V318.351H440ZM440 319.692V318.56H440.191V319.692H440ZM440.484 319.692V318.56H440.656V318.721C440.74 318.596 440.859 318.534 441.015 318.534C441.083 318.534 441.148 318.547 441.204 318.571C441.261 318.596 441.304 318.628 441.331 318.668C441.36 318.708 441.38 318.755 441.392 318.81C441.4 318.846 441.404 318.909 441.404 318.996V319.692H441.211V319.004C441.211 318.926 441.205 318.867 441.19 318.828C441.174 318.79 441.149 318.759 441.11 318.736C441.071 318.713 441.028 318.701 440.977 318.701C440.895 318.701 440.825 318.726 440.764 318.779C440.705 318.831 440.676 318.928 440.676 319.074V319.692H440.485H440.484ZM441.752 319.692V319.473H441.971V319.692H441.752Z" fill="#201C1D"/>
<path fill-rule="evenodd" clip-rule="evenodd" d="M474.678 316.871C476.584 315.544 477.836 313.365 477.86 310.898H475.483C475.475 312.616 474.745 314.164 473.577 315.25L474.678 316.871V316.871ZM477.776 309.72C477.448 307.562 476.171 305.709 474.374 304.584L473.218 306.186C474.312 307.054 475.095 308.296 475.374 309.72H477.776V309.72ZM473.319 304.034C472.405 303.645 471.397 303.43 470.339 303.43C468.862 303.43 467.487 303.849 466.325 304.571L466.938 305.472C467.715 305.102 468.586 304.894 469.504 304.894C470.482 304.894 471.408 305.129 472.225 305.547L473.319 304.034V304.034ZM465.376 305.269C464.073 306.394 463.169 307.955 462.899 309.72H463.635C463.924 308.239 464.762 306.952 465.926 306.081L465.375 305.269H465.376ZM462.815 310.899C462.833 312.799 463.581 314.529 464.795 315.829L465.303 315.127C464.211 314.048 463.532 312.553 463.526 310.899H462.815Z" fill="#201C1D"/>
<path fill-rule="evenodd" clip-rule="evenodd" d="M470.152 305.732C472.711 306.049 474.691 308.231 474.691 310.876C474.691 313.737 472.371 316.059 469.509 316.059C466.647 316.059 464.325 313.738 464.325 310.876C464.325 308.212 466.337 306.017 468.923 305.726L469.536 304.559L470.151 305.733L470.152 305.732Z" fill="#201C1D"/>
<path fill-rule="evenodd" clip-rule="evenodd" d="M469.504 315.138C471.857 315.138 473.768 313.227 473.768 310.872C473.768 308.517 471.858 306.607 469.504 306.607C467.15 306.607 465.238 308.517 465.238 310.872C465.238 313.227 467.148 315.138 469.504 315.138Z" fill="white"/>
<path fill-rule="evenodd" clip-rule="evenodd" d="M469.09 306.93H469.916V308.941H469.09V306.93Z" fill="#201C1D"/>
<path d="M471.57 319.692V318.13H471.882L472.251 319.236C472.286 319.339 472.311 319.416 472.325 319.467C472.343 319.41 472.372 319.326 472.409 319.216L472.784 318.129H473.061V319.691H472.862V318.383L472.407 319.691H472.222L471.771 318.361V319.691H471.57V319.692ZM474.109 319.552C474.039 319.613 473.97 319.655 473.904 319.68C473.84 319.704 473.767 319.717 473.693 319.717C473.568 319.717 473.472 319.687 473.406 319.625C473.34 319.565 473.306 319.487 473.306 319.394C473.306 319.337 473.318 319.288 473.343 319.242C473.368 319.196 473.401 319.159 473.443 319.132C473.484 319.104 473.529 319.083 473.582 319.07C473.619 319.06 473.676 319.05 473.752 319.041C473.906 319.023 474.021 319.001 474.094 318.975V318.926C474.094 318.847 474.076 318.792 474.041 318.76C473.992 318.717 473.918 318.695 473.822 318.695C473.732 318.695 473.664 318.711 473.621 318.742C473.578 318.774 473.547 318.83 473.527 318.911L473.34 318.885C473.358 318.805 473.385 318.741 473.424 318.692C473.463 318.642 473.52 318.604 473.594 318.578C473.666 318.551 473.752 318.537 473.85 318.537C473.948 318.537 474.026 318.549 474.086 318.572C474.145 318.594 474.19 318.623 474.219 318.658C474.246 318.692 474.266 318.735 474.277 318.788C474.285 318.821 474.287 318.88 474.287 318.965V319.221C474.287 319.4 474.291 319.513 474.301 319.559C474.309 319.607 474.324 319.653 474.348 319.696H474.149C474.13 319.656 474.116 319.609 474.11 319.556L474.109 319.552ZM474.093 319.123C474.023 319.152 473.919 319.176 473.781 319.196C473.701 319.207 473.646 319.219 473.613 319.234C473.58 319.248 473.554 319.269 473.537 319.296C473.519 319.323 473.512 319.354 473.512 319.387C473.512 319.438 473.53 319.481 473.569 319.515C473.608 319.549 473.665 319.566 473.739 319.566C473.813 319.566 473.88 319.55 473.936 319.517C473.993 319.485 474.036 319.441 474.063 319.384C474.085 319.341 474.094 319.278 474.094 319.194V319.123H474.093ZM474.456 319.691L474.87 319.102L474.487 318.559H474.725L474.899 318.824C474.932 318.875 474.959 318.918 474.979 318.951C475.01 318.905 475.04 318.863 475.065 318.826L475.256 318.559H475.484L475.093 319.092L475.513 319.691H475.279L475.047 319.339L474.985 319.243L474.688 319.69H474.456V319.691ZM475.729 319.691V319.472H475.948V319.691H475.729Z" fill="#201C1D"/>
<path d="M464.549 319.692V318.13H464.86L465.229 319.236C465.264 319.339 465.29 319.416 465.303 319.467C465.323 319.41 465.35 319.326 465.387 319.216L465.762 318.129H466.039V319.691H465.84V318.383L465.385 319.691H465.199L464.748 318.361V319.691H464.549V319.692ZM466.35 318.351V318.129H466.541V318.351H466.35ZM466.35 319.692V318.56H466.541V319.692H466.35ZM466.834 319.692V318.56H467.006V318.721C467.09 318.596 467.209 318.534 467.365 318.534C467.433 318.534 467.496 318.547 467.552 318.571C467.611 318.596 467.654 318.628 467.681 318.668C467.71 318.708 467.73 318.755 467.742 318.81C467.748 318.846 467.754 318.909 467.754 318.996V319.692H467.561V319.004C467.561 318.926 467.553 318.867 467.54 318.828C467.524 318.79 467.497 318.759 467.46 318.736C467.421 318.713 467.378 318.701 467.327 318.701C467.245 318.701 467.175 318.726 467.114 318.779C467.055 318.831 467.026 318.928 467.026 319.074V319.692H466.835H466.834ZM468.102 319.692V319.473H468.321V319.692H468.102Z" fill="#201C1D"/>
<path fill-rule="evenodd" clip-rule="evenodd" d="M498.791 316.871C500.697 315.544 501.949 313.365 501.975 310.898H499.598C499.59 312.616 498.858 314.164 497.692 315.25L498.792 316.871H498.791ZM501.891 309.72C501.561 307.562 500.284 305.709 498.489 304.584L497.331 306.186C498.425 307.054 499.208 308.296 499.487 309.72H501.891V309.72ZM497.432 304.034C496.518 303.645 495.51 303.43 494.452 303.43C492.977 303.43 491.6 303.849 490.44 304.571L491.051 305.472C491.828 305.102 492.699 304.894 493.617 304.894C494.597 304.894 495.523 305.129 496.338 305.547L497.432 304.034V304.034ZM489.489 305.269C488.186 306.394 487.284 307.955 487.012 309.72H487.748C488.039 308.239 488.875 306.952 490.039 306.081L489.488 305.269H489.489ZM486.93 310.899C486.948 312.799 487.694 314.529 488.908 315.829L489.416 315.127C488.324 314.048 487.644 312.553 487.639 310.899H486.93Z" fill="#201C1D"/>
<path fill-rule="evenodd" clip-rule="evenodd" d="M494.266 305.732C496.825 306.049 498.805 308.231 498.805 310.876C498.805 313.737 496.485 316.059 493.623 316.059C490.761 316.059 488.439 313.738 488.439 310.876C488.439 308.212 490.451 306.017 493.037 305.726L493.65 304.559L494.265 305.733L494.266 305.732Z" fill="#201C1D"/>
<path fill-rule="evenodd" clip-rule="evenodd" d="M493.617 315.138C495.972 315.138 497.883 313.227 497.883 310.872C497.883 308.517 495.973 306.607 493.617 306.607C491.261 306.607 489.353 308.517 489.353 310.872C489.353 313.227 491.263 315.138 493.617 315.138Z" fill="white"/>
<path fill-rule="evenodd" clip-rule="evenodd" d="M493.203 306.93H494.031V308.941H493.203V306.93Z" fill="#201C1D"/>
<path d="M495.685 319.692V318.13H495.996L496.365 319.236C496.4 319.339 496.426 319.416 496.439 319.467C496.457 319.41 496.486 319.326 496.523 319.216L496.898 318.129H497.175V319.691H496.976V318.383L496.523 319.691H496.336L495.885 318.361V319.691H495.686L495.685 319.692ZM498.222 319.552C498.152 319.613 498.083 319.655 498.017 319.68C497.953 319.704 497.882 319.717 497.806 319.717C497.681 319.717 497.587 319.687 497.519 319.625C497.453 319.565 497.419 319.487 497.419 319.394C497.419 319.337 497.431 319.288 497.456 319.242C497.481 319.196 497.515 319.159 497.556 319.132C497.597 319.104 497.644 319.083 497.695 319.07C497.732 319.06 497.789 319.05 497.865 319.041C498.019 319.023 498.135 319.001 498.207 318.975C498.209 318.949 498.209 318.932 498.209 318.926C498.209 318.847 498.191 318.792 498.154 318.76C498.105 318.717 498.031 318.695 497.935 318.695C497.845 318.695 497.779 318.711 497.736 318.742C497.693 318.774 497.66 318.83 497.64 318.911L497.453 318.885C497.471 318.805 497.498 318.741 497.537 318.692C497.576 318.642 497.633 318.604 497.707 318.578C497.779 318.551 497.865 318.537 497.963 318.537C498.061 318.537 498.139 318.549 498.199 318.572C498.26 318.594 498.302 318.623 498.332 318.658C498.359 318.692 498.381 318.735 498.393 318.788C498.399 318.821 498.403 318.88 498.403 318.965V319.221C498.403 319.4 498.407 319.513 498.415 319.559C498.423 319.607 498.438 319.653 498.464 319.696H498.263C498.244 319.656 498.23 319.609 498.224 319.556L498.222 319.552ZM498.206 319.123C498.138 319.152 498.032 319.176 497.893 319.196C497.813 319.207 497.758 319.219 497.725 319.234C497.694 319.248 497.666 319.269 497.649 319.296C497.631 319.323 497.624 319.354 497.624 319.387C497.624 319.438 497.643 319.481 497.683 319.515C497.72 319.549 497.777 319.566 497.853 319.566C497.925 319.566 497.992 319.55 498.048 319.517C498.107 319.485 498.148 319.441 498.175 319.384C498.196 319.341 498.206 319.278 498.206 319.194V319.123V319.123ZM498.569 319.691L498.983 319.102L498.6 318.559H498.84L499.014 318.824C499.047 318.875 499.073 318.918 499.092 318.951C499.123 318.905 499.152 318.863 499.178 318.826L499.369 318.559H499.597L499.206 319.092L499.628 319.691H499.392L499.16 319.339L499.1 319.243L498.801 319.69H498.569V319.691ZM499.842 319.691V319.472H500.061V319.691H499.842Z" fill="#201C1D"/>
<path d="M488.662 319.692V318.13H488.973L489.344 319.236C489.377 319.339 489.402 319.416 489.418 319.467C489.435 319.41 489.463 319.326 489.5 319.216L489.875 318.129H490.152V319.691H489.953V318.383L489.5 319.691H489.312L488.861 318.361V319.691H488.662V319.692ZM490.463 318.351V318.129H490.654V318.351H490.463ZM490.463 319.692V318.56H490.654V319.692H490.463ZM490.947 319.692V318.56H491.119V318.721C491.203 318.596 491.322 318.534 491.48 318.534C491.546 318.534 491.611 318.547 491.668 318.571C491.725 318.596 491.768 318.628 491.797 318.668C491.824 318.708 491.844 318.755 491.856 318.81C491.864 318.846 491.868 318.909 491.868 318.996V319.692H491.675V319.004C491.675 318.926 491.669 318.867 491.654 318.828C491.638 318.79 491.613 318.759 491.574 318.736C491.537 318.713 491.492 318.701 491.441 318.701C491.359 318.701 491.289 318.726 491.23 318.779C491.17 318.831 491.14 318.928 491.14 319.074V319.692H490.949H490.947ZM492.214 319.692V319.473H492.433V319.692H492.214Z" fill="#201C1D"/>
<path fill-rule="evenodd" clip-rule="evenodd" d="M452.863 273.549V272.518H457.748V263.667H458.771V272.518H461.371V266.787H462.326V272.518H464.926V266.787H465.881V272.518H468.481V266.787H469.436V272.518H472.036V266.787H472.991V272.518H475.591V266.787H476.546V272.518H479.146V266.787H480.101V272.518H481.177V264.672H484.275V281.393H481.177V273.549H480.101V279.679H479.146V273.549H476.546V279.679H475.591V273.549H472.991V279.679H472.036V273.549H469.436V279.679H468.481V273.549H465.881V279.679H464.926V273.549H462.326V279.679H461.371V273.549H458.771V282.797H457.748V273.549H452.863ZM488.654 264.672H491.752V272.518H493.363V263.667H494.386V272.518H499.271V273.549H494.386V282.797H493.363V273.549H491.752V281.393H488.654V264.672Z" fill="#201C1D"/>
<path fill-rule="evenodd" clip-rule="evenodd" d="M486.137 279.864V266.201H486.793V279.864H486.137Z" fill="#201C1D"/>
<path d="M454.029 289.161V285.74H454.484V288.758H456.168V289.161H454.029ZM456.496 287.922C456.496 287.463 456.625 287.123 456.879 286.902C457.092 286.719 457.352 286.627 457.658 286.627C457.998 286.627 458.277 286.738 458.494 286.963C458.711 287.186 458.818 287.494 458.818 287.887C458.818 288.207 458.769 288.458 458.673 288.64C458.579 288.824 458.439 288.965 458.257 289.067C458.073 289.168 457.874 289.217 457.657 289.217C457.311 289.217 457.03 289.107 456.817 288.884C456.602 288.662 456.495 288.341 456.495 287.922H456.496ZM456.928 287.922C456.928 288.24 456.998 288.478 457.137 288.635C457.276 288.793 457.449 288.872 457.658 288.872C457.867 288.872 458.041 288.793 458.179 288.634C458.316 288.476 458.386 288.234 458.386 287.909C458.386 287.602 458.316 287.369 458.177 287.211C458.038 287.054 457.865 286.975 457.658 286.975C457.449 286.975 457.275 287.054 457.137 287.211C456.998 287.367 456.928 287.605 456.928 287.922V287.922ZM459.768 289.161L459.01 286.684H459.444L459.838 288.115L459.984 288.646C459.992 288.62 460.033 288.449 460.113 288.135L460.507 286.684H460.939L461.31 288.12L461.433 288.594L461.576 288.117L462 286.684H462.41L461.635 289.161H461.199L460.805 287.678L460.707 287.255L460.207 289.161H459.768V289.161Z" fill="#201C1D"/>
<path d="M489.514 289.161V285.74H489.969V287.145H491.744V285.74H492.199V289.161H491.744V287.55H489.969V289.161H489.514ZM492.901 286.224V285.741H493.321V286.224H492.901ZM492.901 289.161V286.684H493.321V289.161H492.901ZM493.883 289.366L494.291 289.427C494.309 289.553 494.355 289.644 494.434 289.702C494.537 289.779 494.68 289.818 494.862 289.818C495.055 289.818 495.206 289.779 495.311 289.702C495.419 289.624 495.489 289.515 495.526 289.376C495.547 289.289 495.557 289.11 495.555 288.836C495.373 289.052 495.145 289.16 494.869 289.16C494.529 289.16 494.266 289.038 494.078 288.792C493.893 288.546 493.799 288.251 493.799 287.908C493.799 287.671 493.842 287.453 493.926 287.253C494.014 287.053 494.137 286.899 494.299 286.79C494.463 286.682 494.652 286.626 494.871 286.626C495.164 286.626 495.406 286.745 495.596 286.981V286.682H495.983V288.824C495.983 289.21 495.944 289.483 495.866 289.644C495.788 289.805 495.663 289.932 495.493 290.026C495.323 290.119 495.112 290.166 494.864 290.166C494.567 290.166 494.329 290.1 494.147 289.966C493.965 289.834 493.878 289.634 493.883 289.365V289.366ZM494.231 287.878C494.231 288.203 494.295 288.44 494.424 288.59C494.553 288.739 494.715 288.814 494.91 288.814C495.101 288.814 495.263 288.74 495.394 288.591C495.525 288.443 495.591 288.209 495.591 287.892C495.591 287.589 495.523 287.361 495.388 287.207C495.253 287.054 495.091 286.976 494.902 286.976C494.715 286.976 494.556 287.052 494.426 287.204C494.295 287.354 494.231 287.58 494.231 287.879V287.878ZM496.62 289.161V285.74H497.038V286.968C497.235 286.741 497.481 286.627 497.78 286.627C497.964 286.627 498.124 286.664 498.258 286.736C498.393 286.807 498.49 286.908 498.549 287.036C498.608 287.163 498.637 287.348 498.637 287.591V289.161H498.215V287.591C498.215 287.382 498.17 287.229 498.078 287.133C497.988 287.037 497.859 286.989 497.693 286.989C497.568 286.989 497.451 287.022 497.341 287.087C497.232 287.151 497.154 287.239 497.107 287.35C497.06 287.46 497.037 287.613 497.037 287.807V289.162H496.619L496.62 289.161Z" fill="#201C1D"/>
<path fill-rule="evenodd" clip-rule="evenodd" d="M396.959 50.511C402.602 50.511 407.176 55.086 407.176 60.727C407.176 66.368 402.602 70.943 396.959 70.943C391.316 70.943 386.742 66.368 386.742 60.727C386.742 55.086 391.318 50.511 396.959 50.511V50.511Z" fill="#201C1D"/>
<path fill-rule="evenodd" clip-rule="evenodd" d="M398.109 51.62C402.683 52.186 406.224 56.087 406.224 60.814C406.224 65.93 402.076 70.079 396.958 70.079C391.84 70.079 387.694 65.93 387.694 60.814C387.694 56.051 391.288 52.127 395.913 51.608L397.007 49.522L398.109 51.62V51.62Z" fill="white"/>
<path fill-rule="evenodd" clip-rule="evenodd" d="M397.566 46.898V44.949H397.054V46.868C393.652 46.727 390.175 47.824 387.478 49.967L386.638 49.128L386.279 49.489L387.084 50.294C384.494 52.515 382.705 55.748 382.545 59.809H381.867V60.32H384.625V60.062C384.67 56.426 386.082 53.507 388.223 51.434L388.227 51.438L388.364 51.302C393.84 46.165 403.85 46.429 408.128 54.199C405.917 49.537 401.833 47.233 397.567 46.898H397.566Z" fill="#201C1D"/>
<path fill-rule="evenodd" clip-rule="evenodd" d="M396.959 54.4199C400.49 54.4199 403.353 57.2829 403.353 60.8139C403.353 64.3449 400.49 67.2079 396.959 67.2079C393.428 67.2079 390.566 64.3449 390.566 60.8139C390.566 57.2829 393.429 54.4199 396.959 54.4199Z" fill="#201C1D"/>
<path fill-rule="evenodd" clip-rule="evenodd" d="M396.545 55.0471H397.375V57.8121H396.545V55.0471Z" fill="white"/>
<path d="M381.994 65.5109V64.7249H381.203V64.1819H381.994V63.3959H382.523V64.1819H383.318V64.7249H382.523V65.5109H381.994ZM385.158 65.9459H384.576V63.7609C384.365 63.9589 384.117 64.1059 383.828 64.1999V63.6739C383.98 63.6249 384.144 63.5309 384.322 63.3929C384.5 63.2539 384.621 63.0939 384.685 62.9089H385.158V65.9459V65.9459Z" fill="#201C1D"/>
<path d="M408.154 57.1011V56.5211H409.293V57.1011H408.154ZM410.986 57.9081H410.406V55.7231C410.195 55.9211 409.945 56.0691 409.658 56.1621V55.6361C409.808 55.5871 409.972 55.4931 410.15 55.3551C410.328 55.2161 410.451 55.0551 410.515 54.8711H410.986V57.9081V57.9081Z" fill="#201C1D"/>
<path fill-rule="evenodd" clip-rule="evenodd" d="M450.004 108.418L450.957 106.814C452.394 109.791 455.441 111.846 458.967 111.846C460.299 111.846 461.561 111.553 462.694 111.029L460.876 114.14L455.747 119.574L448.661 115.972L450.005 108.418H450.004Z" fill="#FFAE12"/>
<path fill-rule="evenodd" clip-rule="evenodd" d="M80.78 186.053C80.888 185.791 80.992 185.528 81.093 185.264C84.307 176.823 86.45 168.184 90.702 160.13C97.534 147.191 105.538 134.658 114.387 123.005C118.912 117.047 125.9 110.788 134.019 112.442C136.251 112.897 138.354 113.883 140.06 115.332C142.01 111.605 143.898 107.85 146.738 104.679C151.422 99.451 157.849 97.737 164.493 100.12C168.318 101.493 170.802 104.69 171.729 108.434C172.863 108.417 173.999 108.544 175.107 108.803C184.852 111.089 187.7 120.21 186.354 129.145C185.699 133.487 184.555 137.706 183.476 141.947C183.959 142.005 184.439 142.091 184.914 142.205C194.089 144.416 195.824 153.372 195.615 161.534C195.485 166.589 195 171.632 194.454 176.655C193.189 188.274 189.8 199.797 189.52 211.485C189.137 227.517 185.728 243.931 181.292 259.303C180.123 263.355 178.41 267.202 177.123 271.209C174.932 278.023 178.55 283.818 181.594 289.661C186.162 298.426 191.108 307.162 196.651 315.347C212.082 338.136 230.468 359.054 249.395 378.982C269.079 399.708 289.653 419.552 309.481 440.132L311.376 442.099H160.809C149.62 412.339 135.317 384.328 118.606 357.308C113.926 349.742 109.285 342.153 104.416 334.705C99.361 326.972 94.033 319.285 88.131 312.171C84.858 308.226 81.246 304.624 77.686 300.943C74.21 297.349 70.79 293.666 67.992 289.506C59.971 277.578 54.031 260.378 52.216 246.133C50.68 234.076 52.176 221.997 49.528 210.012C48.435 205.068 46.96 200.726 44.593 196.249C43.416 194.023 42.106 191.864 40.808 189.706C39.174 186.989 37.566 184.271 36.047 181.488C33.335 176.521 33.288 171.533 37.749 167.579C43.118 162.821 51.073 162.435 57.693 164.343C67.065 167.045 77.167 176.361 80.779 186.051L80.78 186.053Z" fill="#201C1D"/>
<path fill-rule="evenodd" clip-rule="evenodd" d="M178.055 145.716C179.504 139.591 181.152 133.095 181.712 126.805C182.19 121.433 180.69 116.04 175.02 113.915C171.341 112.537 166.677 114.045 165.044 117.599C163.784 120.341 162.575 123.804 161.49 127.12C159.705 132.576 158.515 138.228 156.678 143.643C155.082 148.351 152.838 152.825 151.265 157.54C147.569 168.631 144.341 179.468 140.879 190.635C143.155 179.184 146.253 167.655 150.044 156.281C151.656 151.446 153.892 146.857 155.528 142.03C157.41 136.477 158.453 130.775 160.284 125.179C160.697 123.918 161.139 122.641 161.591 121.387C161.499 121.451 161.407 121.509 161.312 121.558C159.366 122.578 155.956 121.189 154.456 120.319C152.705 119.303 150.515 117.305 150.554 115.069C150.586 113.207 151.702 111.087 152.565 109.503C151.638 111.99 151.122 114.635 152.201 116.593C152.765 117.618 154.001 118.482 155.279 119.174C157.345 120.294 159.13 120.798 160.464 120.469C161.164 120.296 161.773 119.913 162.327 119.383C162.623 118.59 162.919 117.815 163.208 117.07C164.052 114.894 165.544 113.315 167.365 112.358C167.388 111.471 167.323 110.597 167.082 109.759C165.592 104.582 158.395 103.17 154.043 105.348C148.147 108.3 145.278 115.829 142.233 121.402C138.337 128.531 135.085 136.03 131.299 143.2C125.552 154.084 122.26 164.129 119.227 176.037C117.717 181.966 114.258 185.582 110.052 187.224C114.125 185.09 116.281 181.027 117.837 174.913C120.964 162.634 124.359 152.716 130.286 141.494C131.763 138.697 133.131 135.84 134.477 132.972C134.188 133.133 133.864 133.255 133.503 133.326C131.235 133.774 125.755 130.283 125.511 127.069C125.37 125.202 126.764 122.363 127.661 121.046C127.082 122.522 126.352 125.859 126.614 126.989C127.267 129.805 131.749 132.43 133.701 131.989C134.325 131.848 134.823 131.63 135.241 131.34C136.527 128.591 137.81 125.838 139.168 123.123C139.001 122.437 138.715 121.772 138.263 121.172C137.034 119.544 134.972 118.329 132.892 117.956C126.671 116.841 120.975 123.692 117.708 127.994C109.246 139.137 101.271 151.091 94.7461 163.449C90.6211 171.261 88.3181 179.447 85.2091 187.614C84.0201 190.736 82.3051 193.643 81.1211 196.768C78.0101 204.976 72.9501 212.678 69.4071 220.819C67.0361 226.267 67.3021 231.258 67.0411 237.08C66.3491 231.42 65.8351 224.961 68.2691 219.366C71.9081 211.004 76.3471 204.106 79.5421 195.676L79.6651 195.357C78.7731 194.076 77.8381 192.87 76.7051 191.719C76.2421 189.403 75.7321 187.777 74.8461 186.187C71.1551 179.566 63.7321 172.457 56.4891 170.175C51.2801 168.534 45.0571 168.637 41.7641 172.822C39.5801 175.599 40.3721 177.139 41.8531 179.775C43.6201 182.92 45.3881 185.935 47.0271 189.032C49.9231 189.863 57.5111 185.514 57.1371 181.131C56.9491 178.926 55.4971 176.335 54.7201 174.261C56.0741 176.324 59.5671 180.085 58.9741 182.937C58.0971 187.155 51.0491 191.832 48.2351 191.38C49.1761 193.272 50.0581 195.211 50.8561 197.245C51.9111 199.936 52.8711 202.616 53.6941 205.346C57.3391 202.346 60.2721 200.578 64.9011 198.92C60.7971 200.917 57.1161 203.367 53.9221 206.117C54.3361 207.538 54.7121 208.976 55.0451 210.437C58.6261 226.173 55.4081 241.269 60.3971 256.796C63.6411 266.894 69.0861 279.586 75.2111 288.234C80.6061 295.85 88.1931 302.319 93.8691 309.945C104.217 323.847 113.79 338.413 123.012 353.168C141.045 382.018 159.94 411.316 174.462 442.102H294.859C259.003 401.205 220.433 360.937 189.974 315.955C184.577 307.984 179.826 299.578 175.373 291.035C171.934 284.433 169.195 278.355 171.664 270.676C172.924 266.757 174.612 262.965 175.754 259.007C180.028 244.196 184.12 229.973 184.49 214.503C184.768 202.92 187.234 191.417 188.488 179.896C189.263 172.77 190.401 165.398 190.112 158.209C189.918 153.352 188.155 148.037 182.634 147.37C181.51 147.234 180.315 147.294 179.207 147.65C178.6 150.434 178.041 153.258 177.478 156.065C177.498 156.959 177.596 157.848 177.856 158.488C178.856 160.952 183.849 161.74 184.808 159.994C185.734 158.308 186.408 156.11 186.928 154.308C186.636 156.484 186.293 158.943 185.367 160.979C184.358 163.197 177.936 162.489 177.251 159.187C177.158 158.734 177.129 158.254 177.138 157.76C176.789 159.484 176.434 161.198 176.062 162.887C173.662 173.794 169.192 183.542 166.714 194.283C165.481 199.629 164.811 203.603 166.195 206.918C163.79 203.536 164.124 199.63 165.326 194.417C167.742 183.943 171.713 174.051 174.054 163.416C174.474 161.509 174.916 159.506 175.368 157.481C176.242 153.556 177.127 149.633 178.052 145.72L178.055 145.716Z" fill="white"/>
<path fill-rule="evenodd" clip-rule="evenodd" d="M78.873 272.739C76.216 266.98 74.176 261.22 70.161 255.832C75.646 261.324 77.724 265.826 78.873 272.739Z" fill="#201C1D"/>
<path fill-rule="evenodd" clip-rule="evenodd" d="M118.428 162.021C114.575 160.528 110.657 159.129 106.556 158.008C111.363 157.872 115.067 159.759 118.428 162.021Z" fill="#201C1D"/>
<path fill-rule="evenodd" clip-rule="evenodd" d="M145.562 158.934C140.843 157.399 136.066 156.144 131.224 155.229C137.176 154.931 140.776 155.963 145.562 158.934Z" fill="#201C1D"/>
<path fill-rule="evenodd" clip-rule="evenodd" d="M168.072 170.356C163.468 167.722 159.663 166.206 154.505 164.954C160.665 164.779 163.593 166.119 168.072 170.356Z" fill="#201C1D"/>
<path fill-rule="evenodd" clip-rule="evenodd" d="M182.256 188.569L173.319 183.266C176.869 184.285 179.423 185.91 182.256 188.569Z" fill="#201C1D"/>
<path fill-rule="evenodd" clip-rule="evenodd" d="M179.718 121.866C179.286 123.987 178.76 126.144 178.167 128.229C177.402 130.921 173.736 131.508 171.501 131.383C168.642 131.224 164.707 129.479 165.198 125.828C165.503 123.562 165.907 121.677 166.594 119.624C166.363 121.138 166.08 124.79 166.485 126.836C166.941 129.142 169.602 129.898 171.67 130.013C173.027 130.089 174.774 129.956 176.103 129.123C177.832 128.039 178.979 123.732 179.719 121.865L179.718 121.866Z" fill="#201C1D"/>
</g>
<defs>
<clipPath id="clip0_59_19911">
<rect width="566.93" height="442.101" fill="white"/>
</clipPath>
</defs>
</svg>
