<svg width="262" height="55" viewBox="0 0 262 55" fill="none" xmlns="http://www.w3.org/2000/svg">
<path d="M2.45572 28.913C2.34777 28.9309 2.19485 28.9399 1.99696 28.9399C1.63714 28.9399 1.3313 28.868 1.07944 28.7241C0.845558 28.5801 0.683643 28.3822 0.59369 28.1304C0.557708 27.9864 0.539718 27.8785 0.539718 27.8065C0.539718 27.2848 0.863548 26.7631 1.51121 26.2414C2.84251 25.1799 3.76903 23.8846 4.29076 22.3554C4.81248 20.8262 5.07335 18.7932 5.07335 16.2566V13.6389C5.07335 12.3616 5.01038 11.2822 4.88445 10.4006C4.75851 9.5191 4.54262 8.87143 4.23678 8.45765C3.98492 8.13382 3.60711 7.72004 3.10338 7.2163C2.85151 6.96443 2.6716 6.77553 2.56366 6.6496C2.47371 6.50567 2.42873 6.30777 2.42873 6.05591C2.42873 5.66011 2.57265 5.34528 2.8605 5.1114C3.16634 4.87752 3.57113 4.76058 4.07487 4.76058C4.30875 4.76058 4.53363 4.76958 4.74952 4.78757C4.9654 4.80556 5.1543 4.82355 5.31622 4.84154C5.90991 4.93149 6.48561 4.97647 7.04332 4.97647C7.43911 4.97647 7.94285 4.94049 8.55453 4.86853C9.16621 4.79656 9.65195 4.76058 10.0118 4.76058C10.5155 4.76058 10.9113 4.87752 11.1991 5.1114C11.505 5.34528 11.6579 5.66011 11.6579 6.05591C11.6579 6.30777 11.6039 6.50567 11.496 6.6496C11.406 6.77553 11.2351 6.96443 10.9833 7.2163C10.4795 7.72004 10.1017 8.13382 9.84985 8.45765C9.54401 8.87143 9.32812 9.5191 9.20219 10.4006C9.07625 11.2822 9.01329 12.3616 9.01329 13.6389V20.1156C9.01329 22.8681 8.38362 24.946 7.12427 26.3493C5.86493 27.7526 4.30875 28.6071 2.45572 28.913ZM25.7766 25.2699C22.7182 25.2699 20.4334 24.5862 18.9222 23.2189C17.4289 21.8337 16.6823 19.9356 16.6823 17.5249C16.6823 16.9672 16.7003 16.5444 16.7363 16.2566C16.9342 14.3856 17.0332 12.9463 17.0332 11.9388C17.0332 11.1113 16.9612 10.4276 16.8173 9.8879C16.6913 9.33019 16.4754 8.85344 16.1696 8.45765C15.9177 8.13382 15.5399 7.72004 15.0362 7.2163C14.7843 6.96443 14.6044 6.77553 14.4965 6.6496C14.4065 6.50567 14.3616 6.30777 14.3616 6.05591C14.3616 5.66011 14.5055 5.34528 14.7933 5.1114C15.0992 4.87752 15.504 4.76058 16.0077 4.76058C16.2416 4.76058 16.4665 4.76958 16.6823 4.78757C16.8982 4.80556 17.0871 4.82355 17.249 4.84154C17.8427 4.93149 18.4184 4.97647 18.9761 4.97647C19.3719 4.97647 19.8757 4.94049 20.4873 4.86853C21.099 4.79656 21.5848 4.76058 21.9446 4.76058C22.4483 4.76058 22.8441 4.87752 23.132 5.1114C23.4378 5.34528 23.5907 5.66011 23.5907 6.05591C23.5907 6.30777 23.5368 6.50567 23.4288 6.6496C23.3389 6.77553 23.1679 6.96443 22.9161 7.2163C22.4123 7.72004 22.0345 8.13382 21.7827 8.45765C21.4409 8.90742 21.216 9.61804 21.108 10.5895C21.0001 11.543 20.9461 13.1622 20.9461 15.447C20.9461 17.8937 21.3149 19.6748 22.0525 20.7902C22.8081 21.9056 24.0495 22.4633 25.7766 22.4633C27.4857 22.4633 28.7091 21.9056 29.4467 20.7902C30.1843 19.6568 30.5531 17.8757 30.5531 15.447C30.5531 13.1442 30.4991 11.5161 30.3912 10.5625C30.2832 9.60905 30.0583 8.90742 29.7165 8.45765C29.4647 8.13382 29.0869 7.72004 28.5831 7.2163C28.3312 6.96443 28.1513 6.77553 28.0434 6.6496C27.9534 6.50567 27.9085 6.30777 27.9085 6.05591C27.9085 5.66011 28.0524 5.34528 28.3402 5.1114C28.6461 4.87752 29.0509 4.76058 29.5546 4.76058C29.7885 4.76058 30.0134 4.76958 30.2293 4.78757C30.4451 4.80556 30.634 4.82355 30.796 4.84154C31.3896 4.93149 31.9653 4.97647 32.5231 4.97647C32.9188 4.97647 33.4226 4.94049 34.0343 4.86853C34.6459 4.79656 35.1317 4.76058 35.4915 4.76058C35.9952 4.76058 36.391 4.87752 36.6789 5.1114C36.9847 5.34528 37.1376 5.66011 37.1376 6.05591C37.1376 6.30777 37.0837 6.50567 36.9757 6.6496C36.8858 6.77553 36.7149 6.96443 36.463 7.2163C35.9593 7.72004 35.5815 8.13382 35.3296 8.45765C35.0237 8.87143 34.7989 9.35718 34.6549 9.91489C34.529 10.4546 34.466 11.1293 34.466 11.9388C34.466 12.9463 34.565 14.3856 34.7629 16.2566C34.8169 16.6883 34.8438 17.1201 34.8438 17.5519C34.8438 19.9446 34.0882 21.8337 32.577 23.2189C31.0838 24.5862 28.817 25.2699 25.7766 25.2699ZM60.2599 26.2953C59.8281 26.2953 59.3604 25.9895 58.8566 25.3778L56.6438 22.7332C55.3125 21.168 53.7113 19.279 51.8403 17.0661C49.9693 14.8533 48.0173 12.5505 45.9844 10.1578C45.8764 10.0138 45.7865 9.94187 45.7145 9.94187C45.6426 9.94187 45.5886 10.0498 45.5526 10.2657C45.4087 11.0393 45.3367 12.1637 45.3367 13.6389V16.2566C45.3367 17.5339 45.3997 18.6133 45.5256 19.4949C45.6516 20.3764 45.8674 21.0241 46.1733 21.4379C46.3712 21.7077 46.5601 21.9236 46.74 22.0855C46.9379 22.2474 47.1718 22.4273 47.4416 22.6252C47.7295 22.8411 47.9364 23.039 48.0623 23.2189C48.1882 23.3808 48.2512 23.6237 48.2512 23.9476C48.2512 24.3074 48.0983 24.5952 47.7924 24.8111C47.5046 25.027 47.1088 25.1349 46.6051 25.1349C46.2272 25.1349 45.7865 25.0989 45.2827 25.027C44.779 24.955 44.3652 24.919 44.0414 24.919C43.7356 24.919 43.3847 24.955 42.9889 25.027C42.4852 25.0989 41.9815 25.1349 41.4777 25.1349C40.974 25.1349 40.5692 25.027 40.2634 24.8111C39.9755 24.5952 39.8316 24.3074 39.8316 23.9476C39.8316 23.6237 39.8946 23.3808 40.0205 23.2189C40.1464 23.039 40.3533 22.8411 40.6412 22.6252C40.911 22.4273 41.1359 22.2474 41.3158 22.0855C41.5137 21.9236 41.7116 21.7077 41.9095 21.4379C42.2153 21.0241 42.4312 20.3764 42.5572 19.4949C42.6831 18.6133 42.7461 17.5339 42.7461 16.2566V13.6389C42.7461 12.3616 42.6831 11.2822 42.5572 10.4006C42.4312 9.5191 42.2153 8.87143 41.9095 8.45765C41.6576 8.13382 41.2798 7.72004 40.7761 7.2163C40.5242 6.96443 40.3443 6.77553 40.2364 6.6496C40.1464 6.50567 40.1015 6.30777 40.1015 6.05591C40.1015 5.66011 40.2454 5.34528 40.5332 5.1114C40.8391 4.87752 41.2439 4.76058 41.7476 4.76058C41.9995 4.76058 42.3413 4.79656 42.7731 4.86853C43.2408 4.94049 43.6636 4.97647 44.0414 4.97647C44.3832 4.97647 44.752 4.94049 45.1478 4.86853C45.5436 4.79656 45.9394 4.76058 46.3352 4.76058C46.731 4.76058 47.0638 4.85953 47.3337 5.05743C47.6215 5.23733 47.9004 5.4892 48.1702 5.81303L58.236 18.1726C58.3079 18.2625 58.3799 18.3075 58.4519 18.3075C58.5418 18.3075 58.5868 18.2086 58.5868 18.0107V13.6389C58.5868 12.3616 58.5238 11.2822 58.3979 10.4006C58.272 9.5191 58.0561 8.87143 57.7502 8.45765C57.4984 8.13382 57.1206 7.72004 56.6168 7.2163C56.3649 6.96443 56.185 6.77553 56.0771 6.6496C55.9871 6.50567 55.9422 6.30777 55.9422 6.05591C55.9422 5.66011 56.0861 5.34528 56.3739 5.1114C56.6798 4.87752 57.0846 4.76058 57.5883 4.76058C57.8402 4.76058 58.182 4.79656 58.6138 4.86853C59.0815 4.94049 59.5043 4.97647 59.8821 4.97647C60.2239 4.97647 60.5927 4.94049 60.9885 4.86853C61.3843 4.79656 61.7801 4.76058 62.1759 4.76058C62.6796 4.76058 63.0754 4.87752 63.3633 5.1114C63.6691 5.34528 63.822 5.66011 63.822 6.05591C63.822 6.30777 63.7681 6.50567 63.6601 6.6496C63.5702 6.77553 63.3993 6.96443 63.1474 7.2163C62.6437 7.72004 62.2659 8.13382 62.014 8.45765C61.7082 8.87143 61.4923 9.5191 61.3663 10.4006C61.2404 11.2822 61.1774 12.3616 61.1774 13.6389V24.4063C61.1774 25.072 61.1145 25.5487 60.9885 25.8366C60.8806 26.1424 60.6377 26.2953 60.2599 26.2953ZM76.1552 25.3778C74.2842 25.3778 72.5661 24.91 71.0009 23.9745C69.4537 23.039 68.2304 21.7707 67.3308 20.1695C66.4313 18.5684 65.9816 16.8233 65.9816 14.9343C65.9816 13.0632 66.4403 11.3271 67.3578 9.72599C68.2933 8.12482 69.5437 6.85649 71.1089 5.92098C72.6741 4.96748 74.3562 4.49072 76.1552 4.49072C76.9108 4.49072 77.5405 4.5357 78.0442 4.62565C78.548 4.71561 79.0967 4.85054 79.6904 5.03044C80.338 5.24633 80.8958 5.35427 81.3635 5.35427C81.4535 5.35427 81.6424 5.33628 81.9302 5.3003C82.5239 5.21035 82.9647 5.16537 83.2525 5.16537C83.6843 5.16537 83.9811 5.25533 84.1431 5.43523C84.323 5.61514 84.4129 5.92997 84.4129 6.37974C84.4129 6.99142 84.305 7.90894 84.0891 9.1323C83.8732 10.3557 83.6573 11.1113 83.4414 11.3991C83.1536 11.7769 82.8297 11.9658 82.4699 11.9658C81.9662 11.9658 81.4625 11.57 80.9587 10.7784C80.2211 9.59106 79.4115 8.70052 78.53 8.10683C77.6485 7.49515 76.614 7.18931 75.4266 7.18931C74.2572 7.18931 73.2318 7.53113 72.3502 8.21478C71.4687 8.88043 70.83 9.76197 70.4342 10.8594C70.3263 11.2372 70.2723 11.543 70.2723 11.7769C70.2723 12.1007 70.3533 12.3436 70.5152 12.5055C70.6771 12.6495 70.884 12.7484 71.1359 12.8024C71.3877 12.8384 71.7745 12.8743 72.2962 12.9103C72.764 12.9463 73.0878 12.9643 73.2677 12.9643C74.2392 12.9643 74.9409 12.8564 75.3726 12.6405C75.8224 12.4066 76.2362 12.0828 76.614 11.669C76.8299 11.4351 77.0188 11.2642 77.1807 11.1562C77.3606 11.0483 77.5855 10.9943 77.8553 10.9943C78.521 10.9943 79.0607 11.3271 79.4745 11.9928C79.8883 12.6585 80.1581 13.477 80.2841 14.4485C80.356 15.0242 80.392 15.6089 80.392 16.2026C80.392 17.5519 80.1222 18.3075 79.5824 18.4694C79.4925 18.5054 79.3486 18.5234 79.1507 18.5234C78.485 18.5234 77.8643 17.9927 77.2886 16.9312C77.0188 16.4275 76.596 16.0587 76.0203 15.8248C75.4626 15.5909 74.644 15.474 73.5646 15.474C73.1328 15.474 72.8 15.483 72.5661 15.501C71.9364 15.5369 71.4687 15.6179 71.1628 15.7438C70.857 15.8518 70.7041 16.1037 70.7041 16.4994C70.7041 16.7333 70.803 17.0931 71.0009 17.5789C71.4507 18.6403 72.3052 19.5039 73.5646 20.1695C74.8239 20.8352 76.2092 21.168 77.7204 21.168C78.9258 21.168 80.0052 20.8891 80.9587 20.3314C81.9302 19.7737 82.7398 19.0271 83.3874 18.0916C83.6753 17.6958 83.9092 17.408 84.0891 17.2281C84.269 17.0482 84.4579 16.9582 84.6558 16.9582C84.7817 16.9582 84.9077 16.9852 85.0336 17.0392C85.2315 17.1471 85.3304 17.372 85.3304 17.7138C85.3304 18.0196 85.2495 18.3795 85.0876 18.7932C84.296 20.7542 83.1716 22.3464 81.7143 23.5697C80.2571 24.7751 78.4041 25.3778 76.1552 25.3778ZM93.6594 25.1349C93.1017 25.1349 92.6879 25.018 92.418 24.7841C92.1482 24.5502 92.0132 24.2714 92.0132 23.9476C92.0132 23.6237 92.0762 23.3808 92.2021 23.2189C92.3281 23.039 92.535 22.8411 92.8228 22.6252C93.0927 22.4273 93.3176 22.2474 93.4975 22.0855C93.6954 21.9236 93.8933 21.7077 94.0911 21.4379C94.397 21.0241 94.6129 20.3764 94.7388 19.4949C94.8647 18.6133 94.9277 17.5339 94.9277 16.2566L94.9547 10.2117C94.9547 8.68253 94.2531 7.91793 92.8498 7.91793C92.1841 7.91793 91.6174 8.07085 91.1497 8.37669C90.6819 8.66454 90.2322 9.21326 89.8004 10.0228C89.7464 10.1308 89.5935 10.4276 89.3416 10.9134C89.0898 11.3991 88.8469 11.7229 88.613 11.8849C88.3971 12.0288 88.1453 12.0917 87.8574 12.0738C87.5336 12.0558 87.2997 11.8579 87.1558 11.4801C87.0119 11.0843 86.9399 10.5356 86.9399 9.83393C86.9399 9.27622 86.9849 8.56559 87.0748 7.70205C87.2187 6.4427 87.4886 5.55217 87.8844 5.03044C88.2802 4.50872 88.8469 4.24785 89.5845 4.24785C89.9443 4.24785 90.565 4.3468 91.4465 4.5447C92.3461 4.74259 93.2006 4.89551 94.0102 5.00346C94.8378 5.1114 95.8182 5.16537 96.9517 5.16537C98.0851 5.16537 99.0566 5.1114 99.8661 5.00346C100.694 4.89551 101.557 4.74259 102.457 4.5447C103.356 4.3468 103.977 4.24785 104.319 4.24785C105.056 4.24785 105.623 4.50872 106.019 5.03044C106.415 5.55217 106.685 6.4427 106.828 7.70205C106.918 8.56559 106.963 9.27622 106.963 9.83393C106.963 10.5356 106.891 11.0843 106.748 11.4801C106.604 11.8579 106.37 12.0558 106.046 12.0738C105.758 12.0917 105.515 12.0378 105.317 11.9118C105.137 11.7679 104.975 11.579 104.832 11.3451C104.688 11.1113 104.445 10.6705 104.103 10.0228C103.653 9.19526 103.185 8.63756 102.7 8.34971C102.232 8.06186 101.638 7.91793 100.919 7.91793C99.5333 7.91793 98.8407 8.68253 98.8407 10.2117L98.8677 16.2566C98.8677 17.5339 98.9306 18.6133 99.0566 19.4949C99.1825 20.3764 99.3984 21.0241 99.7042 21.4379C99.9021 21.7077 100.091 21.9236 100.271 22.0855C100.469 22.2474 100.703 22.4273 100.973 22.6252C101.26 22.8411 101.467 23.039 101.593 23.2189C101.719 23.3808 101.782 23.6237 101.782 23.9476C101.782 24.2714 101.647 24.5502 101.377 24.7841C101.107 25.018 100.694 25.1349 100.136 25.1349C99.7762 25.1349 99.2365 25.1169 98.5168 25.081C97.9771 25.027 97.4374 25 96.8977 25L95.8182 25.054C94.6309 25.1079 93.9112 25.1349 93.6594 25.1349ZM118.479 25.3778C116.608 25.3778 114.89 24.91 113.324 23.9745C111.777 23.039 110.554 21.7707 109.654 20.1695C108.755 18.5684 108.305 16.8233 108.305 14.9343C108.305 13.0632 108.764 11.3271 109.681 9.72599C110.617 8.12482 111.867 6.85649 113.432 5.92098C114.998 4.96748 116.68 4.49072 118.479 4.49072C119.234 4.49072 119.864 4.5357 120.368 4.62565C120.872 4.71561 121.42 4.85054 122.014 5.03044C122.662 5.24633 123.219 5.35427 123.687 5.35427C123.777 5.35427 123.966 5.33628 124.254 5.3003C124.847 5.21035 125.288 5.16537 125.576 5.16537C126.008 5.16537 126.305 5.25533 126.467 5.43523C126.647 5.61514 126.736 5.92997 126.736 6.37974C126.736 6.99142 126.629 7.90894 126.413 9.1323C126.197 10.3557 125.981 11.1113 125.765 11.3991C125.477 11.7769 125.153 11.9658 124.793 11.9658C124.29 11.9658 123.786 11.57 123.282 10.7784C122.545 9.59106 121.735 8.70052 120.854 8.10683C119.972 7.49515 118.938 7.18931 117.75 7.18931C116.581 7.18931 115.555 7.53113 114.674 8.21478C113.792 8.88043 113.154 9.76197 112.758 10.8594C112.65 11.2372 112.596 11.543 112.596 11.7769C112.596 12.1007 112.677 12.3436 112.839 12.5055C113.001 12.6495 113.208 12.7484 113.459 12.8024C113.711 12.8384 114.098 12.8743 114.62 12.9103C115.088 12.9463 115.411 12.9643 115.591 12.9643C116.563 12.9643 117.264 12.8564 117.696 12.6405C118.146 12.4066 118.56 12.0828 118.938 11.669C119.153 11.4351 119.342 11.2642 119.504 11.1562C119.684 11.0483 119.909 10.9943 120.179 10.9943C120.845 10.9943 121.384 11.3271 121.798 11.9928C122.212 12.6585 122.482 13.477 122.608 14.4485C122.68 15.0242 122.716 15.6089 122.716 16.2026C122.716 17.5519 122.446 18.3075 121.906 18.4694C121.816 18.5054 121.672 18.5234 121.474 18.5234C120.809 18.5234 120.188 17.9927 119.612 16.9312C119.342 16.4275 118.92 16.0587 118.344 15.8248C117.786 15.5909 116.968 15.474 115.888 15.474C115.456 15.474 115.124 15.483 114.89 15.501C114.26 15.5369 113.792 15.6179 113.486 15.7438C113.181 15.8518 113.028 16.1037 113.028 16.4994C113.028 16.7333 113.127 17.0931 113.324 17.5789C113.774 18.6403 114.629 19.5039 115.888 20.1695C117.147 20.8352 118.533 21.168 120.044 21.168C121.249 21.168 122.329 20.8891 123.282 20.3314C124.254 19.7737 125.063 19.0271 125.711 18.0916C125.999 17.6958 126.233 17.408 126.413 17.2281C126.593 17.0482 126.781 16.9582 126.979 16.9582C127.105 16.9582 127.231 16.9852 127.357 17.0392C127.555 17.1471 127.654 17.372 127.654 17.7138C127.654 18.0196 127.573 18.3795 127.411 18.7932C126.62 20.7542 125.495 22.3464 124.038 23.5697C122.581 24.7751 120.728 25.3778 118.479 25.3778ZM139.693 25.3778C137.822 25.3778 136.104 24.91 134.539 23.9745C132.992 23.039 131.768 21.7707 130.869 20.1695C129.969 18.5684 129.52 16.8233 129.52 14.9343C129.52 13.0632 129.978 11.3271 130.896 9.72599C131.831 8.12482 133.082 6.85649 134.647 5.92098C136.212 4.96748 137.894 4.49072 139.693 4.49072C140.449 4.49072 141.079 4.5357 141.582 4.62565C142.086 4.71561 142.635 4.85054 143.228 5.03044C143.876 5.24633 144.434 5.35427 144.902 5.35427C144.992 5.35427 145.18 5.33628 145.468 5.3003C146.062 5.21035 146.503 5.16537 146.791 5.16537C147.222 5.16537 147.519 5.25533 147.681 5.43523C147.861 5.61514 147.951 5.92997 147.951 6.37974C147.951 6.99142 147.843 7.90894 147.627 9.1323C147.411 10.3557 147.195 11.1113 146.979 11.3991C146.692 11.7769 146.368 11.9658 146.008 11.9658C145.504 11.9658 145.001 11.57 144.497 10.7784C143.759 9.59106 142.95 8.70052 142.068 8.10683C141.187 7.49515 140.152 7.18931 138.965 7.18931C137.795 7.18931 136.77 7.53113 135.888 8.21478C135.007 8.88043 134.368 9.76197 133.972 10.8594C133.864 11.2372 133.81 11.543 133.81 11.7769C133.81 12.1007 133.891 12.3436 134.053 12.5055C134.215 12.6495 134.422 12.7484 134.674 12.8024C134.926 12.8384 135.313 12.8743 135.834 12.9103C136.302 12.9463 136.626 12.9643 136.806 12.9643C137.777 12.9643 138.479 12.8564 138.911 12.6405C139.36 12.4066 139.774 12.0828 140.152 11.669C140.368 11.4351 140.557 11.2642 140.719 11.1562C140.899 11.0483 141.124 10.9943 141.393 10.9943C142.059 10.9943 142.599 11.3271 143.013 11.9928C143.426 12.6585 143.696 13.477 143.822 14.4485C143.894 15.0242 143.93 15.6089 143.93 16.2026C143.93 17.5519 143.66 18.3075 143.121 18.4694C143.031 18.5054 142.887 18.5234 142.689 18.5234C142.023 18.5234 141.402 17.9927 140.827 16.9312C140.557 16.4275 140.134 16.0587 139.558 15.8248C139.001 15.5909 138.182 15.474 137.103 15.474C136.671 15.474 136.338 15.483 136.104 15.501C135.475 15.5369 135.007 15.6179 134.701 15.7438C134.395 15.8518 134.242 16.1037 134.242 16.4994C134.242 16.7333 134.341 17.0931 134.539 17.5789C134.989 18.6403 135.843 19.5039 137.103 20.1695C138.362 20.8352 139.747 21.168 141.258 21.168C142.464 21.168 143.543 20.8891 144.497 20.3314C145.468 19.7737 146.278 19.0271 146.926 18.0916C147.213 17.6958 147.447 17.408 147.627 17.2281C147.807 17.0482 147.996 16.9582 148.194 16.9582C148.32 16.9582 148.446 16.9852 148.572 17.0392C148.77 17.1471 148.868 17.372 148.868 17.7138C148.868 18.0196 148.788 18.3795 148.626 18.7932C147.834 20.7542 146.71 22.3464 145.252 23.5697C143.795 24.7751 141.942 25.3778 139.693 25.3778ZM171.445 26.2953C171.013 26.2953 170.545 25.9895 170.042 25.3778L167.829 22.7332C166.498 21.168 164.896 19.279 163.025 17.0661C161.154 14.8533 159.202 12.5505 157.169 10.1578C157.061 10.0138 156.972 9.94187 156.9 9.94187C156.828 9.94187 156.774 10.0498 156.738 10.2657C156.594 11.0393 156.522 12.1637 156.522 13.6389V16.2566C156.522 17.5339 156.585 18.6133 156.711 19.4949C156.837 20.3764 157.052 21.0241 157.358 21.4379C157.556 21.7077 157.745 21.9236 157.925 22.0855C158.123 22.2474 158.357 22.4273 158.627 22.6252C158.914 22.8411 159.121 23.039 159.247 23.2189C159.373 23.3808 159.436 23.6237 159.436 23.9476C159.436 24.3074 159.283 24.5952 158.977 24.8111C158.69 25.027 158.294 25.1349 157.79 25.1349C157.412 25.1349 156.972 25.0989 156.468 25.027C155.964 24.955 155.55 24.919 155.226 24.919C154.921 24.919 154.57 24.955 154.174 25.027C153.67 25.0989 153.166 25.1349 152.663 25.1349C152.159 25.1349 151.754 25.027 151.448 24.8111C151.161 24.5952 151.017 24.3074 151.017 23.9476C151.017 23.6237 151.08 23.3808 151.206 23.2189C151.331 23.039 151.538 22.8411 151.826 22.6252C152.096 22.4273 152.321 22.2474 152.501 22.0855C152.699 21.9236 152.897 21.7077 153.095 21.4379C153.4 21.0241 153.616 20.3764 153.742 19.4949C153.868 18.6133 153.931 17.5339 153.931 16.2566V13.6389C153.931 12.3616 153.868 11.2822 153.742 10.4006C153.616 9.5191 153.4 8.87143 153.095 8.45765C152.843 8.13382 152.465 7.72004 151.961 7.2163C151.709 6.96443 151.529 6.77553 151.421 6.6496C151.331 6.50567 151.286 6.30777 151.286 6.05591C151.286 5.66011 151.43 5.34528 151.718 5.1114C152.024 4.87752 152.429 4.76058 152.933 4.76058C153.184 4.76058 153.526 4.79656 153.958 4.86853C154.426 4.94049 154.849 4.97647 155.226 4.97647C155.568 4.97647 155.937 4.94049 156.333 4.86853C156.729 4.79656 157.124 4.76058 157.52 4.76058C157.916 4.76058 158.249 4.85953 158.519 5.05743C158.807 5.23733 159.085 5.4892 159.355 5.81303L169.421 18.1726C169.493 18.2625 169.565 18.3075 169.637 18.3075C169.727 18.3075 169.772 18.2086 169.772 18.0107V13.6389C169.772 12.3616 169.709 11.2822 169.583 10.4006C169.457 9.5191 169.241 8.87143 168.935 8.45765C168.683 8.13382 168.306 7.72004 167.802 7.2163C167.55 6.96443 167.37 6.77553 167.262 6.6496C167.172 6.50567 167.127 6.30777 167.127 6.05591C167.127 5.66011 167.271 5.34528 167.559 5.1114C167.865 4.87752 168.27 4.76058 168.773 4.76058C169.025 4.76058 169.367 4.79656 169.799 4.86853C170.267 4.94049 170.689 4.97647 171.067 4.97647C171.409 4.97647 171.778 4.94049 172.174 4.86853C172.569 4.79656 172.965 4.76058 173.361 4.76058C173.865 4.76058 174.26 4.87752 174.548 5.1114C174.854 5.34528 175.007 5.66011 175.007 6.05591C175.007 6.30777 174.953 6.50567 174.845 6.6496C174.755 6.77553 174.584 6.96443 174.332 7.2163C173.829 7.72004 173.451 8.13382 173.199 8.45765C172.893 8.87143 172.677 9.5191 172.551 10.4006C172.425 11.2822 172.362 12.3616 172.362 13.6389V24.4063C172.362 25.072 172.299 25.5487 172.174 25.8366C172.066 26.1424 171.823 26.2953 171.445 26.2953ZM183.34 25.1349C182.782 25.1349 182.369 25.018 182.099 24.7841C181.829 24.5502 181.694 24.2714 181.694 23.9476C181.694 23.6237 181.757 23.3808 181.883 23.2189C182.009 23.039 182.216 22.8411 182.503 22.6252C182.773 22.4273 182.998 22.2474 183.178 22.0855C183.376 21.9236 183.574 21.7077 183.772 21.4379C184.078 21.0241 184.294 20.3764 184.419 19.4949C184.545 18.6133 184.608 17.5339 184.608 16.2566L184.635 10.2117C184.635 8.68253 183.934 7.91793 182.53 7.91793C181.865 7.91793 181.298 8.07085 180.83 8.37669C180.363 8.66454 179.913 9.21326 179.481 10.0228C179.427 10.1308 179.274 10.4276 179.022 10.9134C178.77 11.3991 178.528 11.7229 178.294 11.8849C178.078 12.0288 177.826 12.0917 177.538 12.0738C177.214 12.0558 176.98 11.8579 176.836 11.4801C176.692 11.0843 176.621 10.5356 176.621 9.83393C176.621 9.27622 176.666 8.56559 176.755 7.70205C176.899 6.4427 177.169 5.55217 177.565 5.03044C177.961 4.50872 178.528 4.24785 179.265 4.24785C179.625 4.24785 180.246 4.3468 181.127 4.5447C182.027 4.74259 182.881 4.89551 183.691 5.00346C184.518 5.1114 185.499 5.16537 186.632 5.16537C187.766 5.16537 188.737 5.1114 189.547 5.00346C190.374 4.89551 191.238 4.74259 192.137 4.5447C193.037 4.3468 193.658 4.24785 193.999 4.24785C194.737 4.24785 195.304 4.50872 195.7 5.03044C196.095 5.55217 196.365 6.4427 196.509 7.70205C196.599 8.56559 196.644 9.27622 196.644 9.83393C196.644 10.5356 196.572 11.0843 196.428 11.4801C196.284 11.8579 196.05 12.0558 195.727 12.0738C195.439 12.0917 195.196 12.0378 194.998 11.9118C194.818 11.7679 194.656 11.579 194.512 11.3451C194.368 11.1113 194.125 10.6705 193.784 10.0228C193.334 9.19526 192.866 8.63756 192.38 8.34971C191.913 8.06186 191.319 7.91793 190.599 7.91793C189.214 7.91793 188.521 8.68253 188.521 10.2117L188.548 16.2566C188.548 17.5339 188.611 18.6133 188.737 19.4949C188.863 20.3764 189.079 21.0241 189.385 21.4379C189.583 21.7077 189.772 21.9236 189.952 22.0855C190.149 22.2474 190.383 22.4273 190.653 22.6252C190.941 22.8411 191.148 23.039 191.274 23.2189C191.4 23.3808 191.463 23.6237 191.463 23.9476C191.463 24.2714 191.328 24.5502 191.058 24.7841C190.788 25.018 190.374 25.1349 189.817 25.1349C189.457 25.1349 188.917 25.1169 188.197 25.081C187.658 25.027 187.118 25 186.578 25L185.499 25.054C184.312 25.1079 183.592 25.1349 183.34 25.1349ZM214.406 25.1349C213.902 25.1349 213.497 25.027 213.191 24.8111C212.904 24.5952 212.76 24.3074 212.76 23.9476C212.76 23.6237 212.823 23.3808 212.949 23.2189C213.075 23.039 213.281 22.8411 213.569 22.6252C213.839 22.4273 214.064 22.2474 214.244 22.0855C214.442 21.9236 214.64 21.7077 214.838 21.4379C215.107 21.0781 215.305 20.6283 215.431 20.0886C215.557 19.5489 215.629 18.7843 215.647 17.7948C215.629 17.2371 215.485 16.8503 215.215 16.6344C214.964 16.4005 214.514 16.2836 213.866 16.2836H207.066C206.274 16.2836 205.752 16.4545 205.5 16.7963C205.249 17.1381 205.141 17.7048 205.177 18.4964V18.4424C205.213 19.216 205.285 19.8277 205.393 20.2775C205.518 20.7272 205.707 21.114 205.959 21.4379C206.157 21.7077 206.346 21.9236 206.526 22.0855C206.724 22.2474 206.958 22.4273 207.228 22.6252C207.515 22.8411 207.722 23.039 207.848 23.2189C207.974 23.3808 208.037 23.6237 208.037 23.9476C208.037 24.3074 207.884 24.5952 207.578 24.8111C207.291 25.027 206.895 25.1349 206.391 25.1349C206.031 25.1349 205.509 25.0989 204.826 25.027C204.106 24.955 203.549 24.919 203.153 24.919C202.793 24.919 202.307 24.955 201.695 25.027C201.012 25.0989 200.418 25.1349 199.914 25.1349C199.411 25.1349 199.006 25.027 198.7 24.8111C198.412 24.5952 198.268 24.3074 198.268 23.9476C198.268 23.6237 198.331 23.3808 198.457 23.2189C198.583 23.039 198.79 22.8411 199.078 22.6252C199.348 22.4273 199.573 22.2474 199.752 22.0855C199.95 21.9236 200.148 21.7077 200.346 21.4379C200.652 21.0241 200.868 20.3764 200.994 19.4949C201.12 18.6133 201.183 17.5339 201.183 16.2566V13.6389C201.183 12.3616 201.12 11.2822 200.994 10.4006C200.868 9.5191 200.652 8.87143 200.346 8.45765C200.094 8.13382 199.717 7.72004 199.213 7.2163C198.961 6.96443 198.781 6.77553 198.673 6.6496C198.583 6.50567 198.538 6.30777 198.538 6.05591C198.538 5.66011 198.682 5.34528 198.97 5.1114C199.276 4.87752 199.681 4.76058 200.184 4.76058C200.418 4.76058 200.643 4.76958 200.859 4.78757C201.075 4.80556 201.264 4.82355 201.426 4.84154C202.019 4.93149 202.595 4.97647 203.153 4.97647C203.549 4.97647 204.052 4.94049 204.664 4.86853C205.276 4.79656 205.761 4.76058 206.121 4.76058C206.625 4.76058 207.021 4.87752 207.309 5.1114C207.614 5.34528 207.767 5.66011 207.767 6.05591C207.767 6.30777 207.713 6.50567 207.605 6.6496C207.515 6.77553 207.345 6.96443 207.093 7.2163C206.589 7.72004 206.211 8.13382 205.959 8.45765C205.689 8.83545 205.491 9.28522 205.366 9.80694C205.24 10.3287 205.168 11.0933 205.15 12.1007C205.168 12.7124 205.312 13.1352 205.581 13.3691C205.851 13.585 206.346 13.6929 207.066 13.6929H213.839C214.577 13.6929 215.062 13.531 215.296 13.2072C215.548 12.8833 215.656 12.3076 215.62 11.4801C215.584 10.7065 215.503 10.0948 215.377 9.64503C215.269 9.17727 215.089 8.78148 214.838 8.45765C214.586 8.13382 214.208 7.72004 213.704 7.2163C213.452 6.96443 213.272 6.77553 213.164 6.6496C213.075 6.50567 213.03 6.30777 213.03 6.05591C213.03 5.66011 213.173 5.34528 213.461 5.1114C213.767 4.87752 214.172 4.76058 214.676 4.76058C214.91 4.76058 215.134 4.76958 215.35 4.78757C215.566 4.80556 215.755 4.82355 215.917 4.84154C216.511 4.93149 217.086 4.97647 217.644 4.97647C218.04 4.97647 218.544 4.94049 219.155 4.86853C219.767 4.79656 220.253 4.76058 220.613 4.76058C221.116 4.76058 221.512 4.87752 221.8 5.1114C222.106 5.34528 222.259 5.66011 222.259 6.05591C222.259 6.30777 222.205 6.50567 222.097 6.6496C222.007 6.77553 221.836 6.96443 221.584 7.2163C221.08 7.72004 220.703 8.13382 220.451 8.45765C220.145 8.87143 219.929 9.5191 219.803 10.4006C219.677 11.2822 219.614 12.3616 219.614 13.6389V16.2566C219.614 17.5339 219.677 18.6133 219.803 19.4949C219.929 20.3764 220.145 21.0241 220.451 21.4379C220.649 21.7077 220.837 21.9236 221.017 22.0855C221.215 22.2474 221.449 22.4273 221.719 22.6252C222.007 22.8411 222.214 23.039 222.34 23.2189C222.466 23.3808 222.529 23.6237 222.529 23.9476C222.529 24.3074 222.376 24.5952 222.07 24.8111C221.782 25.027 221.386 25.1349 220.882 25.1349C220.523 25.1349 220.001 25.0989 219.317 25.027C218.598 24.955 218.04 24.919 217.644 24.919C217.284 24.919 216.799 24.955 216.187 25.027C215.503 25.0989 214.91 25.1349 214.406 25.1349Z" fill="#FCF4F5"/>
<path d="M2.62799 50.3263C2.28008 50.3263 2.0005 50.2518 1.78927 50.1027C1.59046 49.9536 1.49106 49.7548 1.49106 49.5062C1.49106 49.2826 1.53455 49.1148 1.62153 49.003C1.7085 48.8788 1.8514 48.7421 2.05021 48.593C2.23659 48.4563 2.39191 48.332 2.51616 48.2202C2.65284 48.1084 2.78952 47.9593 2.9262 47.7729C3.13744 47.4871 3.28654 47.0398 3.37352 46.4309C3.4605 45.8221 3.50399 45.0766 3.50399 44.1944V42.3864C3.50399 41.6533 3.4108 40.9575 3.22441 40.299C3.03803 39.6404 2.81437 39.1434 2.55344 38.8079C2.35463 38.547 2.15582 38.3357 1.95701 38.1742C1.77063 38.0127 1.66502 37.9195 1.64016 37.8946C1.45378 37.7455 1.3171 37.6213 1.23012 37.5219C1.15557 37.4225 1.11829 37.2982 1.11829 37.1491C1.11829 36.8757 1.2177 36.6583 1.41651 36.4968C1.62774 36.3352 1.90731 36.2545 2.25523 36.2545C2.45403 36.2545 2.82059 36.2855 3.35488 36.3477C3.44186 36.3601 3.75871 36.3974 4.30543 36.4595C4.85215 36.5092 5.36781 36.534 5.85241 36.534C6.79674 36.534 8.3375 36.3974 10.4747 36.124C11.5557 35.9749 12.2702 35.9003 12.6181 35.9003C13.1027 35.9003 13.4879 36.0432 13.7737 36.329C14.0594 36.6148 14.2023 37.0808 14.2023 37.7269C14.2023 37.8263 14.1899 38.0127 14.1651 38.286C14.0408 39.3422 13.8731 40.1126 13.6618 40.5972C13.463 41.0693 13.2021 41.3054 12.879 41.3054C12.6554 41.3054 12.4441 41.1812 12.2453 40.9327C12.0589 40.6717 11.8726 40.2679 11.6862 39.7212C11.4625 39.0626 11.1084 38.5905 10.6238 38.3047C10.1392 38.0189 9.51171 37.876 8.74133 37.876C7.69759 37.876 7.00798 38.1121 6.67249 38.5842C6.48611 38.8328 6.36185 39.1993 6.29972 39.6839C6.25002 40.1685 6.22517 40.8705 6.22517 41.79C6.2376 42.0137 6.29351 42.169 6.39292 42.256C6.49232 42.3305 6.65385 42.3678 6.87751 42.3678C7.3124 42.3678 7.63546 42.2933 7.8467 42.1441C8.07036 41.995 8.26916 41.7838 8.44312 41.5104C8.59223 41.3116 8.72269 41.1687 8.83452 41.0818C8.94635 40.9824 9.10788 40.9327 9.31912 40.9327C9.77886 40.9327 10.1516 41.1625 10.4374 41.6223C10.7232 42.082 10.9096 42.6474 10.9966 43.3184C11.0463 43.716 11.0711 44.1198 11.0711 44.5298C11.0711 45.4618 10.8847 45.9836 10.512 46.0955C10.4498 46.1203 10.3504 46.1327 10.2138 46.1327C9.75401 46.1327 9.32533 45.7662 8.92772 45.0331C8.5301 44.3372 7.82185 43.9893 6.80296 43.9893C6.59172 43.9893 6.44262 44.008 6.35564 44.0452C6.28109 44.0825 6.2376 44.1819 6.22517 44.3435C6.22517 46.1203 6.41777 47.2634 6.80296 47.7729C6.93964 47.9593 7.0701 48.1084 7.19436 48.2202C7.33104 48.332 7.49257 48.4563 7.67895 48.593C7.87776 48.7421 8.02065 48.8788 8.10763 49.003C8.19461 49.1148 8.2381 49.2826 8.2381 49.5062C8.2381 49.7548 8.13248 49.9536 7.92125 50.1027C7.72244 50.2518 7.44908 50.3263 7.10117 50.3263C6.85266 50.3263 6.49232 50.3015 6.02015 50.2518C5.52313 50.2021 5.13794 50.1772 4.86458 50.1772C4.61607 50.1772 4.28058 50.2021 3.85811 50.2518C3.38595 50.3015 2.97591 50.3263 2.62799 50.3263ZM15.2605 50.3822C14.925 50.3822 14.6516 50.3015 14.4404 50.1399C14.2292 49.966 14.1236 49.7548 14.1236 49.5062C14.1236 49.2826 14.1795 49.1086 14.2913 48.9844C14.4031 48.8601 14.5833 48.7297 14.8318 48.593C14.8815 48.5681 15.0058 48.4936 15.2046 48.3693C15.4034 48.2326 15.5836 48.0525 15.7451 47.8288C15.9687 47.5306 16.1179 47.1951 16.1924 46.8223C16.2794 46.4496 16.3229 45.9526 16.3229 45.3313C16.3229 44.8591 16.267 44.4801 16.1551 44.1944C16.0557 43.8961 15.9315 43.6663 15.7824 43.5047C15.6333 43.3432 15.4407 43.1755 15.2046 43.0015C14.8939 42.8027 14.6703 42.5915 14.5336 42.3678C14.459 42.2311 14.4218 42.1069 14.4218 41.995C14.4218 41.7217 14.5709 41.4732 14.8691 41.2495C14.9809 41.1625 15.1052 41.088 15.2419 41.0259C15.391 40.9637 15.4904 40.9202 15.5401 40.8954C15.9128 40.7711 16.2607 40.6034 16.5838 40.3922C16.6584 40.3424 16.7391 40.2927 16.8261 40.243C16.9131 40.1809 17.0001 40.125 17.087 40.0753C17.3853 39.8641 17.6275 39.715 17.8139 39.628C18.0003 39.5286 18.1867 39.4789 18.3731 39.4789C18.9944 39.4789 19.305 39.9076 19.305 40.7649C19.305 41.0507 19.2739 41.3986 19.2118 41.8087C19.1869 41.9453 19.1621 42.1628 19.1372 42.461C19.4727 41.9143 19.889 41.3986 20.386 40.914C20.8955 40.417 21.4049 40.007 21.9143 39.6839C22.4238 39.3608 22.8587 39.1745 23.219 39.1248C23.393 39.0999 23.5172 39.0875 23.5918 39.0875C24.0142 39.0875 24.2068 39.2801 24.1696 39.6653C24.1696 39.6901 24.1447 39.8516 24.095 40.1499C24.0826 40.212 24.0453 40.4605 23.9832 40.8954C23.9211 41.3303 23.89 41.7776 23.89 42.2373C23.89 42.4858 23.9148 42.8213 23.9645 43.2438C24.0142 43.6414 24.0391 43.9086 24.0391 44.0452C24.0391 44.505 23.8962 44.7908 23.6104 44.9026C23.5607 44.9275 23.4924 44.9399 23.4054 44.9399C23.219 44.9399 23.0513 44.8653 22.9022 44.7162C22.7655 44.5547 22.5729 44.3 22.3244 43.9521C22.0759 43.5793 21.8833 43.3184 21.7466 43.1692C21.4981 42.9207 21.1875 42.7965 20.8147 42.7965C20.3674 42.7965 19.9698 43.0139 19.6218 43.4488C19.2739 43.8837 19.0813 44.5671 19.0441 45.499C19.0689 46.1203 19.1186 46.5987 19.1932 46.9342C19.2801 47.2572 19.423 47.5554 19.6218 47.8288C19.7585 48.0028 19.9138 48.1394 20.0878 48.2388C20.2742 48.3258 20.504 48.4128 20.7774 48.4998C21.1129 48.6116 21.3552 48.7234 21.5043 48.8353C21.6658 48.9471 21.7466 49.1397 21.7466 49.4131C21.7466 49.7113 21.641 49.9474 21.4297 50.1213C21.2185 50.2953 20.9638 50.3822 20.6656 50.3822C20.4916 50.3822 20.3115 50.376 20.1251 50.3636C19.9387 50.3512 19.7585 50.3388 19.5846 50.3263C19.0006 50.2642 18.4911 50.2331 18.0562 50.2331C17.8326 50.2331 17.4101 50.258 16.7888 50.3077C16.1179 50.3574 15.6084 50.3822 15.2605 50.3822ZM30.5157 50.5127C29.5217 50.5127 28.6084 50.2766 27.7759 49.8045C26.9558 49.3323 26.3035 48.6862 25.8189 47.8661C25.3467 47.0336 25.1107 46.1079 25.1107 45.089C25.1107 44.1074 25.353 43.2065 25.8375 42.3864C26.3221 41.5539 26.9745 40.8954 27.7946 40.4108C28.6271 39.9262 29.5341 39.6839 30.5157 39.6839C31.7956 39.6839 32.7896 40.007 33.4979 40.6531C34.2061 41.2992 34.5602 42.2746 34.5602 43.5793C34.5602 43.9521 34.5167 44.2254 34.4298 44.3994C34.3428 44.5609 34.1999 44.6727 34.0011 44.7349C33.8023 44.797 33.4854 44.8405 33.0505 44.8653L28.2605 45.2008C28.3723 45.5487 28.4904 45.8283 28.6146 46.0395C28.9626 46.6981 29.4347 47.1827 30.0311 47.4933C30.64 47.7915 31.2861 47.9406 31.9695 47.9406C32.4665 47.9406 32.9387 47.8723 33.386 47.7356C33.8333 47.5865 34.1999 47.3939 34.4857 47.1578C34.7093 46.9466 34.8957 46.841 35.0448 46.841C35.107 46.841 35.1815 46.872 35.2685 46.9342C35.4052 47.0336 35.4735 47.1454 35.4735 47.2697C35.4735 47.3939 35.4052 47.5741 35.2685 47.8102C34.7839 48.6924 34.1253 49.3634 33.2928 49.8231C32.4603 50.2828 31.5346 50.5127 30.5157 50.5127ZM31.6527 43.132C31.6527 42.5231 31.4911 42.0261 31.1681 41.6409C30.8574 41.2557 30.466 41.0631 29.9939 41.0631C29.6584 41.0631 29.3229 41.1687 28.9874 41.38C28.6643 41.5788 28.4158 41.8832 28.2419 42.2933C28.0679 42.7033 27.9872 43.1692 27.9996 43.6911L31.6527 43.132ZM41.7096 50.5127C40.7156 50.5127 39.8023 50.2766 38.9698 49.8045C38.1497 49.3323 37.4974 48.6862 37.0128 47.8661C36.5406 47.0336 36.3045 46.1079 36.3045 45.089C36.3045 44.1074 36.5468 43.2065 37.0314 42.3864C37.516 41.5539 38.1683 40.8954 38.9884 40.4108C39.8209 39.9262 40.728 39.6839 41.7096 39.6839C42.9894 39.6839 43.9835 40.007 44.6917 40.6531C45.4 41.2992 45.7541 42.2746 45.7541 43.5793C45.7541 43.9521 45.7106 44.2254 45.6236 44.3994C45.5367 44.5609 45.3938 44.6727 45.195 44.7349C44.9961 44.797 44.6793 44.8405 44.2444 44.8653L39.4544 45.2008C39.5662 45.5487 39.6842 45.8283 39.8085 46.0395C40.1564 46.6981 40.6286 47.1827 41.225 47.4933C41.8339 47.7915 42.48 47.9406 43.1634 47.9406C43.6604 47.9406 44.1326 47.8723 44.5799 47.7356C45.0272 47.5865 45.3938 47.3939 45.6795 47.1578C45.9032 46.9466 46.0896 46.841 46.2387 46.841C46.3008 46.841 46.3754 46.872 46.4624 46.9342C46.599 47.0336 46.6674 47.1454 46.6674 47.2697C46.6674 47.3939 46.599 47.5741 46.4624 47.8102C45.9778 48.6924 45.3192 49.3634 44.4867 49.8231C43.6542 50.2828 42.7285 50.5127 41.7096 50.5127ZM42.8465 43.132C42.8465 42.5231 42.685 42.0261 42.3619 41.6409C42.0513 41.2557 41.6599 41.0631 41.1877 41.0631C40.8522 41.0631 40.5168 41.1687 40.1813 41.38C39.8582 41.5788 39.6097 41.8832 39.4357 42.2933C39.2618 42.7033 39.181 43.1692 39.1934 43.6911L42.8465 43.132ZM52.9035 50.5127C51.9094 50.5127 50.9962 50.2766 50.1636 49.8045C49.3436 49.3323 48.6912 48.6862 48.2066 47.8661C47.7345 47.0336 47.4984 46.1079 47.4984 45.089C47.4984 44.1074 47.722 43.2065 48.1694 42.3864C48.6167 41.5539 49.2255 40.8954 49.9959 40.4108C50.7663 39.9262 51.6112 39.6839 52.5307 39.6839C53.7981 39.6839 54.7673 40.1623 55.4383 41.119V40.2058C55.4383 39.5348 55.3761 39.0316 55.2519 38.6961C55.1276 38.3482 54.9785 38.1245 54.8046 38.0251C54.6306 37.9133 54.4069 37.8325 54.1336 37.7828C53.9348 37.7455 53.7795 37.702 53.6676 37.6523C53.5682 37.5902 53.4937 37.4846 53.444 37.3355C53.3943 37.1367 53.3694 37.0124 53.3694 36.9627C53.3694 36.7639 53.4502 36.621 53.6117 36.534C53.7857 36.4346 54.1212 36.3104 54.6182 36.1613C54.73 36.124 54.9102 36.0681 55.1587 35.9935C55.4196 35.919 55.6557 35.8382 55.8669 35.7512C56.1155 35.6643 56.482 35.4841 56.9666 35.2107C57.2648 35.0492 57.4885 34.9311 57.6376 34.8566C57.7991 34.782 57.9544 34.7448 58.1035 34.7448C58.2899 34.7448 58.4577 34.8131 58.6068 34.9498C58.7434 35.074 58.8118 35.2604 58.8118 35.5089C58.8118 35.6829 58.7559 36.0494 58.644 36.6086C58.4949 37.3914 58.3769 38.1618 58.2899 38.9197C58.2029 39.6653 58.1594 40.5847 58.1594 41.6782V43.9893C58.1594 45.5674 58.4266 46.7726 58.9609 47.6051L59.4641 48.332C59.6257 48.5557 59.7437 48.7359 59.8183 48.8725C59.8928 49.0092 59.9301 49.1397 59.9301 49.264C59.9301 49.4628 59.8183 49.674 59.5946 49.8977C59.3337 50.1586 59.0541 50.2891 58.7559 50.2891C58.4949 50.2891 58.1719 50.1959 57.7867 50.0095C57.4139 49.8107 56.9045 49.4876 56.2583 49.0403C55.401 50.0219 54.2827 50.5127 52.9035 50.5127ZM50.9837 44.7908C51.0334 45.4618 51.1825 46.0892 51.431 46.6732C51.6796 47.2448 52.015 47.7108 52.4375 48.0711C52.86 48.419 53.3321 48.593 53.854 48.593C54.4132 48.593 54.8418 48.3507 55.1401 47.8661C55.4383 47.3815 55.5874 46.7229 55.5874 45.8904C55.5874 45.207 55.4755 44.5298 55.2519 43.8589C55.0282 43.1755 54.6927 42.6101 54.2454 42.1628C53.7981 41.7155 53.2576 41.4918 52.6239 41.4918C51.518 41.4918 50.9651 42.3989 50.9651 44.213C50.9651 44.4615 50.9713 44.6541 50.9837 44.7908ZM65.9392 50.5127C64.9203 50.5127 63.9884 50.2766 63.1434 49.8045C62.2985 49.3323 61.6275 48.6862 61.1305 47.8661C60.6335 47.0336 60.385 46.1079 60.385 45.089C60.385 44.1074 60.6335 43.2065 61.1305 42.3864C61.6275 41.5664 62.2985 40.914 63.1434 40.4294C64.0008 39.9448 64.9327 39.7025 65.9392 39.7025C66.9456 39.7025 67.8713 39.9386 68.7163 40.4108C69.5736 40.8705 70.2508 41.5104 70.7478 42.3305C71.2448 43.1506 71.4934 44.0701 71.4934 45.089C71.4934 46.0706 71.2448 46.9777 70.7478 47.8102C70.2508 48.6427 69.5736 49.3012 68.7163 49.7858C67.8713 50.2704 66.9456 50.5127 65.9392 50.5127ZM63.8517 45.4804C64.212 46.3129 64.709 47.0336 65.3427 47.6424C65.9889 48.2388 66.6288 48.5371 67.2625 48.5371C67.7595 48.5371 68.1198 48.388 68.3435 48.0897C68.5796 47.7915 68.6976 47.3815 68.6976 46.8596C68.6976 46.2259 68.5423 45.5239 68.2317 44.7535C68.0204 44.2316 67.716 43.716 67.3184 43.2065C66.9332 42.6847 66.5045 42.2622 66.0324 41.9391C65.5726 41.6036 65.1191 41.4359 64.6718 41.4359C64.2244 41.4359 63.8827 41.5912 63.6467 41.9018C63.4106 42.2125 63.2925 42.635 63.2925 43.1692C63.2925 43.8651 63.4789 44.6355 63.8517 45.4804ZM73.8387 50.3822C73.5032 50.3822 73.2299 50.3015 73.0186 50.1399C72.8074 49.966 72.7018 49.7548 72.7018 49.5062C72.7018 49.2577 72.7391 49.0776 72.8136 48.9657C72.9006 48.8415 73.0435 48.6986 73.2423 48.5371C73.5529 48.2761 73.789 48.04 73.9505 47.8288C74.3357 47.3194 74.5283 46.1141 74.5283 44.213C74.5283 43.7905 74.4724 43.4612 74.3606 43.2252C74.2612 42.9891 74.1307 42.8275 73.9692 42.7406C73.8201 42.6412 73.6213 42.548 73.3728 42.461C73.1615 42.3864 72.9938 42.3119 72.8695 42.2373C72.7453 42.1628 72.6397 42.0572 72.5527 41.9205C72.4781 41.7838 72.4408 41.6596 72.4408 41.5477C72.4408 41.2744 72.59 41.0259 72.8882 40.8022C73.087 40.6531 73.3541 40.504 73.6896 40.3549C73.7642 40.3176 73.8822 40.2555 74.0437 40.1685C74.2177 40.0815 74.373 39.9945 74.5097 39.9076C74.7458 39.7585 74.9694 39.6031 75.1807 39.4416C75.3919 39.2676 75.6156 39.075 75.8516 38.8638C76.1126 38.6402 76.3735 38.5283 76.6345 38.5283C76.9078 38.5283 77.1315 38.6464 77.3054 38.8825C77.38 38.9943 77.4173 39.1434 77.4173 39.3298C77.4173 39.4913 77.3986 39.715 77.3613 40.0007C77.3489 40.1002 77.3241 40.3424 77.2868 40.7276C77.2619 41.1128 77.2495 41.5601 77.2495 42.0696C77.7093 41.2122 78.287 40.5164 78.9829 39.9821C79.6787 39.4478 80.4304 39.1807 81.2381 39.1807C82.0706 39.1807 82.7664 39.4167 83.3256 39.8889C83.8847 40.3487 84.2326 40.9327 84.3693 41.6409C84.8166 41.0942 85.3758 40.6655 86.0468 40.3549C86.7177 40.0442 87.4633 39.8889 88.2834 39.8889C89.2898 39.8889 90.0664 40.1747 90.6131 40.7463C91.1599 41.3054 91.4332 42.1379 91.4332 43.2438C91.4332 43.6166 91.4084 43.9707 91.3587 44.3062C91.222 45.3002 91.1536 46.0023 91.1536 46.4123C91.1536 46.8472 91.2096 47.1827 91.3214 47.4188C91.4332 47.6548 91.632 47.9158 91.9178 48.2016C92.2036 48.4874 92.3838 48.7172 92.4583 48.8912C92.5453 49.0651 92.5764 49.2888 92.5515 49.5622C92.5267 49.8107 92.4148 50.0095 92.216 50.1586C92.0172 50.3077 91.7501 50.3822 91.4146 50.3822C91.1909 50.3822 90.8927 50.3574 90.5199 50.3077C90.172 50.258 89.8552 50.2331 89.5694 50.2331C89.3209 50.2331 88.9854 50.258 88.5629 50.3077C88.1653 50.3574 87.8422 50.3822 87.5937 50.3822C86.96 50.3822 86.6432 50.0902 86.6432 49.5062C86.6432 49.3447 86.6742 49.2018 86.7364 49.0776C86.8109 48.9409 86.929 48.7545 87.0905 48.5184C87.3514 48.1581 87.5875 47.7977 87.7988 47.4374C88.01 47.0646 88.215 46.5738 88.4138 45.965C88.5753 45.4928 88.6561 45.0393 88.6561 44.6044C88.6561 43.8961 88.4635 43.3121 88.0783 42.8524C87.7056 42.3927 87.2272 42.1628 86.6432 42.1628C86.345 42.1628 86.0468 42.2249 85.7485 42.3492C85.2143 42.5852 84.8104 42.9704 84.5371 43.5047C84.2637 44.039 84.127 44.6479 84.127 45.3313C84.127 45.8283 84.1954 46.3315 84.332 46.841C84.4812 47.338 84.6862 47.7915 84.9471 48.2016C84.9471 48.2016 85.0217 48.3134 85.1708 48.5371C85.3074 48.7359 85.4068 48.8974 85.469 49.0217C85.5311 49.1459 85.5622 49.2826 85.5622 49.4317C85.5622 49.7175 85.4628 49.9474 85.264 50.1213C85.0651 50.2953 84.7856 50.3822 84.4252 50.3822C84.1892 50.3822 83.8723 50.3574 83.4747 50.3077C83.0771 50.258 82.7416 50.2331 82.4682 50.2331C82.2073 50.2331 81.8904 50.258 81.5177 50.3077C81.1698 50.3574 80.8653 50.3822 80.6044 50.3822C79.9707 50.3822 79.6538 50.0902 79.6538 49.5062C79.6538 49.3447 79.6849 49.2018 79.747 49.0776C79.8216 48.9409 79.9458 48.7483 80.1198 48.4998C80.3683 48.1767 80.5982 47.8288 80.8094 47.456C81.0331 47.0709 81.2567 46.5738 81.4804 45.965C81.6544 45.4928 81.7413 45.0082 81.7413 44.5112C81.7413 43.7657 81.5487 43.1444 81.1635 42.6474C80.7784 42.1379 80.2938 41.8832 79.7098 41.8832C79.424 41.8832 79.1506 41.9453 78.8897 42.0696C78.3181 42.3057 77.8832 42.7095 77.585 43.2811C77.2992 43.8526 77.1563 44.4988 77.1563 45.2195C77.1563 46.1389 77.38 47.0087 77.8273 47.8288C78.0758 48.2637 78.2498 48.5992 78.3492 48.8353C78.461 49.0714 78.5169 49.2888 78.5169 49.4876C78.5169 49.7485 78.4237 49.966 78.2373 50.1399C78.051 50.3015 77.8273 50.3822 77.5664 50.3822C77.4545 50.3822 77.3303 50.376 77.1936 50.3636C77.0569 50.3512 76.9513 50.3388 76.8767 50.3263C76.591 50.2642 76.2617 50.2331 75.8889 50.2331C75.6528 50.2331 75.3484 50.258 74.9756 50.3077C74.5532 50.3574 74.1742 50.3822 73.8387 50.3822ZM106.401 50.4941C105.109 50.4941 103.922 50.171 102.841 49.5249C101.773 48.8788 100.928 48.0028 100.306 46.8969C99.6852 45.791 99.3746 44.5858 99.3746 43.2811C99.3746 41.9888 99.6914 40.7898 100.325 39.6839C100.971 38.578 101.835 37.702 102.916 37.0559C103.997 36.3974 105.159 36.0681 106.401 36.0681C106.923 36.0681 107.358 36.0991 107.706 36.1613C108.054 36.2234 108.433 36.3166 108.843 36.4408C109.29 36.59 109.675 36.6645 109.998 36.6645C110.06 36.6645 110.191 36.6521 110.39 36.6272C110.8 36.5651 111.104 36.534 111.303 36.534C111.601 36.534 111.806 36.5962 111.918 36.7204C112.042 36.8447 112.104 37.0621 112.104 37.3728C112.104 37.7952 112.03 38.4289 111.881 39.2739C111.732 40.1188 111.583 40.6407 111.433 40.8395C111.235 41.1004 111.011 41.2309 110.763 41.2309C110.415 41.2309 110.067 40.9575 109.719 40.4108C109.209 39.5907 108.65 38.9756 108.041 38.5656C107.432 38.1431 106.718 37.9319 105.898 37.9319C105.177 37.9319 104.531 38.1183 103.96 38.491C103.4 38.8638 102.959 39.367 102.636 40.0007C102.326 40.6344 102.17 41.3303 102.17 42.0882C102.17 43.0947 102.4 44.0204 102.86 44.8653C103.332 45.6978 103.972 46.3626 104.78 46.8596C105.587 47.3442 106.488 47.5865 107.482 47.5865C108.315 47.5865 109.06 47.3939 109.719 47.0087C110.39 46.6235 110.949 46.1079 111.396 45.4618C111.595 45.1884 111.757 44.9896 111.881 44.8653C112.005 44.7411 112.136 44.6789 112.272 44.6789C112.359 44.6789 112.446 44.6976 112.533 44.7349C112.67 44.8094 112.738 44.9647 112.738 45.2008C112.738 45.412 112.682 45.6606 112.57 45.9463C112.024 47.3007 111.247 48.4004 110.241 49.2453C109.234 50.0778 107.954 50.4941 106.401 50.4941ZM119.539 50.5127C118.545 50.5127 117.631 50.2766 116.799 49.8045C115.979 49.3323 115.327 48.6862 114.842 47.8661C114.37 47.0336 114.134 46.1079 114.134 45.089C114.134 44.1074 114.376 43.2065 114.861 42.3864C115.345 41.5539 115.998 40.8954 116.818 40.4108C117.65 39.9262 118.557 39.6839 119.539 39.6839C120.819 39.6839 121.813 40.007 122.521 40.6531C123.229 41.2992 123.583 42.2746 123.583 43.5793C123.583 43.9521 123.54 44.2254 123.453 44.3994C123.366 44.5609 123.223 44.6727 123.024 44.7349C122.825 44.797 122.508 44.8405 122.074 44.8653L117.284 45.2008C117.395 45.5487 117.513 45.8283 117.638 46.0395C117.986 46.6981 118.458 47.1827 119.054 47.4933C119.663 47.7915 120.309 47.9406 120.993 47.9406C121.49 47.9406 121.962 47.8723 122.409 47.7356C122.856 47.5865 123.223 47.3939 123.509 47.1578C123.732 46.9466 123.919 46.841 124.068 46.841C124.13 46.841 124.205 46.872 124.292 46.9342C124.428 47.0336 124.497 47.1454 124.497 47.2697C124.497 47.3939 124.428 47.5741 124.292 47.8102C123.807 48.6924 123.148 49.3634 122.316 49.8231C121.483 50.2828 120.558 50.5127 119.539 50.5127ZM120.676 43.132C120.676 42.5231 120.514 42.0261 120.191 41.6409C119.88 41.2557 119.489 41.0631 119.017 41.0631C118.681 41.0631 118.346 41.1687 118.01 41.38C117.687 41.5788 117.439 41.8832 117.265 42.2933C117.091 42.7033 117.01 43.1692 117.023 43.6911L120.676 43.132ZM126.287 50.3263C125.939 50.3263 125.659 50.2518 125.448 50.1027C125.249 49.9536 125.15 49.7548 125.15 49.5062C125.15 49.2826 125.193 49.1148 125.28 49.003C125.367 48.8788 125.51 48.7421 125.709 48.593C125.895 48.4563 126.051 48.332 126.175 48.2202C126.312 48.1084 126.448 47.9593 126.585 47.7729C126.796 47.4871 126.945 47.0398 127.032 46.4309C127.119 45.8221 127.163 45.0766 127.163 44.1944V41.9764C127.163 41.0942 127.101 40.4046 126.976 39.9076C126.852 39.4105 126.703 39.0564 126.529 38.8452C126.368 38.6215 126.156 38.4165 125.895 38.2301C125.759 38.1431 125.647 38.0686 125.56 38.0065C125.485 37.9319 125.417 37.8387 125.355 37.7269C125.28 37.5902 125.243 37.4659 125.243 37.3541C125.243 37.0808 125.392 36.8322 125.69 36.6086C125.815 36.5092 126.132 36.3352 126.641 36.0867C127.101 35.8755 127.492 35.6767 127.815 35.4903C128.586 35.0306 129.139 34.8007 129.474 34.8007C129.685 34.8007 129.89 34.8877 130.089 35.0616C130.3 35.2604 130.406 35.5586 130.406 35.9563C130.406 36.2669 130.344 36.6707 130.22 37.1677C130.095 37.6523 130.008 38.1742 129.959 38.7333C129.909 39.2925 129.884 40.3424 129.884 41.8832V44.1944C129.884 45.0766 129.928 45.8221 130.014 46.4309C130.101 47.0398 130.251 47.4871 130.462 47.7729C130.598 47.9593 130.729 48.1084 130.853 48.2202C130.99 48.332 131.151 48.4563 131.338 48.593C131.537 48.7421 131.68 48.8788 131.766 49.003C131.853 49.1148 131.897 49.2826 131.897 49.5062C131.897 49.7548 131.791 49.9536 131.58 50.1027C131.381 50.2518 131.108 50.3263 130.76 50.3263C130.512 50.3263 130.151 50.3015 129.679 50.2518C129.182 50.2021 128.797 50.1772 128.523 50.1772C128.275 50.1772 127.939 50.2021 127.517 50.2518C127.045 50.3015 126.635 50.3263 126.287 50.3263ZM137.849 50.5127C136.855 50.5127 135.942 50.2766 135.11 49.8045C134.29 49.3323 133.637 48.6862 133.153 47.8661C132.68 47.0336 132.444 46.1079 132.444 45.089C132.444 44.1074 132.687 43.2065 133.171 42.3864C133.656 41.5539 134.308 40.8954 135.128 40.4108C135.961 39.9262 136.868 39.6839 137.849 39.6839C139.129 39.6839 140.123 40.007 140.832 40.6531C141.54 41.2992 141.894 42.2746 141.894 43.5793C141.894 43.9521 141.85 44.2254 141.763 44.3994C141.676 44.5609 141.534 44.6727 141.335 44.7349C141.136 44.797 140.819 44.8405 140.384 44.8653L135.594 45.2008C135.706 45.5487 135.824 45.8283 135.948 46.0395C136.296 46.6981 136.768 47.1827 137.365 47.4933C137.974 47.7915 138.62 47.9406 139.303 47.9406C139.8 47.9406 140.272 47.8723 140.72 47.7356C141.167 47.5865 141.534 47.3939 141.819 47.1578C142.043 46.9466 142.229 46.841 142.378 46.841C142.441 46.841 142.515 46.872 142.602 46.9342C142.739 47.0336 142.807 47.1454 142.807 47.2697C142.807 47.3939 142.739 47.5741 142.602 47.8102C142.118 48.6924 141.459 49.3634 140.627 49.8231C139.794 50.2828 138.868 50.5127 137.849 50.5127ZM138.986 43.132C138.986 42.5231 138.825 42.0261 138.502 41.6409C138.191 41.2557 137.8 41.0631 137.328 41.0631C136.992 41.0631 136.657 41.1687 136.321 41.38C135.998 41.5788 135.749 41.8832 135.576 42.2933C135.402 42.7033 135.321 43.1692 135.333 43.6911L138.986 43.132ZM150.137 50.5127C148.758 50.5127 147.64 50.0219 146.783 49.0403C146.136 49.4876 145.621 49.8107 145.236 50.0095C144.863 50.1959 144.546 50.2891 144.285 50.2891C143.987 50.2891 143.707 50.1586 143.446 49.8977C143.235 49.6864 143.129 49.4876 143.129 49.3012C143.129 49.1645 143.167 49.0279 143.241 48.8912C143.316 48.7545 143.465 48.5308 143.689 48.2202C143.925 47.922 144.13 47.63 144.304 47.3442C144.49 47.0584 144.633 46.6235 144.732 46.0395C144.832 45.4555 144.881 44.7721 144.881 43.9893V40.2058C144.881 39.5348 144.807 39.0316 144.658 38.6961C144.521 38.3482 144.353 38.1245 144.155 38.0251C143.968 37.9133 143.726 37.8325 143.428 37.7828C143.154 37.7331 142.949 37.6585 142.813 37.5591C142.688 37.4597 142.626 37.2609 142.626 36.9627C142.626 36.7639 142.707 36.621 142.868 36.534C143.042 36.4346 143.378 36.3104 143.875 36.1613C143.987 36.124 144.167 36.0681 144.415 35.9935C144.676 35.919 144.912 35.8382 145.124 35.7512C145.36 35.6767 145.72 35.5027 146.205 35.2294C146.491 35.0678 146.727 34.9498 146.913 34.8752C147.112 34.7883 147.298 34.7448 147.472 34.7448C147.671 34.7448 147.845 34.8131 147.994 34.9498C148.143 35.0989 148.218 35.2977 148.218 35.5462C148.218 35.7574 148.168 36.124 148.069 36.6459C147.944 37.3417 147.839 38.0251 147.752 38.6961C147.665 39.367 147.615 40.1747 147.603 41.119C148.298 40.1623 149.268 39.6839 150.51 39.6839C151.43 39.6839 152.275 39.9262 153.045 40.4108C153.815 40.8954 154.424 41.5539 154.871 42.3864C155.319 43.2065 155.542 44.1074 155.542 45.089C155.542 46.1079 155.3 47.0336 154.816 47.8661C154.343 48.6862 153.691 49.3323 152.859 49.8045C152.038 50.2766 151.131 50.5127 150.137 50.5127ZM147.621 44.9399C147.658 45.6109 147.795 46.2383 148.031 46.8223C148.267 47.3939 148.584 47.8599 148.982 48.2202C149.379 48.5681 149.827 48.7421 150.324 48.7421C150.858 48.7421 151.268 48.4998 151.554 48.0152C151.84 47.5306 151.983 46.8783 151.983 46.0582C151.983 45.3748 151.877 44.6914 151.666 44.008C151.454 43.3246 151.138 42.7592 150.715 42.3119C150.293 41.8646 149.783 41.6409 149.187 41.6409C148.131 41.6409 147.603 42.5418 147.603 44.3435C147.603 44.6044 147.609 44.8032 147.621 44.9399ZM157.705 50.3822C157.369 50.3822 157.096 50.3015 156.885 50.1399C156.673 49.966 156.568 49.7548 156.568 49.5062C156.568 49.2826 156.624 49.1086 156.735 48.9844C156.847 48.8601 157.027 48.7297 157.276 48.593C157.326 48.5681 157.45 48.4936 157.649 48.3693C157.848 48.2326 158.028 48.0525 158.189 47.8288C158.413 47.5306 158.562 47.1951 158.637 46.8223C158.724 46.4496 158.767 45.9526 158.767 45.3313C158.767 44.8591 158.711 44.4801 158.599 44.1944C158.5 43.8961 158.376 43.6663 158.227 43.5047C158.077 43.3432 157.885 43.1755 157.649 43.0015C157.338 42.8027 157.114 42.5915 156.978 42.3678C156.903 42.2311 156.866 42.1069 156.866 41.995C156.866 41.7217 157.015 41.4732 157.313 41.2495C157.425 41.1625 157.549 41.088 157.686 41.0259C157.835 40.9637 157.935 40.9202 157.984 40.8954C158.357 40.7711 158.705 40.6034 159.028 40.3922C159.103 40.3424 159.183 40.2927 159.27 40.243C159.357 40.1809 159.444 40.125 159.531 40.0753C159.829 39.8641 160.072 39.715 160.258 39.628C160.444 39.5286 160.631 39.4789 160.817 39.4789C161.439 39.4789 161.749 39.9076 161.749 40.7649C161.749 41.0507 161.718 41.3986 161.656 41.8087C161.631 41.9453 161.606 42.1628 161.581 42.461C161.917 41.9143 162.333 41.3986 162.83 40.914C163.34 40.417 163.849 40.007 164.359 39.6839C164.868 39.3608 165.303 39.1745 165.663 39.1248C165.837 39.0999 165.961 39.0875 166.036 39.0875C166.458 39.0875 166.651 39.2801 166.614 39.6653C166.614 39.6901 166.589 39.8516 166.539 40.1499C166.527 40.212 166.489 40.4605 166.427 40.8954C166.365 41.3303 166.334 41.7776 166.334 42.2373C166.334 42.4858 166.359 42.8213 166.409 43.2438C166.458 43.6414 166.483 43.9086 166.483 44.0452C166.483 44.505 166.34 44.7908 166.055 44.9026C166.005 44.9275 165.937 44.9399 165.85 44.9399C165.663 44.9399 165.495 44.8653 165.346 44.7162C165.21 44.5547 165.017 44.3 164.769 43.9521C164.52 43.5793 164.327 43.3184 164.191 43.1692C163.942 42.9207 163.632 42.7965 163.259 42.7965C162.812 42.7965 162.414 43.0139 162.066 43.4488C161.718 43.8837 161.525 44.5671 161.488 45.499C161.513 46.1203 161.563 46.5987 161.637 46.9342C161.724 47.2572 161.867 47.5554 162.066 47.8288C162.203 48.0028 162.358 48.1394 162.532 48.2388C162.718 48.3258 162.948 48.4128 163.222 48.4998C163.557 48.6116 163.799 48.7234 163.948 48.8353C164.11 48.9471 164.191 49.1397 164.191 49.4131C164.191 49.7113 164.085 49.9474 163.874 50.1213C163.663 50.2953 163.408 50.3822 163.11 50.3822C162.936 50.3822 162.756 50.376 162.569 50.3636C162.383 50.3512 162.203 50.3388 162.029 50.3263C161.445 50.2642 160.935 50.2331 160.5 50.2331C160.277 50.2331 159.854 50.258 159.233 50.3077C158.562 50.3574 158.053 50.3822 157.705 50.3822ZM177.766 50.3636C177.133 50.3636 176.536 50.0965 175.977 49.5622C175.418 49.0279 175.002 48.2637 174.728 47.2697C174.318 47.9034 173.815 48.4625 173.219 48.9471C172.635 49.4317 172.032 49.8107 171.411 50.084C170.789 50.345 170.224 50.4754 169.715 50.4754C169.267 50.4754 168.919 50.376 168.671 50.1772C168.174 49.8045 167.925 49.2329 167.925 48.4625C167.925 47.7915 168.112 47.0584 168.485 46.2632C168.857 45.4555 169.392 44.6789 170.087 43.9334C170.796 43.1755 171.61 42.5418 172.529 42.0323C171.995 41.8087 171.299 41.6968 170.442 41.6968L169.808 41.7155C169.684 41.7279 169.51 41.7341 169.286 41.7341C168.988 41.7341 168.752 41.6596 168.578 41.5104C168.416 41.3489 168.335 41.1501 168.335 40.914C168.335 40.7525 168.503 40.5599 168.839 40.3362C169.174 40.1126 169.609 39.92 170.143 39.7585C170.69 39.5969 171.255 39.5162 171.839 39.5162C172.535 39.5162 173.138 39.6031 173.647 39.7771C174.169 39.9386 174.666 40.1996 175.138 40.5599C175.548 40.3487 175.946 40.1809 176.331 40.0567C176.729 39.9324 177.071 39.8703 177.356 39.8703C177.63 39.8703 177.829 39.9324 177.953 40.0567C178.102 40.2058 178.176 40.3611 178.176 40.5226C178.176 40.6593 178.133 40.8022 178.046 40.9513C177.959 41.1004 177.829 41.2868 177.655 41.5104C177.592 41.5974 177.512 41.7155 177.412 41.8646C177.313 42.0013 177.226 42.1255 177.151 42.2373C176.878 42.6722 176.741 43.1009 176.741 43.5234C176.741 43.7967 176.791 44.1012 176.89 44.4366C176.99 44.7597 177.145 45.1698 177.356 45.6668C177.53 46.0892 177.723 46.462 177.934 46.7851C178.145 47.1081 178.394 47.4623 178.68 47.8474C178.903 48.1705 179.059 48.4128 179.146 48.5743C179.245 48.7234 179.295 48.8663 179.295 49.003C179.295 49.3261 179.133 49.6367 178.81 49.9349C178.499 50.2207 178.152 50.3636 177.766 50.3636ZM171.523 47.1951C171.647 47.2821 171.796 47.3256 171.97 47.3256C172.206 47.3256 172.461 47.2324 172.734 47.046C173.007 46.8596 173.281 46.58 173.554 46.2073C173.939 45.673 174.132 45.0703 174.132 44.3994C174.132 43.9272 174.033 43.5109 173.834 43.1506C173.25 43.5482 172.672 44.1012 172.1 44.8094C171.529 45.5177 171.243 46.1141 171.243 46.5987C171.243 46.8596 171.336 47.0584 171.523 47.1951ZM185.146 50.5127C184.4 50.5127 183.748 50.2828 183.189 49.8231C182.63 49.3509 182.207 48.7048 181.921 47.8847C181.635 47.0522 181.524 46.1203 181.586 45.089C181.611 44.6417 181.623 44.3497 181.623 44.213C181.623 43.6041 181.573 43.1444 181.474 42.8338C181.387 42.5231 181.275 42.3243 181.138 42.2373C181.002 42.1379 180.822 42.0634 180.598 42.0137C180.436 41.9764 180.306 41.9329 180.207 41.8832C180.12 41.8335 180.039 41.7527 179.964 41.6409C179.89 41.5042 179.852 41.38 179.852 41.2681C179.852 40.9948 180.002 40.7463 180.3 40.5226C180.474 40.3859 180.679 40.2555 180.915 40.1312C181.511 39.7585 181.952 39.454 182.238 39.2179C182.437 39.0564 182.679 38.8203 182.965 38.5097C183.214 38.2488 183.419 38.0562 183.58 37.9319C183.754 37.7952 183.928 37.7269 184.102 37.7269C184.214 37.7269 184.319 37.7517 184.419 37.8014C184.692 37.9505 184.829 38.2177 184.829 38.6029C184.829 38.8265 184.785 39.1558 184.698 39.5907C184.599 40.1623 184.555 40.417 184.568 40.3549L188.65 40.243C189.072 40.2306 189.283 40.3549 189.283 40.6158C189.283 40.6904 189.252 40.8022 189.19 40.9513C189.153 41.0259 189.041 41.2495 188.855 41.6223C188.681 41.9826 188.432 42.2249 188.109 42.3492C187.799 42.4734 187.395 42.5169 186.898 42.4796L184.382 42.2933C184.332 42.8772 184.307 43.3929 184.307 43.8402C184.307 44.6727 184.406 45.3996 184.605 46.0209C184.804 46.6422 185.077 47.1206 185.425 47.456C185.773 47.7915 186.171 47.9593 186.618 47.9593C187.103 47.9593 187.5 47.8971 187.811 47.7729C188.122 47.6362 188.432 47.4312 188.743 47.1578C188.967 46.9466 189.153 46.841 189.302 46.841C189.364 46.841 189.439 46.872 189.526 46.9342C189.662 47.0336 189.731 47.1454 189.731 47.2697C189.731 47.3939 189.662 47.5741 189.526 47.8102C189.053 48.6924 188.438 49.3634 187.68 49.8231C186.923 50.2828 186.078 50.5127 185.146 50.5127ZM191.705 50.3822C191.369 50.3822 191.096 50.3015 190.885 50.1399C190.674 49.966 190.568 49.7548 190.568 49.5062C190.568 49.2826 190.624 49.1086 190.736 48.9844C190.848 48.8601 191.028 48.7297 191.276 48.593C191.326 48.5681 191.45 48.4936 191.649 48.3693C191.848 48.2326 192.028 48.0525 192.189 47.8288C192.413 47.5306 192.562 47.1951 192.637 46.8223C192.724 46.4496 192.767 45.9526 192.767 45.3313C192.767 44.8715 192.718 44.5112 192.618 44.2503C192.519 43.9893 192.401 43.7967 192.264 43.6725C192.127 43.5482 191.941 43.4302 191.705 43.3184C191.518 43.2189 191.369 43.132 191.258 43.0574C191.158 42.9829 191.065 42.8772 190.978 42.7406C190.903 42.6039 190.866 42.4796 190.866 42.3678C190.866 42.0944 191.015 41.8459 191.313 41.6223C191.438 41.5229 191.755 41.3489 192.264 41.1004C192.724 40.8892 193.115 40.6904 193.438 40.504C194.209 40.0442 194.762 39.8144 195.097 39.8144C195.308 39.8144 195.513 39.9013 195.712 40.0753C195.923 40.2741 196.029 40.5723 196.029 40.9699C196.029 41.2806 195.967 41.6844 195.843 42.1814C195.706 42.7157 195.613 43.1444 195.563 43.4675C195.513 43.7781 195.488 44.2441 195.488 44.8653C195.488 45.7351 195.526 46.3688 195.6 46.7664C195.675 47.164 195.83 47.5182 196.066 47.8288C196.153 47.9406 196.34 48.127 196.625 48.388C196.849 48.5868 197.011 48.7545 197.11 48.8912C197.209 49.0279 197.259 49.1894 197.259 49.3758C197.259 49.6864 197.153 49.9349 196.942 50.1213C196.731 50.2953 196.476 50.3822 196.178 50.3822C196.004 50.3822 195.849 50.376 195.712 50.3636C195.575 50.3512 195.451 50.3388 195.339 50.3263C194.929 50.2642 194.525 50.2331 194.128 50.2331C193.892 50.2331 193.525 50.258 193.028 50.3077C192.506 50.3574 192.065 50.3822 191.705 50.3822ZM192.152 36.4968C192.152 35.95 192.345 35.4841 192.73 35.0989C193.128 34.7137 193.6 34.5211 194.146 34.5211C194.706 34.5211 195.178 34.7137 195.563 35.0989C195.961 35.4841 196.159 35.95 196.159 36.4968C196.159 37.0435 195.961 37.5156 195.563 37.9133C195.178 38.2985 194.706 38.491 194.146 38.491C193.6 38.491 193.128 38.2985 192.73 37.9133C192.345 37.5156 192.152 37.0435 192.152 36.4968ZM203.851 50.5127C202.832 50.5127 201.9 50.2766 201.055 49.8045C200.211 49.3323 199.54 48.6862 199.043 47.8661C198.545 47.0336 198.297 46.1079 198.297 45.089C198.297 44.1074 198.545 43.2065 199.043 42.3864C199.54 41.5664 200.211 40.914 201.055 40.4294C201.913 39.9448 202.845 39.7025 203.851 39.7025C204.858 39.7025 205.783 39.9386 206.628 40.4108C207.486 40.8705 208.163 41.5104 208.66 42.3305C209.157 43.1506 209.405 44.0701 209.405 45.089C209.405 46.0706 209.157 46.9777 208.66 47.8102C208.163 48.6427 207.486 49.3012 206.628 49.7858C205.783 50.2704 204.858 50.5127 203.851 50.5127ZM201.764 45.4804C202.124 46.3129 202.621 47.0336 203.255 47.6424C203.901 48.2388 204.541 48.5371 205.174 48.5371C205.672 48.5371 206.032 48.388 206.256 48.0897C206.492 47.7915 206.61 47.3815 206.61 46.8596C206.61 46.2259 206.454 45.5239 206.144 44.7535C205.932 44.2316 205.628 43.716 205.23 43.2065C204.845 42.6847 204.417 42.2622 203.944 41.9391C203.485 41.6036 203.031 41.4359 202.584 41.4359C202.136 41.4359 201.795 41.5912 201.559 41.9018C201.323 42.2125 201.205 42.635 201.205 43.1692C201.205 43.8651 201.391 44.6355 201.764 45.4804ZM211.66 50.3822C211.324 50.3822 211.051 50.3015 210.84 50.1399C210.628 49.966 210.523 49.7548 210.523 49.5062C210.523 49.2577 210.56 49.0776 210.635 48.9657C210.722 48.8415 210.864 48.6986 211.063 48.5371C211.374 48.2761 211.61 48.04 211.772 47.8288C212.157 47.3194 212.349 46.1141 212.349 44.213C212.349 43.7905 212.293 43.4612 212.182 43.2252C212.082 42.9891 211.952 42.8275 211.79 42.7406C211.641 42.6412 211.442 42.548 211.194 42.461C210.983 42.3864 210.815 42.3119 210.691 42.2373C210.566 42.1628 210.461 42.0572 210.374 41.9205C210.299 41.7838 210.262 41.6596 210.262 41.5477C210.262 41.2744 210.411 41.0259 210.709 40.8022C210.908 40.6531 211.175 40.504 211.511 40.3549C211.585 40.3176 211.703 40.2555 211.865 40.1685C212.039 40.0815 212.194 39.9945 212.331 39.9076C212.567 39.7585 212.79 39.6031 213.002 39.4416C213.213 39.2676 213.437 39.075 213.673 38.8638C213.934 38.6402 214.195 38.5283 214.455 38.5283C214.729 38.5283 214.952 38.6464 215.126 38.8825C215.201 38.9943 215.238 39.1434 215.238 39.3298C215.238 39.4913 215.22 39.715 215.182 40.0007C215.17 40.1002 215.145 40.3424 215.108 40.7276C215.083 41.1128 215.071 41.5601 215.071 42.0696C215.505 41.2619 216.077 40.6531 216.785 40.243C217.493 39.8206 218.314 39.6093 219.245 39.6093C220.277 39.6093 221.091 39.9076 221.687 40.504C222.284 41.088 222.582 41.9391 222.582 43.0574C222.582 43.4053 222.557 43.7284 222.507 44.0266C222.37 45.0206 222.302 45.7537 222.302 46.2259C222.302 46.6981 222.358 47.0771 222.47 47.3629C222.594 47.6486 222.793 47.9282 223.066 48.2016C223.352 48.4874 223.532 48.7172 223.607 48.8912C223.694 49.0651 223.725 49.2888 223.7 49.5622C223.675 49.8107 223.563 50.0095 223.365 50.1586C223.166 50.3077 222.899 50.3822 222.563 50.3822C222.315 50.3822 221.942 50.3574 221.445 50.3077C220.923 50.258 220.519 50.2331 220.233 50.2331C219.985 50.2331 219.699 50.258 219.376 50.3077C219.078 50.3574 218.804 50.3822 218.556 50.3822C217.922 50.3822 217.605 50.0965 217.605 49.5249C217.605 49.3634 217.643 49.2142 217.717 49.0776C217.804 48.9409 217.935 48.7669 218.109 48.5557C218.407 48.2078 218.668 47.8474 218.891 47.4747C219.127 47.1019 219.351 46.5987 219.562 45.965C219.711 45.5177 219.786 45.089 219.786 44.6789C219.786 44.1695 219.687 43.7035 219.488 43.2811C219.289 42.8462 219.016 42.5045 218.668 42.256C218.332 42.0075 217.959 41.8832 217.549 41.8832C217.251 41.8832 216.972 41.9453 216.711 42.0696C216.139 42.3057 215.704 42.7095 215.406 43.2811C215.12 43.8526 214.977 44.4988 214.977 45.2195C214.977 46.1389 215.201 47.0087 215.648 47.8288C215.897 48.2637 216.071 48.5992 216.17 48.8353C216.282 49.0714 216.338 49.2888 216.338 49.4876C216.338 49.7485 216.245 49.966 216.058 50.1399C215.872 50.3015 215.648 50.3822 215.387 50.3822C215.276 50.3822 215.151 50.376 215.015 50.3636C214.878 50.3512 214.772 50.3388 214.698 50.3263C214.412 50.2642 214.083 50.2331 213.71 50.2331C213.474 50.2331 213.169 50.258 212.797 50.3077C212.374 50.3574 211.995 50.3822 211.66 50.3822Z" fill="#F3DBDD"/>
<g clip-path="url(#clip0_18_971)">
<path fill-rule="evenodd" clip-rule="evenodd" d="M236.082 30.6006L231.329 28.421L234.884 26.593L238.048 28.3516L243.088 24.2261L241.225 22.3506L244.921 19.9614L249.763 21.7651L247.636 23.4469L255.723 26.862L257.535 25.4913L262.001 27.4764L257.421 29.8958L236.082 30.6006Z" fill="#FFAE12"/>
<path fill-rule="evenodd" clip-rule="evenodd" d="M238.13 20.4031L234.977 26.6446L236.895 27.71L255.722 26.8618L257.983 25.2806C257.818 22.812 255.512 21.411 253.963 19.6435L248.935 17.8454L238.13 20.4031Z" fill="#FE9A11"/>
<path fill-rule="evenodd" clip-rule="evenodd" d="M248.445 49.7462V39.8977C248.445 37.8977 249.989 36.2764 251.895 36.2764C253.8 36.2764 255.344 37.8977 255.344 39.8977L255.513 49.7467H258.345L257.711 29.318L257.67 27.6858L245.405 22.6723L245.394 38.1752H245.405V49.7462H248.445Z" fill="#FED016"/>
<path d="M254.193 29.9C255.961 29.0286 256.328 26.156 255.011 23.4839C253.694 20.8119 251.193 19.3522 249.425 20.2236C247.656 21.095 247.29 23.9676 248.606 26.6397C249.923 29.3117 252.424 30.7714 254.193 29.9Z" fill="#FFAD11"/>
<path fill-rule="evenodd" clip-rule="evenodd" d="M245.405 22.6725L235.801 28.3418L235.78 29.3539L235.157 49.7462H237.167L237.331 40.154H237.341C237.45 38.3356 238.727 36.8995 240.288 36.8995C241.85 36.8995 243.127 38.3356 243.236 40.154H243.246V49.7462H245.405V35.6655L245.396 35.6598L245.405 22.6725Z" fill="#FFE315"/>
<path d="M242.831 26.4137C243.734 23.6805 243.261 21.0665 241.774 20.5751C240.287 20.0838 238.35 21.9013 237.446 24.6345C236.543 27.3678 237.017 29.9818 238.503 30.4731C239.99 30.9644 241.928 29.147 242.831 26.4137Z" fill="#FED016"/>
<path fill-rule="evenodd" clip-rule="evenodd" d="M244.853 19.9059L246.644 7.26897L262 27.4767L257.534 25.4917C257.743 25.4606 256.709 24.0117 255.153 22.3016C252.479 19.3629 248.394 18.1606 249.667 22.0589L244.853 19.9059Z" fill="#FEC314"/>
<path fill-rule="evenodd" clip-rule="evenodd" d="M244.853 19.9059L246.644 7.26897L231.326 28.4226L235.005 26.6309C234.796 26.5999 235.989 24.8662 237.443 23.079C239.949 19.9963 242.635 18.6427 241.128 22.4415L244.853 19.9059Z" fill="#FFEC15"/>
<path fill-rule="evenodd" clip-rule="evenodd" d="M249.667 22.0589L247.821 23.66L245.405 22.6725L243.286 23.9231L241.128 22.4413L244.853 19.9059L249.667 22.0589Z" fill="#FFAE12"/>
<path fill-rule="evenodd" clip-rule="evenodd" d="M246.848 6.70732L246.849 6.70455C246.849 6.70455 247.231 5.94605 247.332 5.74478C247.348 5.71245 247.366 5.68096 247.385 5.65043L247.737 5.09931C247.75 5.07895 247.768 5.0624 247.79 5.05135C247.811 5.0403 247.835 5.03515 247.859 5.03642L248.931 5.09191C248.937 5.09223 248.942 5.09099 248.948 5.08833C248.953 5.08566 248.957 5.08168 248.96 5.07677C248.963 5.07187 248.965 5.06623 248.965 5.06044C248.965 5.05464 248.964 5.0489 248.961 5.04382C248.846 4.82903 248.402 4.00394 248.32 3.85187C248.311 3.83595 248.306 3.81828 248.306 3.80025C248.301 3.58066 248.269 2.1114 248.355 2.01187C248.42 1.94483 248.495 1.88774 248.577 1.84241C248.586 1.83714 248.593 1.83002 248.599 1.82156C248.605 1.81309 248.609 1.80348 248.61 1.79338C248.612 1.78328 248.611 1.77294 248.609 1.76307C248.606 1.7532 248.601 1.74404 248.595 1.73622C248.324 1.41266 247.141 0.00759497 247.141 0.00759497C247.141 0.00759497 246.997 0.169839 246.91 0.267518C246.903 0.275451 246.894 0.281582 246.884 0.285402C246.874 0.289222 246.863 0.29062 246.853 0.28948C246.842 0.28834 246.832 0.284695 246.823 0.278849C246.814 0.273002 246.807 0.265122 246.802 0.255863C246.726 0.121924 246.563 -0.108769 246.412 0.0586546C246.221 0.270848 246.443 0.67914 246.321 0.903359C246.312 0.915526 246.309 0.930571 246.311 0.945335C246.313 0.960099 246.321 0.973433 246.333 0.982538C246.353 1.00104 246.377 1.01954 246.397 1.03452C246.406 1.04198 246.413 1.05242 246.416 1.06413C246.418 1.07585 246.417 1.08817 246.412 1.09909C246.336 1.26984 246.059 1.9758 246.402 2.54356C246.404 2.54747 246.406 2.55227 246.405 2.55695C246.404 2.56163 246.401 2.56584 246.398 2.56872L245.498 3.32203C245.498 3.32203 245.691 3.67815 246.358 3.65318C246.383 3.65223 246.407 3.66081 246.425 3.67717C246.444 3.69352 246.456 3.71639 246.458 3.74105C246.493 4.10254 246.606 5.41178 246.466 5.81729C246.38 6.07463 246.207 6.29401 245.977 6.43797C245.972 6.44061 245.966 6.44199 245.96 6.44199C245.954 6.44199 245.949 6.44061 245.944 6.43797C245.939 6.43535 245.934 6.43158 245.931 6.42696C245.927 6.42234 245.925 6.41698 245.924 6.41133C245.89 6.21023 245.769 5.47801 245.769 5.47801L245.179 5.34647C245.092 5.32683 245.001 5.33201 244.916 5.36143C244.832 5.39085 244.757 5.44333 244.7 5.51297L243.93 6.46386L245.158 6.79464C245.245 6.81815 245.335 6.83351 245.425 6.84052L246.147 6.89602C246.147 6.89602 246.196 7.2601 246.253 7.51429C246.255 7.63816 246.24 7.76169 246.207 7.88133L246.644 7.27083L247.056 7.81288C246.998 7.72711 246.975 7.62269 246.991 7.52058C247.089 7.17537 246.766 6.842 246.848 6.70732Z" fill="#FE9A11"/>
</g>
<defs>
<clipPath id="clip0_18_971">
<rect width="30.6737" height="49.7467" fill="white" transform="translate(231.326)"/>
</clipPath>
</defs>
</svg>
