<svg width="847" height="556" viewBox="0 0 847 556" fill="none" xmlns="http://www.w3.org/2000/svg">
<g clip-path="url(#clip0_59_19685)">
<path d="M129.907 556.213C201.711 556.213 259.919 551.288 259.919 545.213C259.919 539.138 201.711 534.213 129.907 534.213C58.1034 534.213 -0.10498 539.138 -0.10498 545.213C-0.10498 551.288 58.1034 556.213 129.907 556.213Z" fill="#FE9A11"/>
<path d="M456.865 556.213C528.669 556.213 586.877 551.288 586.877 545.213C586.877 539.138 528.669 534.213 456.865 534.213C385.061 534.213 326.853 539.138 326.853 545.213C326.853 551.288 385.061 556.213 456.865 556.213Z" fill="#FE9A11"/>
<path d="M284.279 556.213C356.083 556.213 414.291 551.288 414.291 545.213C414.291 539.138 356.083 534.213 284.279 534.213C212.475 534.213 154.267 539.138 154.267 545.213C154.267 551.288 212.475 556.213 284.279 556.213Z" fill="#FE9A11"/>
<path d="M783.287 525.797H743.561L722.279 439.271L711.289 314.213H749.845L759.704 430.324L783.287 525.797Z" fill="#FE9A11"/>
<path d="M710.988 525.375V444.713V314.213H671.841V439.213V525.375H710.988Z" fill="#FE9A11"/>
<path d="M717.115 556.213C788.919 556.213 847.127 551.288 847.127 545.213C847.127 539.138 788.919 534.213 717.115 534.213C645.311 534.213 587.103 539.138 587.103 545.213C587.103 551.288 645.311 556.213 717.115 556.213Z" fill="#FE9A11"/>
<path d="M787.534 545.213V540.963C787.534 531.022 785.69 528.631 776.425 528.631H759.496C750.23 528.631 748.387 531.022 748.387 540.963V545.213H787.535H787.534Z" fill="#FCF4F5"/>
<path d="M710.988 545.213V528.631H664.646C655.38 528.631 653.537 531.022 653.537 540.963V545.213H710.988Z" fill="#FCF4F5"/>
<path d="M654.771 227.874L714.942 177.385C716.648 175.953 730.113 175.244 742.009 176.63L753.022 200.245L777.61 188.779C788.609 194.402 800.743 201.991 802.139 204.985L835.334 276.172C837.812 281.489 835.513 287.808 830.196 290.286C824.881 292.764 818.561 290.466 816.083 285.149L788.758 226.549L745.207 346.204L665.186 317.079L701.981 215.985L668.422 244.144C663.93 247.914 657.231 247.328 653.461 242.835C649.69 238.341 650.276 231.643 654.77 227.872L654.771 227.874Z" fill="#FCF4F5"/>
<path d="M596.146 174.53L653.462 242.837C657.231 247.329 663.931 247.915 668.421 244.146C672.914 240.376 673.502 233.675 669.732 229.183L612.417 160.878L596.146 174.53V174.53Z" fill="#FCF4F5"/>
<path d="M667.023 308.605C653.988 305.763 642.381 297.134 636.313 284.109C632.905 276.798 631.713 269.036 632.374 261.542C644.895 270.285 661.572 272.343 676.406 265.429C691.24 258.513 700.403 244.417 701.757 229.207C707.926 233.52 713.101 239.424 716.505 246.739C722.575 259.76 721.713 274.205 715.515 286.008C736.253 286.986 755.768 299.129 765.143 319.246C778.604 348.123 766.099 382.451 737.221 395.908C708.343 409.365 674.015 396.861 660.561 367.986C651.182 347.865 654.436 325.117 667.023 308.605Z" fill="#FFAE12"/>
<path d="M613.003 114.3L601.434 119.694L700.994 333.23L712.563 327.836L613.003 114.3Z" fill="#FFAE12"/>
<path d="M594.139 50.3668L564.634 64.1167L592.481 123.873L621.986 110.123L594.139 50.3668Z" fill="#FCF4F5"/>
<path d="M698.283 350.404C702.033 358.453 711.595 361.937 719.636 358.187C727.688 354.435 731.173 344.871 727.42 336.82C723.672 328.777 714.109 325.295 706.06 329.049C698.014 332.795 694.531 342.358 698.284 350.404H698.283Z" fill="#FCF4F5" stroke="#FCF4F5" stroke-width="3.506"/>
<path d="M703.148 307.682L691.572 313.074" stroke="#FCF4F5" stroke-width="3.506"/>
<path d="M697.406 295.357L685.83 300.752" stroke="#FCF4F5" stroke-width="3.506"/>
<path d="M708.861 319.932L697.285 325.326" stroke="#FCF4F5" stroke-width="3.506"/>
<path d="M691.663 283.029L680.086 288.422" stroke="#FCF4F5" stroke-width="3.506"/>
<path d="M685.916 270.704L674.342 276.098" stroke="#FCF4F5" stroke-width="3.506"/>
<path d="M680.173 258.376L668.595 263.771" stroke="#FCF4F5" stroke-width="3.506"/>
<path d="M674.427 246.049L662.851 251.448" stroke="#FCF4F5" stroke-width="3.506"/>
<path d="M668.684 233.73L657.107 239.117" stroke="#FCF4F5" stroke-width="3.506"/>
<path d="M662.938 221.406L651.363 226.794" stroke="#FCF4F5" stroke-width="3.506"/>
<path d="M657.196 209.074L645.617 214.47" stroke="#FCF4F5" stroke-width="3.506"/>
<path d="M651.449 196.751L639.878 202.143" stroke="#FCF4F5" stroke-width="3.506"/>
<path d="M645.705 184.426L634.135 189.819" stroke="#FCF4F5" stroke-width="3.506"/>
<path d="M639.961 172.101L628.388 177.492" stroke="#FCF4F5" stroke-width="3.506"/>
<path d="M634.217 159.774L622.646 165.17" stroke="#FCF4F5" stroke-width="3.506"/>
<path d="M628.477 147.452L616.897 152.843" stroke="#FCF4F5" stroke-width="3.506"/>
<path d="M622.73 135.125L611.156 140.517" stroke="#FCF4F5" stroke-width="3.506"/>
<path d="M570.595 76.9089L559.018 82.3039" stroke="#FCF4F5" stroke-width="3.506"/>
<path d="M576.337 89.2371L564.764 94.6321" stroke="#FCF4F5" stroke-width="3.506"/>
<path d="M582.079 101.56L570.507 106.955" stroke="#FCF4F5" stroke-width="3.506"/>
<path d="M611.679 57.76L600.1 63.157" stroke="#FCF4F5" stroke-width="3.506"/>
<path d="M617.427 70.0859L605.844 75.4849" stroke="#FCF4F5" stroke-width="3.506"/>
<path d="M623.171 82.4131L611.589 87.8081" stroke="#FCF4F5" stroke-width="3.506"/>
<path d="M616.986 122.801L605.415 128.194" stroke="#FCF4F5" stroke-width="3.506"/>
<path d="M591.136 67.332L606.54 100.389" stroke="#FFAE12" stroke-width="3.506"/>
<path d="M579.565 72.7261L594.968 105.783" stroke="#FFAE12" stroke-width="3.506"/>
<path d="M749.384 327.971L830.196 290.287C835.512 287.808 837.811 281.49 835.333 276.175C832.854 270.86 826.534 268.558 821.22 271.036L740.408 308.721L749.385 327.971H749.384Z" fill="#FCF4F5"/>
<path d="M742.97 319.32C741.509 316.187 740.707 313.847 739.673 312.479C739.457 312.154 739.159 311.867 738.793 311.618C738.752 311.589 738.713 311.554 738.671 311.527C738.299 311.292 737.869 311.09 737.402 310.92L713.945 302.383C712.081 301.705 710.343 301.785 709.664 303.65C708.985 305.513 710.266 306.695 712.129 307.373L722.571 311.174C726.388 312.566 726.071 315.482 723.58 316.643L703.768 325.883C696.578 329.236 691.886 334.389 695.238 341.576C698.59 348.767 705.554 348.484 712.744 345.133L741.526 331.711C748.716 328.357 746.323 326.51 742.97 319.32V319.32Z" fill="#FEC315"/>
<path d="M612.584 130.521C618.614 125.368 625.249 123.233 630.402 129.262C635.556 135.291 632.415 141.513 626.385 146.667L602.244 167.3C596.212 172.455 595.521 169.511 590.368 163.48C585.214 157.45 591.855 148.24 597.886 143.085L612.583 130.521H612.584Z" fill="#FE9A11"/>
<path d="M673.667 89.9329C670.436 93.2309 670.49 98.5249 673.787 101.756C677.085 104.988 682.38 104.935 685.611 101.636C688.841 98.3389 688.788 93.0439 685.491 89.8129C682.193 86.5809 676.898 86.6339 673.667 89.9329V89.9329Z" fill="#FCF4F5"/>
<path d="M714.523 68.562L683.719 99.9873L685.498 101.732L716.302 70.3064L714.523 68.562Z" fill="#FCF4F5"/>
<path d="M714.529 68.5689L711.037 72.1323L721.515 82.3997L725.007 78.8363L714.529 68.5689Z" fill="#FCF4F5"/>
<path d="M657.461 47.716C655.262 51.775 656.769 56.852 660.829 59.051C664.888 61.25 669.965 59.741 672.164 55.682C674.363 51.621 672.854 46.547 668.795 44.348C664.735 42.149 659.661 43.658 657.461 47.716V47.716Z" fill="#FCF4F5"/>
<path d="M690.86 15.9311L669.902 54.6238L672.094 55.8111L693.052 17.1184L690.86 15.9311Z" fill="#FCF4F5"/>
<path d="M628.056 31.7849C625.856 35.8439 627.364 40.9199 631.424 43.1189C635.483 45.3179 640.559 43.8079 642.757 39.7509C644.957 35.6889 643.449 30.6149 639.389 28.4159C635.331 26.2169 630.256 27.7269 628.056 31.7849V31.7849Z" fill="#FCF4F5"/>
<path d="M661.465 0.00453875L640.495 38.6907L642.687 39.8792L663.657 1.19304L661.465 0.00453875Z" fill="#FCF4F5"/>
<path d="M661.458 0.00157163L659.082 4.38721L690.295 21.2986L692.671 16.9129L661.458 0.00157163Z" fill="#FCF4F5"/>
<path d="M464.299 218.189C463.869 220.137 461.944 221.371 459.998 220.944C458.05 220.515 456.815 218.592 457.244 216.642L470.639 155.104C471.066 153.156 481.518 113.038 483.465 113.462C485.412 113.89 478.118 154.702 477.695 156.651L464.3 218.188L464.299 218.189Z" fill="#FFAE12"/>
<path d="M487.07 113.88C486.643 115.83 484.719 117.063 482.768 116.635C480.821 116.207 479.588 114.283 480.014 112.334C480.444 110.386 482.368 109.153 484.317 109.579C486.264 110.007 487.499 111.932 487.07 113.88Z" fill="#FFAE12"/>
<path d="M161.507 145.311C160.05 146.674 157.765 146.602 156.402 145.15C155.039 143.695 155.109 141.41 156.564 140.046L202.42 96.8762C203.874 95.5112 235.187 68.3412 236.552 69.7922C237.915 71.2462 208.815 100.775 207.363 102.144L161.508 145.312L161.507 145.311Z" fill="#FFAE12"/>
<path d="M239.289 72.1762C237.834 73.5422 235.55 73.4702 234.184 72.0142C232.82 70.5602 232.892 68.2762 234.345 66.9102C235.802 65.5472 238.086 65.6192 239.452 67.0722C240.815 68.5272 240.744 70.8132 239.289 72.1762V72.1762Z" fill="#FFAE12"/>
<path d="M308.274 521.357H347.625L360.008 436.193L334.502 310.195H295.354L320.859 429.693L308.274 521.357Z" fill="#FE9A11"/>
<path d="M256.502 521.357V440.695V310.195H295.649V435.195V521.357H256.502Z" fill="#FE9A11"/>
<path d="M295.649 358.508C295.649 358.508 295.505 354.252 299.443 353.633C303.818 352.946 304.61 356.649 304.61 356.649L307.63 355.946L302.13 308.946L287.13 309.446L292.38 358.446L295.648 358.508H295.649Z" fill="#FE9A11"/>
<path d="M256.502 541.195V536.945C256.502 527.004 258.346 524.613 267.611 524.613H284.54C293.806 524.613 295.649 527.004 295.649 536.945V541.195H256.502Z" fill="#FCF4F5"/>
<path d="M306.548 541.195V524.613H352.89C362.156 524.613 363.999 527.004 363.999 536.945V541.195H306.548Z" fill="#FCF4F5"/>
<path d="M378.219 246.934L338.946 178.91C337.832 176.981 325.422 171.71 313.768 168.943L295.343 187.368L276.159 168.184C263.9 169.705 249.902 172.687 247.566 175.023L192.025 230.564C187.878 234.712 187.878 241.436 192.025 245.584C196.172 249.731 202.897 249.731 207.044 245.584L252.764 199.864V327.199H337.92V219.617L359.823 257.555C362.755 262.634 369.251 264.374 374.33 261.442C379.41 258.508 381.15 252.014 378.218 246.934H378.219Z" fill="#FCF4F5"/>
<path d="M451.553 216.858L374.331 261.442C369.253 264.375 362.757 262.633 359.826 257.555C356.893 252.475 358.633 245.978 363.711 243.046L440.932 198.463L451.553 216.858Z" fill="#FCF4F5"/>
<path d="M469.642 205.447C462.736 209.351 451.808 212.443 447.906 205.537C444 198.631 441.47 196.976 448.377 193.07L461.033 185.704C467.937 181.8 474.859 180.975 478.761 187.882C482.665 194.786 478.39 200.29 471.484 204.194L469.642 205.447V205.447Z" fill="#FE9A11"/>
<path d="M166.227 154.766L189.306 240.895C190.823 246.559 196.648 249.922 202.31 248.403C207.976 246.884 211.34 241.061 209.823 235.398L186.745 149.268L166.228 154.766H166.227Z" fill="#FCF4F5"/>
<path d="M161.088 131.718C158.966 124.074 159.835 117.159 167.478 115.036C175.121 112.913 179.433 118.389 181.553 126.032L185.294 140.191C187.415 147.837 184.457 147.216 176.812 149.338C169.169 151.462 163.627 141.549 161.505 133.905L161.088 131.717V131.718Z" fill="#FE9A11"/>
<path d="M396.281 109.276C398.19 113.48 396.328 118.436 392.125 120.345C387.92 122.254 382.963 120.393 381.055 116.188C379.147 111.985 381.008 107.028 385.211 105.119C389.416 103.21 394.373 105.071 396.281 109.276Z" fill="#FCF4F5"/>
<path d="M365.19 75.2235L362.921 76.2549L381.125 116.318L383.395 115.286L365.19 75.2235Z" fill="#FCF4F5"/>
<path d="M365.197 75.2258L351.84 81.29L353.902 85.8328L367.26 79.7686L365.197 75.2258Z" fill="#FCF4F5"/>
<path d="M425.949 75.1481C426.627 79.7141 423.474 83.9691 418.907 84.6471C414.341 85.3261 410.086 82.1711 409.408 77.6051C408.73 73.0371 411.884 68.7851 416.45 68.1061C421.017 67.4281 425.269 70.5821 425.949 75.1481Z" fill="#FCF4F5"/>
<path d="M405.434 33.8557L402.968 34.2219L409.433 77.7485L411.899 77.3822L405.434 33.8557Z" fill="#FCF4F5"/>
<path d="M459.029 70.235C459.709 74.801 456.555 79.055 451.988 79.734C447.422 80.412 443.168 77.258 442.49 72.692C441.812 68.124 444.965 63.871 449.532 63.193C454.097 62.514 458.35 65.669 459.029 70.235V70.235Z" fill="#FCF4F5"/>
<path d="M438.518 28.9443L436.051 29.3105L442.513 72.8375L444.98 72.4713L438.518 28.9443Z" fill="#FCF4F5"/>
<path d="M438.515 28.9425L403.4 34.1584L404.133 39.0923L439.247 33.8763L438.515 28.9425Z" fill="#FCF4F5"/>
<path d="M266.411 324.529H151.225V438.195H266.411V324.529Z" fill="#FE9A11"/>
<path d="M266.411 330.199H151.225V432.527H266.411V330.199Z" fill="#201C1D"/>
<path d="M449.062 324.195H331.414V368.863H449.062V324.195Z" fill="#FE9A11"/>
<path d="M449.063 324.195C449.063 327.14 422.727 329.527 390.239 329.527C357.751 329.527 331.415 327.14 331.415 324.195C331.415 321.25 357.751 318.861 390.239 318.861C422.727 318.861 449.063 321.25 449.063 324.195Z" fill="#FE9A11"/>
<path d="M449.062 329.863H331.414V363.195H449.062V329.863Z" fill="#201C1D"/>
<path d="M449.063 329.863C449.063 332.808 422.727 335.195 390.239 335.195C357.751 335.195 331.415 332.808 331.415 329.863C331.415 326.918 357.751 324.529 390.239 324.529C422.727 324.529 449.063 326.918 449.063 329.863Z" fill="#201C1D"/>
<path d="M449.063 368.863C449.063 371.808 422.727 374.195 390.239 374.195C357.751 374.195 331.415 371.808 331.415 368.863C331.415 365.918 357.751 363.529 390.239 363.529C422.727 363.529 449.063 365.918 449.063 368.863Z" fill="#FE9A11"/>
<path d="M449.063 363.195C449.063 366.14 422.727 368.527 390.239 368.527C357.751 368.527 331.415 366.14 331.415 363.195C331.415 360.25 357.751 357.861 390.239 357.861C422.727 357.861 449.063 360.25 449.063 363.195Z" fill="#FE9A11"/>
<path d="M394.492 449.641C394.578 395.749 350.959 351.991 297.067 351.906C243.175 351.82 199.418 395.439 199.332 449.331C199.247 503.223 242.865 546.98 296.757 547.066C350.649 547.151 394.407 503.533 394.492 449.641Z" fill="#FE9A11"/>
<path d="M386.493 449.632C386.573 400.158 346.532 359.987 297.058 359.907C247.585 359.826 207.413 399.867 207.333 449.341C207.253 498.815 247.294 538.986 296.768 539.066C346.241 539.147 386.413 499.105 386.493 449.632Z" fill="#201C1D"/>
<path d="M386.394 277.527H305.414V344.861H386.394V277.527Z" fill="#FE9A11"/>
<path d="M386.395 277.527C386.395 280.472 368.267 282.861 345.905 282.861C323.543 282.861 305.415 280.472 305.415 277.527C305.415 274.582 323.543 272.194 345.905 272.194C368.267 272.194 386.395 274.582 386.395 277.527Z" fill="#FE9A11"/>
<path d="M386.394 283.195H305.414V339.193H386.394V283.195Z" fill="#201C1D"/>
<path d="M386.395 283.195C386.395 286.14 368.267 288.529 345.905 288.529C323.543 288.529 305.415 286.14 305.415 283.195C305.415 280.25 323.543 277.862 345.905 277.862C368.267 277.862 386.395 280.25 386.395 283.195Z" fill="#201C1D"/>
<path d="M386.395 344.861C386.395 347.806 368.267 350.195 345.905 350.195C323.543 350.195 305.415 347.806 305.415 344.861C305.415 341.916 323.543 339.529 345.905 339.529C368.267 339.529 386.395 341.916 386.395 344.861Z" fill="#FE9A11"/>
<path d="M386.395 339.193C386.395 342.138 368.267 344.527 345.905 344.527C323.543 344.527 305.415 342.138 305.415 339.193C305.415 336.248 323.543 333.861 345.905 333.861C368.267 333.861 386.395 336.248 386.395 339.193Z" fill="#FE9A11"/>
<path d="M288.41 277.527H207.43V344.861H288.41V277.527Z" fill="#FE9A11"/>
<path d="M288.41 277.527C288.41 280.472 270.282 282.861 247.92 282.861C225.558 282.861 207.43 280.472 207.43 277.527C207.43 274.582 225.558 272.194 247.92 272.194C270.282 272.194 288.41 274.582 288.41 277.527Z" fill="#FE9A11"/>
<path d="M288.41 283.195H207.43V339.193H288.41V283.195Z" fill="#201C1D"/>
<path d="M288.41 283.195C288.41 286.14 270.282 288.529 247.92 288.529C225.558 288.529 207.43 286.14 207.43 283.195C207.43 280.25 225.558 277.862 247.92 277.862C270.282 277.862 288.41 280.25 288.41 283.195Z" fill="#201C1D"/>
<path d="M288.41 344.861C288.41 347.806 270.282 350.195 247.92 350.195C225.558 350.195 207.43 347.806 207.43 344.861C207.43 341.916 225.558 339.529 247.92 339.529C270.282 339.529 288.41 341.916 288.41 344.861Z" fill="#FE9A11"/>
<path d="M288.41 339.193C288.41 342.138 270.282 344.527 247.92 344.527C225.558 344.527 207.43 342.138 207.43 339.193C207.43 336.248 225.558 333.861 247.92 333.861C270.282 333.861 288.41 336.248 288.41 339.193Z" fill="#FE9A11"/>
<path d="M263.764 357.598C264.723 359.912 263.624 362.569 261.308 363.528C258.993 364.487 256.337 363.387 255.379 361.071C254.42 358.757 255.519 356.102 257.834 355.143C260.15 354.182 262.805 355.284 263.764 357.598Z" fill="#FE9A11"/>
<path d="M208.498 407.951C210.813 408.91 211.913 411.564 210.954 413.881C209.995 416.195 207.339 417.295 205.024 416.336C202.71 415.377 201.609 412.723 202.568 410.406C203.528 408.092 206.182 406.992 208.498 407.951Z" fill="#FE9A11"/>
<path d="M205.023 482.635C207.338 481.676 209.994 482.776 210.954 485.092C211.913 487.406 210.812 490.063 208.497 491.022C206.182 491.979 203.527 490.88 202.568 488.565C201.608 486.249 202.709 483.594 205.023 482.635Z" fill="#FE9A11"/>
<path d="M255.377 537.9C256.336 535.586 258.989 534.484 261.308 535.443C263.622 536.402 264.723 539.058 263.763 541.375C262.803 543.689 260.149 544.789 257.833 543.83C255.517 542.871 254.418 540.217 255.377 537.9V537.9Z" fill="#FE9A11"/>
<path d="M330.061 541.375C329.102 539.059 330.201 536.404 332.517 535.443C334.832 534.486 337.489 535.586 338.447 537.9C339.406 540.216 338.306 542.871 335.992 543.83C333.676 544.791 331.02 543.691 330.061 541.375V541.375Z" fill="#FE9A11"/>
<path d="M385.326 491.021C383.012 490.062 381.911 487.408 382.87 485.091C383.83 482.777 386.485 481.675 388.801 482.634C391.115 483.595 392.215 486.249 391.257 488.566C390.298 490.88 387.643 491.98 385.326 491.021Z" fill="#FE9A11"/>
<path d="M388.801 416.338C386.486 417.297 383.83 416.197 382.87 413.881C381.912 411.567 383.012 408.91 385.327 407.951C387.643 406.994 390.298 408.094 391.258 410.408C392.217 412.724 391.117 415.379 388.801 416.338Z" fill="#FE9A11"/>
<path d="M338.448 361.072C337.488 363.386 334.835 364.486 332.516 363.529C330.203 362.57 329.101 359.912 330.061 357.597C331.022 355.283 333.676 354.183 335.991 355.14C338.307 356.101 339.408 358.755 338.448 361.072V361.072Z" fill="#FE9A11"/>
<path d="M212.675 226.868C208.725 236.405 178.223 232.828 144.547 218.879C110.87 204.93 86.773 185.891 90.723 176.354C94.673 166.818 125.175 170.395 158.852 184.344C192.528 198.293 216.625 217.332 212.675 226.867V226.868Z" fill="#FE9A11"/>
<path d="M140.782 340.115H130.782V545.986H140.782V340.115Z" fill="#201C1D"/>
<path d="M138.782 239.05H132.782V341.986H138.782V239.05Z" fill="#201C1D"/>
<path d="M145.029 457.083L140.786 461.325L213.564 534.12L217.807 529.878L145.029 457.083Z" fill="#201C1D"/>
<path d="M126.539 457.089L53.752 529.874L57.9952 534.117L130.783 461.332L126.539 457.089Z" fill="#201C1D"/>
<path d="M63.032 529.861H51.282V545.986H63.032V529.861Z" fill="#201C1D"/>
<path d="M219.532 529.861H207.782V545.986H219.532V529.861Z" fill="#201C1D"/>
<path d="M141.657 529.861H129.907V545.986H141.657V529.861Z" fill="#201C1D"/>
<path d="M144.907 457.084H126.538V463.57H144.907V457.084Z" fill="#201C1D"/>
<path d="M100.947 482.694L98.8257 484.815L128.657 514.659L130.779 512.538L100.947 482.694Z" fill="#201C1D"/>
<path d="M170.617 482.69L140.786 512.535L142.908 514.656L172.739 484.811L170.617 482.69Z" fill="#201C1D"/>
<path d="M150.184 201.012L134.044 239.999L136.816 241.147L152.956 202.16L150.184 201.012Z" fill="#201C1D"/>
<path d="M142.949 510.945H128.66V514.658H142.949V510.945Z" fill="#201C1D"/>
<path d="M130.782 344.861H124.532V350.195H130.782V344.861Z" fill="#201C1D"/>
<path d="M123.032 341.779H120.532V353.279H123.032V341.779Z" fill="#201C1D"/>
<path d="M469.032 340.115H459.032V545.986H469.032V340.115Z" fill="#201C1D"/>
<path d="M467.032 288.924H461.032V341.986H467.032V288.924Z" fill="#201C1D"/>
<path d="M454.787 457.081L382.008 529.876L386.251 534.118L459.03 461.324L454.787 457.081Z" fill="#201C1D"/>
<path d="M473.276 457.084L469.032 461.328L541.818 534.114L546.062 529.87L473.276 457.084Z" fill="#201C1D"/>
<path d="M548.532 529.861H536.782V545.986H548.532V529.861Z" fill="#201C1D"/>
<path d="M392.032 529.861H380.282V545.986H392.032V529.861Z" fill="#201C1D"/>
<path d="M469.907 529.861H458.157V545.986H469.907V529.861Z" fill="#201C1D"/>
<path d="M473.276 457.084H454.907V463.57H473.276V457.084Z" fill="#201C1D"/>
<path d="M498.865 482.688L469.034 512.533L471.156 514.654L500.987 484.808L498.865 482.688Z" fill="#201C1D"/>
<path d="M464.887 221.226H463.178V263.422H464.887V221.226Z" fill="#201C1D"/>
<path d="M429.197 482.694L427.075 484.815L456.907 514.659L459.028 512.538L429.197 482.694Z" fill="#201C1D"/>
<path d="M471.154 510.945H456.865V514.658H471.154V510.945Z" fill="#201C1D"/>
<path d="M475.282 344.861H469.032V350.195H475.282V344.861Z" fill="#201C1D"/>
<path d="M479.282 341.779H476.782V353.279H479.282V341.779Z" fill="#201C1D"/>
<path d="M528.893 279.623L464.032 286.584L399.172 279.623V278.162H528.893V279.623Z" fill="#FE9A11"/>
<path d="M483.893 284.246H444.172V288.924H483.893V284.246Z" fill="#FE9A11"/>
<path d="M399.172 272.723L464.032 265.761L528.893 272.723V274.183H399.172V272.723Z" fill="#FE9A11"/>
<path d="M483.893 263.421H444.172V268.1H483.893V263.421Z" fill="#FE9A11"/>
<path d="M469.643 288.924H458.422V292.633H469.643V288.924Z" fill="#201C1D"/>
<path d="M469.643 259.714H458.422V263.423H469.643V259.714Z" fill="#201C1D"/>
<ellipse cx="284.57" cy="111.114" rx="36.5" ry="48" transform="rotate(-13.3097 284.57 111.114)" fill="#FE9A11"/>
<ellipse rx="36.5" ry="48" transform="matrix(-0.97314 -0.230214 -0.230214 0.97314 771.57 131.114)" fill="#FE9A11"/>
</g>
<defs>
<clipPath id="clip0_59_19685">
<rect width="847" height="556" fill="white"/>
</clipPath>
</defs>
</svg>
