<?xml version="1.0" encoding="UTF-8"?>
<svg xmlns="http://www.w3.org/2000/svg" width="1047.995" height="1100.901" viewBox="0 0 1047.995 1100.901">
  <g id="a" data-name="Layer 1"/>
  <g id="b" data-name="Layer 2">
    <g id="c" data-name="Layer 1">
      <g>
        <path d="M888.581,550.792c53.23-56.833,106.001-113.176,159.414-170.204-76.995-14.804-152.986-29.415-229.041-44.039,9.648-77.207,19.218-153.797,28.91-231.353-70.759,33.153-140.829,65.984-211.205,98.958-37.574-68.089-74.87-135.677-112.658-204.154-37.756,68.422-75.056,136.018-112.654,204.154-70.167-32.874-140.132-65.654-211.193-98.947,9.74,78.044,19.296,154.616,28.873,231.351-76.559,14.719-152.366,29.293-229.027,44.032,53.556,57.181,106.41,113.612,159.422,170.211C106.282,607.538,53.483,663.911,.252,720.746c2.269,.592,3.819,1.095,5.408,1.397,18.314,3.487,36.639,6.913,54.949,10.416,22.659,4.335,45.31,8.713,67.959,13.099,22.286,4.316,44.555,8.724,66.854,12.97,9.605,1.829,19.268,3.352,28.904,5.014h-.001l-.104-.087c1.106,.305,2.211,.609,3.317,.914,.43,.129,.861,.258,1.291,.387-.389,3.869-.709,7.747-1.178,11.606-1.583,13.052-3.206,26.099-4.837,39.145-1.723,13.779-3.481,27.554-5.207,41.332-1.266,10.106-2.493,20.216-3.755,30.322-1.721,13.779-3.443,27.558-5.194,41.334-1.704,13.406-3.49,26.802-5.158,40.213-1.109,8.923-2.074,17.863-3.18,27.463,4.815-2.223,8.835-4.03,12.814-5.925,16.292-7.756,32.571-15.538,48.855-23.31,1.385-.502,2.819-.899,4.147-1.522,29.694-13.92,59.371-27.874,89.061-41.801,18.595-8.722,37.206-17.41,56.006-26.206,.888,1.51,1.654,2.743,2.355,4.011,15.525,28.084,31.015,56.187,46.572,84.253,9.967,17.983,20.03,35.913,30.051,53.866,.415,.746,.831,1.492,1.246,2.239,.147,.532,.195,1.118,.455,1.588,10.103,18.328,20.218,36.65,30.369,54.952,.478,.862,1.292,1.538,2.109,2.485,3.262-5.872,6.351-11.355,9.367-16.876,9.146-16.737,18.265-33.489,27.394-50.235,.964-1.554,1.999-3.068,2.882-4.667,19.247-34.852,38.485-69.71,57.686-104.587,.769-1.397,1.17-2.998,1.742-4.503l-.03,.005c.3-.279,.599-.557,.899-.836,4.144-7.164,8.289-14.329,12.543-21.683,8.084,3.798,15.767,7.423,23.464,11.022,40.598,18.981,81.199,37.955,121.799,56.932,21.708,10.229,43.416,20.458,65.768,30.99-9.728-77.859-19.317-154.606-28.914-231.422,76.322-14.672,152.18-29.256,229.031-44.03-53.619-57.255-106.482-113.702-159.41-170.218ZM250.376,692.675c-.112-.214-.227-.422-.348-.62,1.937-3.268,3.78-6.606,5.642-9.93-1.862,3.324-3.705,6.662-5.642,9.93,.121,.198,.236,.406,.348,.62Zm22.38,15.206c-6.607-3.694-13.202-7.41-19.761-11.187,6.559,3.777,13.154,7.493,19.761,11.187Zm122.158-118.323c.619-2.111,1.24-4.222,1.848-6.336-.608,2.114-1.23,4.224-1.848,6.336-.618,2.111-1.233,4.224-1.827,6.34h0c.594-2.117,1.209-4.229,1.828-6.34Zm-104.361,130.69c-1.353,.891-2.695,1.81-4.041,2.719,1.346-.908,2.688-1.827,4.041-2.719,.677-.446,1.356-.884,2.041-1.311-3.305-1.845-6.612-3.685-9.919-5.526,3.307,1.841,6.615,3.681,9.919,5.526-.684,.427-1.364,.866-2.041,1.311Zm5.29-2.566h0c.374,2.637,.715,5.28,1.075,7.919-.36-2.639-.701-5.282-1.075-7.919Z" fill="#fff"/>
        <g>
          <path d="M255.88,741.195c-8.622-1.487-17.267-2.85-25.861-4.486-19.951-3.799-39.875-7.743-59.815-11.605-20.264-3.924-40.53-7.841-60.803-11.719-16.382-3.134-32.778-6.199-49.163-9.319-1.422-.271-2.809-.72-4.839-1.25,47.626-50.851,94.865-101.288,142.41-152.052-47.429-50.639-94.719-101.129-142.635-152.289,68.589-13.187,136.414-26.226,204.912-39.395-8.568-68.655-17.118-137.165-25.833-206.991,63.579,29.788,126.177,59.116,188.956,88.529,33.639-60.962,67.012-121.441,100.792-182.658,33.809,61.267,67.178,121.738,100.796,182.658,62.965-29.502,125.658-58.876,188.966-88.538-8.671,69.39-17.234,137.915-25.866,206.993,68.047,13.084,136.037,26.157,204.925,39.402-47.789,51.023-95.004,101.434-142.629,152.283,47.355,50.566,94.651,101.069,142.625,152.296-68.759,13.219-136.63,26.266-204.916,39.394,8.587,68.728,17.166,137.394,25.87,207.055-19.998-9.423-39.421-18.575-58.843-27.727-.511-19.47-1-38.941-1.54-58.41-.3-10.818-.711-21.632-1.025-32.449-.849-29.289-1.673-58.579-2.507-87.869,19.689-10.377,39.381-20.749,59.067-31.134,8.815-4.65,17.62-9.318,26.42-13.994,1.606-.853,1.586-.891,1.442-2.804-.281-.394-.562-.788-.843-1.182l.076,.01c-.718-1.11-1.366-2.273-2.164-3.323-88.888-116.949-177.794-233.883-266.676-350.836-13.3-17.501-26.489-35.086-39.729-52.633,.664-6.077-.203-11.883-2.694-17.51-.522-1.178-.513-3.072,.085-4.191,5.559-10.408,11.202-20.775,17.107-30.988,.783-1.354,3.154-2.495,4.805-2.514,5.651-.065,11.308,.425,16.964,.675,1.348,.06,2.702,.009,4.623,.009-.885-1.885-1.347-2.93-1.859-3.95-3.939-7.846-9.469-15.32-11.393-23.631-1.976-8.537-.268-17.893-.49-26.883-.134-5.446,.548-10.251,5.809-13.209,.201-.113,.196-.592,.413-1.325-9.97-11.846-20.088-23.869-30.765-36.555-1.912,2.518-3.405,4.486-5.2,6.85-1.46-1.725-2.24-3.024-3.361-3.873-1.365-1.034-3.803-2.741-4.39-2.302-1.509,1.129-2.747,3.169-3.175,5.053-.5,2.207-.078,4.636,.032,6.964,.19,4.009,1.561,8.354,.465,11.958-2.956,9.719-4.173,19.114,.66,28.63-6.275,5.288-12.346,10.405-18.635,15.705,3.939,5.086,9.114,6.795,14.67,6.773,4.046-.016,5.216,1.607,5.385,5.205,.296,6.317,1.084,12.62,1.174,18.936,.085,5.974-.084,12.004-.828,17.924-.87,6.925-4.897,11.956-11.416,16.057-.646-3.758-1.197-6.647-1.634-9.552q-1.713-11.375-13.058-13.209c-.164-.027-.331-.04-.495-.067-4.479-.737-8.19,.496-11.074,4.128-3.832,4.825-7.752,9.58-11.613,14.383-1.077,1.339-2.078,2.74-4.006,5.295,16.092,3.307,30.974,6.366,46.698,9.597,.521,4.904,1.148,10.816,1.776,16.728-.166,.205-.234,.439-.202,.701-.204,.363-.408,.726-.612,1.089-86.907,120.001-173.821,239.998-260.715,360.009-15.424,21.302-30.768,42.662-46.148,63.995-2.256,3.372,1.37,3.125,2.606,3.703,14.855,6.957,29.801,13.719,44.69,20.604,1.522,.704,2.826,1.877,4.232,2.832Z" fill="#201c1d"/>
          <path d="M749.857,743.045c.834,29.29,1.658,58.579,2.507,87.869,.314,10.817,.724,21.631,1.025,32.449,.54,19.469,1.03,38.94,1.54,58.41-36.325-16.979-72.651-33.955-108.975-50.937-6.886-3.219-13.76-6.463-20.993-9.861-3.806,6.58-7.515,12.99-11.223,19.4-.293,.272-.585,.544-.878,.816l.1-.072c-1.775,.307-3.616,.408-5.314,.953-27.66,8.881-48.662,36.321-49.834,65.406-.475,11.796-.417,23.613-.601,35.42-8.168,14.983-16.327,29.971-24.51,44.945-2.699,4.94-5.462,9.844-8.381,15.099-.731-.847-1.459-1.452-1.887-2.223-9.082-16.375-18.132-32.768-27.171-49.166-.232-.421-.276-.945-.407-1.421,.007-76.802,.02-153.604-.021-230.406,0-1.547-.631-3.094-.968-4.641,.001-52.338,.002-104.677,.003-157.015,.706-.133,1.535-.571,2.099-.347,3.389,1.346,6.692,2.909,10.071,4.281,11.36,4.613,22.721,9.225,34.125,13.728,3.302,1.304,4.978,3.111,4.831,7.014-.148,3.917,.497,7.918,1.216,11.804,2.357,12.723,6.007,25.036,11.245,36.93,12.319,27.969,29.901,51.447,56.162,67.865,12.21,7.634,25.483,12.322,39.756,12.5,10.253,.127,20.329-2.494,28.997-8.746,14.733-10.626,22.158-25.589,25.469-42.956,.935-4.905,1.539-9.872,2.336-15.083,11.837,4.774,22.906,9.198,33.935,13.719,2.404,.985,4.797,1.819,4.831,5.436,.125,12.946,.582,25.888,.913,38.831Z" fill="#fdcf16"/>
          <path d="M493.87,598.069c-.001,52.338-.002,104.677-.003,157.015,.009,37.594,.043,75.188,.022,112.782-.022,40.088-.096,80.175-.147,120.263-8.965-16.063-17.969-32.105-26.887-48.194-13.918-25.111-27.778-50.255-41.668-75.382-.627-1.135-1.312-2.238-2.107-3.589-16.821,7.869-33.472,15.643-50.109,23.446-26.564,12.461-53.117,24.946-79.684,37.4-1.189,.557-2.472,.912-3.711,1.362-.053-.99-.176-1.982-.148-2.97,.869-30.581,1.728-61.162,2.645-91.741,.409-13.627,1.053-27.247,1.378-40.875,.242-10.113,.142-20.234,.194-30.352,.4-1.683,1.124-3.362,1.146-5.05,.126-9.789,.003-19.582,.134-29.371,.073-5.454,1.168-10.06,7.259-12.623,5.255-2.211,9.873-5.937,14.772-8.993,.969-.374,1.938-.749,2.907-1.123,.668,4.719,1.221,9.457,2.026,14.153,2.427,14.146,6.843,27.406,17.979,37.324,7.864,7.004,16.949,9.53,27.554,7.928,14.046-2.122,24.818-9.948,34.582-19.229,9.388-8.924,16.877-19.453,23.342-30.787,8.036-14.088,14.005-28.93,18.55-44.435,4.02-13.711,5.491-27.823,6.961-41.946,10.454-6.23,20.885-12.5,31.375-18.669,3.806-2.238,7.753-4.236,11.635-6.344Z" fill="#fee215"/>
          <path d="M293.646,757.234c-.052,10.117,.048,20.239-.194,30.352-.326,13.628-.97,27.249-1.378,40.875-.917,30.579-1.776,61.161-2.645,91.741-.028,.988,.095,1.98,.148,2.97-14.569,6.954-29.135,13.917-43.711,20.856-3.56,1.695-7.157,3.312-11.465,5.301,.99-8.589,1.853-16.588,2.846-24.572,1.492-11.999,3.09-23.984,4.615-35.979,1.567-12.325,3.107-24.653,4.647-36.982,1.129-9.042,2.228-18.088,3.36-27.129,1.544-12.328,3.117-24.652,4.658-36.98,1.459-11.672,2.911-23.345,4.328-35.023,.419-3.453,.706-6.922,1.054-10.384,1.205,.509,2.419,.999,3.613,1.531,10.043,4.47,20.083,8.947,30.125,13.423Z" fill="#211d1e"/>
          <path d="M293.646,757.234c-10.041-4.475-20.081-8.953-30.125-13.423-1.195-.532-2.409-1.021-3.613-1.531-.385-.115-.77-.231-1.155-.346-.989-.273-1.978-.545-2.968-.818l.095,.078c-1.405-.955-2.71-2.129-4.232-2.832-14.889-6.885-29.835-13.647-44.69-20.604-1.235-.578-4.861-.332-2.606-3.703,1.257-.35,2.598-.525,3.759-1.078,15.236-7.25,30.446-14.555,45.664-21.843,6.862-3.286,13.783-6.457,20.556-9.918,1.751-.895,3.042-2.69,4.544-4.071,.867,1.414,1.391,3.423,2.654,4.15,11.737,6.759,23.602,13.298,35.429,19.901-4.9,3.056-9.517,6.782-14.772,8.993-6.092,2.563-7.186,7.169-7.259,12.623-.131,9.789-.009,19.582-.134,29.371-.022,1.688-.746,3.367-1.146,5.05Z" fill="#fdad12"/>
          <path d="M557.212,982.898c.184-11.807,.126-23.625,.601-35.42,1.172-29.085,22.174-56.525,49.834-65.406,1.698-.545,3.539-.646,5.314-.953-.512,1.347-.87,2.779-1.558,4.029-17.18,31.205-34.392,62.392-51.612,93.575-.79,1.43-1.716,2.785-2.579,4.175Z" fill="#221e1e"/>
          <path d="M493.741,988.129c.051-40.088,.125-80.175,.147-120.263,.021-37.594-.012-75.188-.022-112.782,.337,1.547,.967,3.094,.968,4.641,.041,76.802,.028,153.604,.021,230.406-.372-.668-.743-1.335-1.115-2.003Z" fill="#ccb017"/>
          <path d="M255.785,741.116c.989,.272,1.978,.545,2.968,.818-.989-.272-1.978-.545-2.968-.818Z" fill="#201c1d"/>
          <path d="M612.861,881.191c.293-.272,.585-.544,.878-.816-.293,.272-.585,.544-.878,.816Z" fill="#221e1e"/>
          <path d="M527.45,287.15c13.24,17.546,26.428,35.132,39.729,52.633,88.882,116.953,177.789,233.888,266.676,350.836,.798,1.05,1.446,2.213,2.164,3.323-1.123-.162-2.343-.095-3.353-.523-5.781-2.449-11.523-4.989-17.257-7.547-18.863-8.416-37.699-16.891-56.587-25.248-3.891-1.721-7.964-3.03-11.954-4.528-1.828-3.705-3.113-7.826-5.578-11.043-10.966-14.307-22.162-28.444-33.487-42.47-9.286-11.501-19.445-22.16-30.663-31.877-14.904-12.91-30.946-23.925-49.176-31.511-9.369-3.899-19.101-6.815-29.427-6.042-7.661,.574-14.1,3.563-17.675,10.949-.671,1.686-1.523,3.324-1.982,5.066-2.317,8.794-.778,17.388,1.473,25.946,.64,2.434,1.047,4.929,1.694,8.036-1.549-.491-2.18-.625-2.756-.884-10.291-4.61-20.567-9.255-30.863-13.853-18.316-8.179-36.627-16.369-54.98-24.464-3.457-1.525-7.1-2.627-10.657-3.924,.449-3.771,.837-7.55,1.359-11.311,1.539-11.095,3.121-22.184,4.705-33.273,1.165-8.154,2.362-16.303,3.54-24.455,1.154-7.988,2.347-15.972,3.443-23.968,1.477-10.779,2.826-21.575,4.327-32.35,1.5-10.767,3.133-21.515,4.682-32.276,1.151-7.992,2.246-15.993,3.394-23.985,1.522-10.597,3.082-21.188,4.606-31.785,1.243-8.641,2.516-17.278,3.662-25.932,.865-6.536,1.551-13.096,2.317-19.645,.974-3.312,2.254-1.165,3.25-.096,1.864,2,3.59,4.128,5.373,6.202Z" fill="#fcc214"/>
          <path d="M746.869,656.095c3.989,1.499,8.063,2.807,11.954,4.528,18.888,8.357,37.724,16.833,56.587,25.248,5.734,2.558,11.476,5.098,17.257,7.547,1.01,.428,2.23,.361,3.353,.523l-.076-.01c.281,.394,.562,.788,.843,1.182,.144,1.913,.164,1.951-1.442,2.804-8.8,4.676-17.606,9.344-26.42,13.994-19.685,10.384-39.377,20.757-59.067,31.134-.331-12.944-.788-25.886-.913-38.831-.035-3.617-2.427-4.45-4.831-5.436-11.029-4.521-22.098-8.944-33.935-13.719-.797,5.21-1.401,10.178-2.336,15.083-3.312,17.368-10.736,32.331-25.469,42.956-8.668,6.252-18.744,8.873-28.997,8.746-14.273-.177-27.546-4.865-39.756-12.5-26.261-16.419-43.843-39.896-56.162-67.865-5.239-11.894-8.889-24.207-11.245-36.93-.72-3.886-1.364-7.887-1.216-11.804,.147-3.903-1.529-5.711-4.831-7.014-11.404-4.503-22.765-9.115-34.125-13.728-3.379-1.372-6.682-2.935-10.071-4.281-.565-.224-1.393,.215-2.099,.347-3.883,2.108-7.829,4.106-11.635,6.344-10.49,6.169-20.921,12.439-31.375,18.669-11.683-8.007-23.428-15.926-35.011-24.077-3.24-2.28-6-5.242-8.98-7.892,17.154-11.663,34.283-23.363,51.473-34.973,8.089-5.462,16.295-10.75,24.448-16.117,3.557,1.297,7.2,2.4,10.657,3.924,18.353,8.095,36.664,16.285,54.98,24.464,10.296,4.598,20.572,9.243,30.863,13.853,.576,.258,1.207,.392,2.756,.884-.647-3.107-1.054-5.602-1.694-8.036-2.25-8.557-3.79-17.152-1.473-25.946,.459-1.742,1.311-3.38,1.982-5.066,1.129-.219,2.291-.336,3.383-.674,10.228-3.168,20.549-3.21,30.87-.701,24.477,5.949,42.764,21.114,58.447,39.903,9.382,11.241,16.82,23.779,22.629,37.214,6.659,15.401,11.813,31.229,12.721,48.185,.243,4.546,.96,9.066,1.477,13.764,.689-.187,1.213-.196,1.567-.446,7.711-5.431,15.432-10.849,23.088-16.356,4.003-2.879,7.886-5.925,11.824-8.895Z" fill="#fead11"/>
          <path d="M482.791,540.024c-8.153,5.367-16.36,10.654-24.448,16.117-17.19,11.609-34.319,23.31-51.473,34.973,2.127-7.576,4.551-15.084,6.278-22.75,1.192-5.292,3.254-10.728,.749-16.266-1.017-5.566-5.158-8.77-10.483-7.867-2.263,.384-4.503,1.099-6.651,1.928-12.129,4.682-22.27,12.593-31.475,21.352-11.404,10.852-22.439,22.236-32.468,34.354-13.926,16.827-27.018,34.367-39.958,51.976-5.342,7.269-9.363,15.508-13.985,23.306-1.502,1.381-2.793,3.176-4.544,4.071-6.772,3.461-13.693,6.632-20.556,9.918-15.218,7.288-30.428,14.593-45.664,21.843-1.161,.553-2.502,.728-3.759,1.078,15.381-21.333,30.724-42.693,46.148-63.995,86.894-120.011,173.808-240.007,260.715-360.009,.204-.363,.408-.726,.612-1.089-.032-.262,.036-.496,.202-.701,2.266-2.406,4.531-4.812,6.797-7.218-.766,6.549-1.451,13.109-2.317,19.645-1.146,8.654-2.419,17.291-3.662,25.932-1.524,10.596-3.084,21.188-4.606,31.785-1.148,7.993-2.243,15.993-3.394,23.985-1.55,10.76-3.182,21.509-4.682,32.276-1.501,10.775-2.849,21.572-4.327,32.35-1.096,7.996-2.289,15.98-3.443,23.968-1.178,8.152-2.375,16.301-3.54,24.455-1.584,11.089-3.166,22.178-4.705,33.273-.522,3.761-.909,7.54-1.359,11.311Z" fill="#feeb15"/>
          <path d="M518.826,281.043c-2.266,2.406-4.531,4.812-6.797,7.218-.628-5.912-1.255-11.824-1.776-16.728-15.724-3.232-30.607-6.29-46.698-9.597,1.928-2.555,2.929-3.955,4.006-5.295,3.861-4.802,7.781-9.557,11.613-14.383,2.884-3.632,6.595-4.865,11.074-4.128,.164,.027,.331,.041,.495,.067q11.359,1.832,13.058,13.209c.438,2.906,.988,5.795,1.634,9.552,6.52-4.101,10.546-9.132,11.416-16.057,.744-5.919,.913-11.95,.828-17.924-.09-6.316-.878-12.619-1.174-18.936-.169-3.598-1.339-5.221-5.385-5.205-5.557,.022-10.731-1.688-14.67-6.773,6.289-5.3,12.36-10.417,18.635-15.705-4.833-9.516-3.616-18.911-.66-28.63,1.096-3.604-.275-7.948-.465-11.958-.11-2.328-.532-4.758-.032-6.964,.427-1.884,1.665-3.925,3.175-5.053,.587-.439,3.025,1.268,4.39,2.302,1.121,.849,1.901,2.148,3.361,3.873,1.795-2.364,3.289-4.332,5.2-6.85,10.677,12.686,20.795,24.709,30.765,36.555-.217,.733-.212,1.212-.413,1.325-5.261,2.958-5.943,7.763-5.809,13.209,.222,8.99-1.486,18.346,.49,26.883,1.924,8.31,7.455,15.785,11.393,23.631,.512,1.02,.974,2.065,1.859,3.95-1.921,0-3.274,.051-4.623-.009-5.656-.25-11.313-.74-16.964-.675-1.65,.019-4.022,1.16-4.805,2.514-5.904,10.214-11.548,20.581-17.107,30.988-.598,1.119-.607,3.013-.085,4.191,2.491,5.627,3.358,11.433,2.694,17.51-1.783-2.075-3.51-4.202-5.373-6.202-.997-1.07-2.276-3.216-3.25,.096Z" fill="#fa9811"/>
          <path d="M511.827,288.962c-.204,.363-.408,.726-.612,1.089,.204-.363,.408-.726,.612-1.089Z" fill="#fa9811"/>
          <path d="M836.786,695.114c-.281-.394-.562-.788-.843-1.182,.281,.394,.562,.788,.843,1.182Z" fill="#fcc214"/>
          <path d="M413.896,552.097c2.505,5.538,.443,10.974-.749,16.266-1.727,7.666-4.151,15.174-6.278,22.75,2.98,2.649,5.74,5.612,8.98,7.892,11.582,8.151,23.327,16.07,35.011,24.077-1.47,14.123-2.941,28.235-6.961,41.946-4.546,15.505-10.514,30.346-18.55,44.435-6.465,11.334-13.955,21.863-23.342,30.787-9.763,9.281-20.536,17.107-34.582,19.229-10.605,1.602-19.69-.924-27.554-7.928-11.136-9.917-15.553-23.177-17.979-37.324-.805-4.695-1.358-9.434-2.026-14.153,.321-5.783,.727-11.563,.946-17.35,.497-13.136,3.143-25.843,6.813-38.444,8.263-28.374,21.383-53.912,43.061-74.418,12.033-11.382,25.746-19.296,43.211-17.765Z" fill="#fdcf16"/>
          <path d="M413.896,552.097c-17.465-1.532-31.178,6.383-43.211,17.765-21.678,20.506-34.798,46.044-43.061,74.418-3.67,12.602-6.316,25.308-6.813,38.444-.219,5.787-.625,11.567-.946,17.351l-2.907,1.123c-11.827-6.603-23.692-13.142-35.429-19.901-1.263-.727-1.787-2.736-2.654-4.15,4.622-7.798,8.644-16.037,13.985-23.306,12.94-17.609,26.032-35.149,39.958-51.976,10.029-12.118,21.064-23.502,32.468-34.354,9.205-8.759,19.346-16.67,31.475-21.352,2.148-.829,4.388-1.544,6.651-1.928,5.325-.903,9.466,2.301,10.483,7.867Z" fill="#fc9a11"/>
          <path d="M746.869,656.095c-3.937,2.97-7.821,6.016-11.824,8.895-7.656,5.507-15.377,10.926-23.088,16.356-.354,.249-.878,.258-1.567,.446-.518-4.698-1.234-9.218-1.477-13.764-.908-16.955-6.062-32.783-12.721-48.185-5.809-13.435-13.247-25.973-22.629-37.214-15.682-18.789-33.97-33.955-58.447-39.903-10.322-2.509-20.642-2.466-30.87,.701-1.093,.338-2.254,.455-3.383,.674,3.575-7.385,10.014-10.375,17.675-10.949,10.327-.773,20.058,2.143,29.427,6.042,18.231,7.586,34.272,18.601,49.176,31.511,11.218,9.717,21.376,20.375,30.663,31.877,11.325,14.026,22.521,28.163,33.487,42.47,2.465,3.216,3.75,7.338,5.578,11.043Z" fill="#fd9a11"/>
        </g>
      </g>
    </g>
  </g>
</svg>