<svg width="166" height="269" viewBox="0 0 166 269" fill="none" xmlns="http://www.w3.org/2000/svg">
<g clip-path="url(#clip0_14_983)">
<path fill-rule="evenodd" clip-rule="evenodd" d="M25.707 165.41L0.0140076 153.628L19.231 143.747L36.337 153.253L63.58 130.953L53.508 120.815L73.484 107.9L99.66 117.65L88.16 126.741L131.877 145.201L141.668 137.792L165.81 148.522L141.056 161.6L25.707 165.41Z" fill="#FFAE12"/>
<path fill-rule="evenodd" clip-rule="evenodd" d="M36.776 110.288L19.735 144.026L30.1 149.785L131.872 145.2L144.091 136.653C143.203 123.309 130.738 115.736 122.363 106.182L95.185 96.462L36.776 110.288Z" fill="#FE9A11"/>
<path fill-rule="evenodd" clip-rule="evenodd" d="M92.533 268.9V215.665C92.533 204.854 100.882 196.09 111.181 196.09C121.48 196.09 129.828 204.854 129.828 215.665L130.739 268.903H146.049L142.622 158.477L142.402 149.654L76.102 122.554L76.045 206.354H76.1V268.9H92.533Z" fill="#FED016"/>
<path d="M123.604 161.623C133.163 156.912 135.144 141.385 128.027 126.941C120.91 112.497 107.391 104.607 97.831 109.318C88.2711 114.028 86.2906 129.556 93.4075 143.999C100.524 158.443 114.044 166.333 123.604 161.623Z" fill="#FFAD11"/>
<path fill-rule="evenodd" clip-rule="evenodd" d="M76.1 122.555L24.189 153.2L24.072 158.671L20.705 268.9H31.574L32.458 217.05H32.515C33.104 207.221 40.002 199.458 48.445 199.458C56.888 199.458 63.786 207.221 64.375 217.05H64.433V268.9H76.1V192.788L76.052 192.757L76.1 122.555Z" fill="#FFE315"/>
<path d="M62.1889 142.778C67.0708 128.003 64.5127 113.873 56.4752 111.218C48.4378 108.562 37.9646 118.386 33.0827 133.16C28.2008 147.935 30.7589 162.065 38.7964 164.721C46.8338 167.376 57.307 157.552 62.1889 142.778Z" fill="#FED016"/>
<path fill-rule="evenodd" clip-rule="evenodd" d="M73.117 107.6L82.8 39.292L165.806 148.524L141.664 137.794C142.796 137.626 137.206 129.794 128.795 120.55C114.342 104.665 92.261 98.166 99.139 119.238L73.117 107.6Z" fill="#FEC314"/>
<path fill-rule="evenodd" clip-rule="evenodd" d="M73.116 107.6L82.8 39.292L0 153.637L19.886 143.952C18.754 143.784 25.207 134.413 33.064 124.752C46.611 108.089 61.127 100.772 52.981 121.306L73.116 107.6Z" fill="#FFEC15"/>
<path fill-rule="evenodd" clip-rule="evenodd" d="M99.138 119.238L89.161 127.893L76.1 122.555L64.649 129.315L52.982 121.305L73.117 107.6L99.138 119.238Z" fill="#FFAE12"/>
<path fill-rule="evenodd" clip-rule="evenodd" d="M83.9 36.256L83.908 36.241C83.908 36.241 85.971 32.141 86.518 31.053C86.6057 30.8782 86.7021 30.708 86.807 30.543L88.707 27.564C88.7775 27.4539 88.8759 27.3644 88.9921 27.3047C89.1084 27.245 89.2385 27.2171 89.369 27.224L95.161 27.524C95.1923 27.5257 95.2235 27.519 95.2513 27.5046C95.2791 27.4902 95.3026 27.4686 95.3193 27.4421C95.336 27.4156 95.3454 27.3852 95.3464 27.3538C95.3474 27.3225 95.34 27.2915 95.325 27.264C94.7 26.103 92.3 21.643 91.857 20.821C91.8111 20.735 91.7858 20.6395 91.783 20.542C91.755 19.355 91.583 11.413 92.048 10.875C92.4011 10.5126 92.8054 10.204 93.248 9.95899C93.2954 9.93049 93.3361 9.89203 93.3672 9.84627C93.3983 9.8005 93.4191 9.74853 93.4281 9.69394C93.4371 9.63935 93.4342 9.58345 93.4195 9.53011C93.4048 9.47677 93.3787 9.42725 93.343 9.38499C91.879 7.63599 85.488 0.0409932 85.488 0.0409932C85.488 0.0409932 84.707 0.917993 84.235 1.44599C84.1968 1.48887 84.1489 1.52202 84.0953 1.54266C84.0417 1.56331 83.9839 1.57087 83.9268 1.56471C83.8697 1.55854 83.8149 1.53884 83.7669 1.50724C83.7189 1.47563 83.6792 1.43304 83.651 1.38299C83.241 0.658993 82.359 -0.588007 81.545 0.316993C80.514 1.46399 81.714 3.67099 81.053 4.88299C81.0062 4.94876 80.9868 5.03009 80.9987 5.10989C81.0107 5.1897 81.053 5.26178 81.117 5.31099C81.224 5.41099 81.358 5.51099 81.463 5.59199C81.5141 5.63231 81.5501 5.68871 81.5652 5.75206C81.5803 5.8154 81.5735 5.88198 81.546 5.94099C81.135 6.86399 79.637 10.68 81.49 13.749C81.5045 13.7702 81.5102 13.7961 81.5061 13.8214C81.5021 13.8467 81.4884 13.8695 81.468 13.885L76.606 17.957C76.606 17.957 77.646 19.882 81.253 19.747C81.3867 19.7418 81.5173 19.7883 81.6178 19.8767C81.7183 19.9651 81.781 20.0887 81.793 20.222C81.982 22.176 82.593 29.253 81.838 31.445C81.3711 32.836 80.4359 34.0218 79.192 34.8C79.1645 34.8143 79.134 34.8217 79.103 34.8217C79.072 34.8217 79.0415 34.8143 79.014 34.8C78.9864 34.7859 78.9624 34.7655 78.944 34.7405C78.9256 34.7155 78.9133 34.6866 78.908 34.656C78.725 33.569 78.068 29.611 78.068 29.611L74.883 28.9C74.4103 28.7938 73.9173 28.8218 73.4597 28.9808C73.0021 29.1398 72.598 29.4236 72.293 29.8L68.128 34.94L74.765 36.728C75.2383 36.855 75.7224 36.9381 76.211 36.976L80.111 37.276C80.111 37.276 80.378 39.244 80.686 40.618C80.6961 41.2876 80.6129 41.9553 80.439 42.602L82.801 39.302L85.027 42.232C84.715 41.7684 84.59 41.204 84.677 40.652C85.207 38.786 83.461 36.984 83.9 36.256Z" fill="#FE9A11"/>
</g>
<defs>
<clipPath id="clip0_14_983">
<rect width="165.805" height="268.903" fill="white"/>
</clipPath>
</defs>
</svg>
