<svg width="1671" height="1669" viewBox="0 0 1671 1669" fill="none" xmlns="http://www.w3.org/2000/svg">
<path d="M835.389 102.666L1013.81 312.352L1287.92 242.349L1302.52 511.62L1567.59 608.037L1412.81 834.043L1567.59 1060.05L1302.52 1156.46L1287.92 1425.75L1013.81 1355.73L835.389 1565.42L656.965 1355.73L382.853 1425.75L368.255 1156.46L103.174 1060.05L257.969 834.043L103.174 608.037L368.255 511.62L382.853 242.349L656.965 312.352L835.389 102.666Z" fill="#201C1D"/>
<path d="M1192.94 1171.53H475.954L518.792 1061.58L753.794 1031.72L540.939 1004.64L601.808 848.467L840.075 818.202L624.192 790.817L691.473 618.063L878.193 594.384L709.141 572.87L834.39 251.146L909.535 444.077L811.516 456.533L919.699 470.329L1007.19 694.658L825.072 717.823L1026.19 743.354L1088.75 904.062L904.333 927.534L1107.99 953.48L1192.94 1171.53Z" fill="#187145"/>
<path d="M880.222 1204.54H788.658V1507.55H880.222V1204.54Z" fill="#187145"/>
<path d="M835.388 102.664L1013.81 312.35L1287.92 242.347L1302.52 511.618L1567.59 608.035L1412.81 834.04L1567.59 1060.05L1302.52 1156.46L1287.92 1425.75L1013.81 1355.73L835.388 1565.42L656.965 1355.73L382.853 1425.75L368.255 1156.46L103.174 1060.05L257.969 834.04L103.174 608.035L368.255 511.618L382.853 242.347L656.965 312.35L835.388 102.664Z" stroke="white" stroke-width="75.5165" stroke-miterlimit="10"/>
</svg>
