<svg width="123" height="170" viewBox="0 0 123 170" fill="none" xmlns="http://www.w3.org/2000/svg">
<path d="M19.335 86.549C20.091 82.872 26.054 76.094 26.054 76.094L32.456 78.652C32.456 78.652 25.326 87.309 24.362 88.723C23.6 89.841 19.334 86.548 19.334 86.548L19.335 86.549Z" fill="#FFAE12"/>
<path d="M76.826 70.596C77.611 68.954 77.1199 67.67 78.6499 66.725C80.1799 65.78 82.544 64.04 81.951 65.217C81.357 66.394 79.275 67.982 80.709 67.709C82.143 67.436 85.5059 65.596 84.5619 67.709C83.6179 69.822 81.1059 71.574 78.3009 72.341C75.4959 73.108 76.826 70.595 76.826 70.595V70.596Z" fill="#FEC315"/>
<path d="M61.2371 81.5931C64.0511 83.3831 64.561 83.6691 65.014 83.6121C65.468 83.5551 69.548 79.3951 69.548 79.3951L65.725 75.1721L62.465 77.6341L61.2371 81.5921V81.5931Z" fill="#FFAE12"/>
<path d="M32.4039 64.731C35.9499 63.099 50.921 61.006 59.268 64.892C60.992 65.695 68.1779 75.909 68.1779 75.909C68.1779 75.909 63.781 77.74 60.987 81.805C60.754 82.145 60.2619 82.165 60.0219 81.829L57.5969 78.442L58.1729 101.847C58.1729 101.847 34.0849 101.734 34.3009 101.847C34.5169 101.96 34.2589 79.606 34.2589 79.606L29.2149 83.717C28.9899 83.9 28.6709 83.907 28.4399 83.731C27.0399 82.664 22.4009 79.007 22.6899 77.633C23.0299 76.016 32.4019 64.73 32.4019 64.73L32.4039 64.731Z" fill="#D61628"/>
<path fill-rule="evenodd" clip-rule="evenodd" d="M38.442 40.4361C43.369 37.3841 48.576 37.0131 50.389 38.9061C52.202 40.7991 50.46 51.8711 50.46 51.8711L43.5651 56.9111C43.5651 56.9111 38.735 55.6451 37.332 51.8711C36.128 48.6301 36.823 41.4391 38.442 40.4361Z" fill="#3E3A3A"/>
<path d="M43.2519 53.383C43.5559 55.242 43.0939 59.67 42.8499 61.731C42.7749 62.367 42.2619 62.861 41.6239 62.916L40.6069 63.005C40.6069 63.005 41.6009 70.226 46.8209 69.949C52.0409 69.672 53.2929 63.176 53.2929 63.176C53.2929 63.176 50.2599 62.29 50.1709 62.069C49.8689 61.319 49.4729 53.147 49.4729 53.147L43.2529 53.383H43.2519Z" fill="#FFAE12"/>
<path fill-rule="evenodd" clip-rule="evenodd" d="M52.1749 50.589C52.0329 49.069 51.2139 44.516 48.0129 43.981C48.0129 43.981 46.2759 44.008 44.4699 44.678C39.9199 46.365 41.7489 51.478 41.6119 51.756C41.6169 51.794 41.6259 51.828 41.6309 51.866C40.8709 51.498 40.3579 51.912 40.2779 52.346C39.9909 53.913 41.4489 55.029 42.5399 55.237C43.9049 58.145 46.7169 60.199 49.8309 59.684C51.8499 59.35 52.4369 53.385 52.1749 50.59V50.589Z" fill="#FEC315"/>
<path d="M77.385 70.4011C77.385 70.4011 71.437 72.2741 66.318 76.9041C63.335 79.6031 65.015 83.6111 65.015 83.6111C69.142 83.4391 77.832 73.3801 78.597 71.8731C79.85 69.4051 77.385 70.4011 77.385 70.4011Z" fill="#FEC315"/>
<path d="M14.926 103.078C14.926 103.078 19.721 99.079 23.18 92.361C24.009 90.751 24.781 88.152 24.781 88.152C24.24 86.293 20.525 85.022 19.334 86.548C15.883 90.973 13.94 101.24 12.749 103.285C11.224 105.904 14.924 103.077 14.924 103.077L14.926 103.078Z" fill="#FEC315"/>
<path d="M50.4919 50.7902C50.5309 51.1392 50.7839 51.4032 51.0569 51.3802C51.3299 51.3562 51.5198 51.0542 51.4808 50.7042C51.4418 50.3552 51.1888 50.0912 50.9158 50.1142C50.6428 50.1382 50.4529 50.4402 50.4919 50.7902Z" fill="#3E3A3A"/>
<path d="M46.5959 51.3341C46.6349 51.6831 46.8879 51.9471 47.1609 51.9241C47.4339 51.9001 47.6239 51.5981 47.5849 51.2481C47.5459 50.8991 47.2929 50.6351 47.0199 50.6581C46.7469 50.6821 46.5569 50.9841 46.5959 51.3331V51.3341Z" fill="#3E3A3A"/>
<path d="M47.6729 55.2591L51.0239 54.9351C50.9379 55.9091 50.4338 56.7091 49.7068 56.7891C48.7828 56.8901 47.8709 56.1931 47.6729 55.2591Z" fill="#F3DBDD"/>
<path d="M50.5029 49.5302C50.3699 49.5302 50.2579 49.4282 50.2479 49.2942C50.2369 49.1532 50.3428 49.0302 50.4828 49.0202L51.6179 48.9332C51.7739 48.9222 51.8819 49.0282 51.8929 49.1682C51.9039 49.3092 51.7978 49.4322 51.6578 49.4432L50.5228 49.5302H50.5038H50.5029Z" fill="#3E3A3A"/>
<path d="M45.4279 50.3302C45.3059 50.3302 45.1979 50.2432 45.1759 50.1182C45.1519 49.9792 45.2439 49.8472 45.3839 49.8222L47.7849 49.4032C47.9249 49.3792 48.058 49.4722 48.081 49.6112C48.105 49.7502 48.0129 49.8832 47.8729 49.9072L45.4719 50.3262C45.4569 50.3282 45.4429 50.3302 45.4279 50.3302V50.3302Z" fill="#3E3A3A"/>
<path d="M90.0761 62.8011L94.853 76.5531C95.084 77.2181 95.8561 77.2331 96.1041 76.5771L102.189 60.4941C102.38 59.9891 102.119 59.3921 101.665 59.3221C97.5311 58.6871 92.2881 60.8611 90.4641 61.7011C90.1011 61.8681 89.9241 62.3671 90.0761 62.8021V62.8011Z" fill="#FEC315"/>
<path d="M101.246 62.9861L101.733 61.7001C101.203 61.4461 100.667 61.2081 100.122 61.0031C100.29 60.4101 100.46 59.8181 100.629 59.2261C100.223 59.2071 99.8121 59.2071 99.3961 59.2291C99.2641 59.6931 99.13 60.1551 98.999 60.6201C97.983 60.3061 96.95 60.0781 95.908 59.9361C95.926 59.8771 95.945 59.8181 95.963 59.7591C94.144 60.2021 92.4901 60.8281 91.3541 61.3081C92.3451 61.1901 93.342 61.1491 94.338 61.2021C93.981 62.6321 93.7021 64.0901 93.4951 65.5631C92.7271 65.6731 91.964 65.8451 91.212 66.0741L91.674 67.4051C92.215 67.2501 92.762 67.1251 93.314 67.0361C93.163 68.4591 93.076 69.8921 93.067 71.3281L93.038 71.3321L94.4041 75.2661C94.3251 74.3981 94.269 73.5281 94.247 72.6571C94.74 72.6381 95.234 72.6441 95.726 72.6761C95.406 73.9061 95.096 75.1361 94.786 76.3661L94.851 76.5531C95.031 77.0701 95.5331 77.1891 95.8671 76.9111C96.2131 75.5421 96.5571 74.1721 96.9141 72.8021C97.1071 72.8311 97.3 72.8651 97.493 72.9021L97.998 71.5681C97.759 71.5181 97.5191 71.4721 97.2791 71.4331C97.6561 70.0021 98.034 68.5711 98.421 67.1421C98.805 67.2201 99.1861 67.3181 99.5651 67.4271L100.067 66.1001C99.648 65.9701 99.225 65.8541 98.8 65.7601C99.112 64.6191 99.431 63.4801 99.749 62.3421C100.255 62.5321 100.753 62.7511 101.245 62.9851L101.246 62.9861ZM96.096 71.2831C95.476 71.2311 94.8541 71.2191 94.2321 71.2421C94.2441 69.7881 94.34 68.3381 94.504 66.8991C95.418 66.8301 96.337 66.8441 97.249 66.9511C96.859 68.3941 96.475 69.8381 96.096 71.2831ZM97.6301 65.5501C96.6571 65.4161 95.675 65.3821 94.697 65.4411C94.906 64.0441 95.1811 62.6611 95.5311 61.3051C96.5741 61.4311 97.61 61.6531 98.627 61.9621C98.293 63.1571 97.9581 64.3511 97.6301 65.5501Z" fill="#FE9A11"/>
<path d="M78.693 71.655L82.415 82.371C82.595 82.89 83.1959 82.901 83.3899 82.39L88.1319 69.858C88.2809 69.464 88.077 68.999 87.724 68.945C84.502 68.45 80.417 70.144 78.996 70.798C78.713 70.928 78.576 71.317 78.693 71.656V71.655Z" fill="#FEC315"/>
<path d="M87.397 71.8001L87.776 70.7981C87.363 70.6001 86.946 70.4151 86.521 70.2551C86.652 69.7931 86.784 69.3321 86.916 68.8701C86.6 68.8551 86.279 68.8551 85.955 68.8721C85.852 69.2331 85.748 69.5941 85.646 69.9561C84.854 69.7111 84.049 69.5331 83.237 69.4231C83.251 69.3771 83.266 69.3311 83.28 69.2851C81.863 69.6311 80.574 70.1181 79.689 70.4921C80.461 70.4001 81.238 70.3681 82.015 70.4101C81.737 71.5251 81.52 72.6601 81.358 73.8081C80.759 73.8941 80.165 74.0281 79.579 74.2061L79.939 75.2431C80.36 75.1221 80.787 75.0251 81.217 74.9551C81.1 76.0641 81.032 77.1801 81.025 78.3001L81.002 78.3041L82.067 81.3691C82.005 80.6931 81.962 80.0151 81.944 79.3361C82.328 79.3211 82.7129 79.3261 83.0959 79.3511C82.8469 80.3101 82.605 81.2681 82.364 82.2261L82.415 82.3721C82.555 82.7751 82.947 82.8681 83.206 82.6511C83.476 81.5841 83.743 80.5171 84.022 79.4491C84.173 79.4711 84.323 79.4981 84.473 79.5271L84.866 78.4881C84.68 78.4491 84.493 78.4131 84.306 78.3831C84.599 77.2681 84.894 76.1531 85.196 75.0401C85.495 75.1011 85.792 75.1771 86.087 75.2621L86.478 74.2281C86.151 74.1271 85.822 74.0361 85.49 73.9641C85.733 73.0751 85.981 72.1881 86.23 71.3011C86.624 71.4491 87.012 71.6201 87.396 71.8021L87.397 71.8001ZM83.384 78.2651C82.901 78.2241 82.416 78.2151 81.932 78.2331C81.941 77.1001 82.016 75.9701 82.144 74.8491C82.856 74.7951 83.572 74.8061 84.283 74.8901C83.979 76.0141 83.68 77.1391 83.384 78.2651ZM84.579 73.7981C83.82 73.6941 83.056 73.6671 82.293 73.7131C82.456 72.6241 82.67 71.5471 82.943 70.4901C83.756 70.5881 84.563 70.7621 85.356 71.0021C85.095 71.9331 84.835 72.8641 84.579 73.7981V73.7981Z" fill="#FE9A11"/>
<path d="M78.693 76.4102L82.415 87.1262C82.595 87.6452 83.1959 87.6562 83.3899 87.1452L88.1319 74.6132C88.2809 74.2192 88.077 73.7542 87.724 73.7002C84.502 73.2052 80.417 74.8992 78.996 75.5532C78.713 75.6832 78.576 76.0722 78.693 76.4112V76.4102Z" fill="#FEC315"/>
<path d="M87.397 76.5553L87.776 75.5533C87.363 75.3553 86.946 75.1703 86.521 75.0103C86.652 74.5483 86.784 74.0873 86.916 73.6253C86.6 73.6103 86.279 73.6103 85.955 73.6273C85.852 73.9883 85.748 74.3493 85.646 74.7113C84.854 74.4673 84.049 74.2883 83.237 74.1783C83.251 74.1323 83.266 74.0863 83.28 74.0403C81.863 74.3863 80.574 74.8733 79.689 75.2473C80.461 75.1553 81.238 75.1233 82.015 75.1643C81.737 76.2793 81.52 77.4143 81.358 78.5623C80.759 78.6483 80.165 78.7823 79.579 78.9603L79.939 79.9973C80.36 79.8763 80.787 79.7793 81.217 79.7093C81.1 80.8183 81.032 81.9343 81.025 83.0533L81.002 83.0573L82.067 86.1223C82.005 85.4463 81.962 84.7683 81.944 84.0893C82.328 84.0743 82.7129 84.0793 83.0959 84.1043C82.8469 85.0633 82.605 86.0213 82.364 86.9793L82.415 87.1253C82.555 87.5283 82.947 87.6213 83.206 87.4043C83.476 86.3373 83.743 85.2703 84.022 84.2033C84.173 84.2253 84.323 84.2523 84.473 84.2813L84.866 83.2423C84.68 83.2033 84.493 83.1673 84.306 83.1373C84.599 82.0223 84.894 80.9073 85.196 79.7933C85.495 79.8543 85.792 79.9303 86.087 80.0153L86.478 78.9813C86.151 78.8793 85.822 78.7893 85.49 78.7163C85.733 77.8273 85.981 76.9403 86.23 76.0533C86.624 76.2013 87.012 76.3723 87.396 76.5543L87.397 76.5553ZM83.384 83.0203C82.901 82.9793 82.416 82.9703 81.932 82.9883C81.941 81.8553 82.016 80.7253 82.144 79.6043C82.856 79.5503 83.572 79.5613 84.283 79.6443C83.979 80.7683 83.68 81.8933 83.384 83.0193V83.0203ZM84.579 78.5533C83.82 78.4493 83.056 78.4223 82.293 78.4683C82.456 77.3793 82.67 76.3023 82.943 75.2453C83.756 75.3433 84.563 75.5173 85.356 75.7573C85.095 76.6883 84.835 77.6193 84.579 78.5533V78.5533Z" fill="#FE9A11"/>
<path d="M78.693 80.6631L82.415 91.3791C82.595 91.8981 83.1959 91.9091 83.3899 91.3981L88.1319 78.8661C88.2809 78.4721 88.077 78.0071 87.724 77.9531C84.502 77.4581 80.417 79.1521 78.996 79.8061C78.713 79.9361 78.576 80.3251 78.693 80.6641V80.6631Z" fill="#FEC315"/>
<path d="M87.397 80.8082L87.776 79.8062C87.363 79.6082 86.946 79.4232 86.521 79.2632C86.652 78.8012 86.784 78.3402 86.916 77.8782C86.6 77.8632 86.279 77.8632 85.955 77.8802C85.852 78.2412 85.748 78.6022 85.646 78.9642C84.854 78.7202 84.049 78.5412 83.237 78.4312C83.251 78.3852 83.266 78.3392 83.28 78.2932C81.863 78.6392 80.574 79.1262 79.689 79.5002C80.461 79.4082 81.238 79.3762 82.015 79.4182C81.737 80.5332 81.52 81.6682 81.358 82.8162C80.759 82.9022 80.165 83.0362 79.579 83.2142L79.939 84.2512C80.36 84.1302 80.787 84.0332 81.217 83.9632C81.1 85.0722 81.032 86.1882 81.025 87.3082L81.002 87.3122L82.067 90.3772C82.005 89.7012 81.962 89.0232 81.944 88.3442C82.328 88.3292 82.7129 88.3342 83.0959 88.3592C82.8469 89.3182 82.605 90.2762 82.364 91.2342L82.415 91.3802C82.555 91.7832 82.947 91.8762 83.206 91.6592C83.476 90.5922 83.743 89.5252 84.022 88.4572C84.173 88.4792 84.323 88.5062 84.473 88.5352L84.866 87.4962C84.68 87.4572 84.493 87.4212 84.306 87.3912C84.599 86.2762 84.894 85.1612 85.196 84.0482C85.495 84.1092 85.792 84.1852 86.087 84.2702L86.478 83.2362C86.151 83.1352 85.822 83.0442 85.49 82.9722C85.733 82.0832 85.981 81.1962 86.23 80.3092C86.624 80.4572 87.012 80.6282 87.396 80.8102L87.397 80.8082ZM83.384 87.2732C82.901 87.2322 82.416 87.2232 81.932 87.2412C81.941 86.1082 82.016 84.9782 82.144 83.8572C82.856 83.8032 83.572 83.8142 84.283 83.8982C83.979 85.0222 83.68 86.1472 83.384 87.2732ZM84.579 82.8062C83.82 82.7022 83.056 82.6752 82.293 82.7212C82.456 81.6322 82.67 80.5552 82.943 79.4982C83.756 79.5962 84.563 79.7702 85.356 80.0102C85.095 80.9412 84.835 81.8722 84.579 82.8062V82.8062Z" fill="#FE9A11"/>
<path d="M78.693 84.917L82.415 95.633C82.595 96.152 83.1959 96.163 83.3899 95.652L88.1319 83.12C88.2809 82.726 88.077 82.261 87.724 82.207C84.502 81.712 80.417 83.406 78.996 84.06C78.713 84.19 78.576 84.579 78.693 84.918V84.917Z" fill="#FEC315"/>
<path d="M87.397 85.0611L87.776 84.0591C87.363 83.8611 86.946 83.6761 86.521 83.5161C86.652 83.0541 86.784 82.5931 86.916 82.1311C86.6 82.1161 86.279 82.1161 85.955 82.1331C85.852 82.4941 85.748 82.8551 85.646 83.2171C84.854 82.9731 84.049 82.7941 83.237 82.6841C83.251 82.6381 83.266 82.5921 83.28 82.5461C81.863 82.8921 80.574 83.3791 79.689 83.7531C80.461 83.6611 81.238 83.6291 82.015 83.6701C81.737 84.7851 81.52 85.9201 81.358 87.0681C80.759 87.1531 80.165 87.2871 79.579 87.4661L79.939 88.5031C80.36 88.3821 80.787 88.2851 81.217 88.2151C81.1 89.3241 81.032 90.4401 81.025 91.5591L81.002 91.5631L82.067 94.6281C82.005 93.9521 81.962 93.2741 81.944 92.5951C82.328 92.5801 82.7129 92.5851 83.0959 92.6101C82.8469 93.5691 82.605 94.5271 82.364 95.4851L82.415 95.6311C82.555 96.0341 82.947 96.1261 83.206 95.9101C83.476 94.8431 83.743 93.7761 84.022 92.7081C84.173 92.7301 84.323 92.7571 84.473 92.7861L84.866 91.7471C84.68 91.7081 84.493 91.6721 84.306 91.6421C84.599 90.5271 84.894 89.4121 85.196 88.2981C85.495 88.3591 85.792 88.4351 86.087 88.5201L86.478 87.4861C86.151 87.3851 85.822 87.2941 85.49 87.2211C85.733 86.3321 85.981 85.4451 86.23 84.5581C86.624 84.7061 87.012 84.8771 87.396 85.0591L87.397 85.0611ZM83.384 91.5261C82.901 91.4851 82.416 91.4761 81.932 91.4941C81.941 90.3611 82.016 89.2311 82.144 88.1101C82.856 88.0561 83.572 88.0671 84.283 88.1501C83.979 89.2741 83.68 90.3991 83.384 91.5251V91.5261ZM84.579 87.0591C83.82 86.9551 83.056 86.9281 82.293 86.9741C82.456 85.8851 82.67 84.8081 82.943 83.7511C83.756 83.8491 84.563 84.0221 85.356 84.2631C85.095 85.1941 84.835 86.1251 84.579 87.0581V87.0591Z" fill="#FE9A11"/>
<path d="M78.693 89.1702L82.415 99.8862C82.595 100.405 83.1959 100.416 83.3899 99.9052L88.1319 87.3732C88.2809 86.9792 88.077 86.5142 87.724 86.4602C84.502 85.9652 80.417 87.6592 78.996 88.3132C78.713 88.4432 78.576 88.8322 78.693 89.1712V89.1702Z" fill="#FEC315"/>
<path d="M87.397 89.3153L87.776 88.3133C87.363 88.1153 86.946 87.9303 86.521 87.7703C86.652 87.3083 86.784 86.8473 86.916 86.3853C86.6 86.3703 86.279 86.3703 85.955 86.3873C85.852 86.7483 85.748 87.1093 85.646 87.4713C84.854 87.2273 84.049 87.0483 83.237 86.9383C83.251 86.8923 83.266 86.8463 83.28 86.8003C81.863 87.1463 80.574 87.6333 79.689 88.0073C80.461 87.9153 81.238 87.8833 82.015 87.9243C81.737 89.0393 81.52 90.1743 81.358 91.3223C80.759 91.4083 80.165 91.5423 79.579 91.7203L79.939 92.7573C80.36 92.6363 80.787 92.5393 81.217 92.4693C81.1 93.5783 81.032 94.6943 81.025 95.8143L81.002 95.8183L82.067 98.8833C82.005 98.2073 81.962 97.5293 81.944 96.8503C82.328 96.8353 82.7129 96.8403 83.0959 96.8653C82.8469 97.8243 82.605 98.7823 82.364 99.7403L82.415 99.8863C82.555 100.289 82.947 100.382 83.206 100.165C83.476 99.0983 83.743 98.0313 84.022 96.9643C84.173 96.9863 84.323 97.0133 84.473 97.0423L84.866 96.0033C84.68 95.9643 84.493 95.9283 84.306 95.8983C84.599 94.7833 84.894 93.6683 85.196 92.5553C85.495 92.6163 85.792 92.6923 86.087 92.7773L86.478 91.7433C86.151 91.6413 85.822 91.5513 85.49 91.4783C85.733 90.5893 85.981 89.7023 86.23 88.8153C86.624 88.9633 87.012 89.1343 87.396 89.3163L87.397 89.3153ZM83.384 95.7803C82.901 95.7393 82.416 95.7303 81.932 95.7483C81.941 94.6153 82.016 93.4853 82.144 92.3643C82.856 92.3103 83.572 92.3213 84.283 92.4053C83.979 93.5293 83.68 94.6543 83.384 95.7803ZM84.579 91.3133C83.82 91.2093 83.056 91.1823 82.293 91.2283C82.456 90.1393 82.67 89.0623 82.943 88.0053C83.756 88.1033 84.563 88.2773 85.356 88.5173C85.095 89.4483 84.835 90.3793 84.579 91.3133V91.3133Z" fill="#FE9A11"/>
<path d="M90.0761 68.9031L94.853 82.6551C95.084 83.3201 95.8561 83.3351 96.1041 82.6791L102.189 66.5961C102.38 66.0911 102.119 65.4941 101.665 65.4241C97.5311 64.7891 92.2881 66.9631 90.4641 67.8031C90.1011 67.9701 89.9241 68.4691 90.0761 68.9041V68.9031Z" fill="#FEC315"/>
<path d="M101.246 69.0881L101.733 67.8021C101.203 67.5481 100.667 67.3101 100.122 67.1051C100.29 66.5121 100.46 65.9201 100.629 65.3281C100.223 65.3091 99.8121 65.3091 99.3961 65.3311C99.2641 65.7951 99.13 66.2571 98.999 66.7221C97.983 66.4081 96.95 66.1801 95.908 66.0381C95.926 65.9791 95.945 65.9201 95.963 65.8611C94.144 66.3041 92.4901 66.9301 91.3541 67.4101C92.3451 67.2921 93.342 67.2511 94.338 67.3041C93.981 68.7341 93.7021 70.1921 93.4951 71.6651C92.7271 71.7751 91.964 71.9471 91.212 72.1761L91.674 73.5071C92.215 73.3521 92.762 73.2271 93.314 73.1381C93.163 74.5611 93.076 75.9941 93.067 77.4301L93.038 77.4341L94.4041 81.3681C94.3251 80.5001 94.269 79.6301 94.247 78.7591C94.74 78.7401 95.234 78.7461 95.726 78.7781C95.406 80.0081 95.096 81.2381 94.786 82.4671L94.851 82.6541C95.031 83.1711 95.5331 83.2901 95.8671 83.0121C96.2131 81.6431 96.5571 80.2731 96.9141 78.9031C97.1071 78.9321 97.3 78.9661 97.493 79.0031L97.998 77.6691C97.759 77.6191 97.5191 77.5731 97.2791 77.5341C97.6561 76.1031 98.034 74.6721 98.421 73.2431C98.805 73.3211 99.1861 73.4191 99.5651 73.5281L100.067 72.2011C99.648 72.0711 99.225 71.9551 98.8 71.8611C99.112 70.7201 99.431 69.5811 99.749 68.4431C100.255 68.6331 100.753 68.8521 101.245 69.0861L101.246 69.0881ZM96.096 77.3851C95.476 77.3331 94.8541 77.3211 94.2321 77.3441C94.2441 75.8901 94.34 74.4401 94.504 73.0011C95.418 72.9321 96.337 72.9461 97.249 73.0531C96.859 74.4951 96.475 75.9401 96.096 77.3851ZM97.6301 71.6521C96.6571 71.5181 95.675 71.4841 94.697 71.5431C94.906 70.1461 95.1811 68.7631 95.5311 67.4071C96.5741 67.5331 97.61 67.7551 98.627 68.0641C98.293 69.2591 97.9581 70.4531 97.6301 71.6521Z" fill="#FE9A11"/>
<path d="M90.0761 74.3611L94.853 88.1131C95.084 88.7781 95.8561 88.7931 96.1041 88.1371L102.189 72.0541C102.38 71.5491 102.119 70.9521 101.665 70.8821C97.5311 70.2471 92.2881 72.4211 90.4641 73.2611C90.1011 73.4281 89.9241 73.9271 90.0761 74.3621V74.3611Z" fill="#FEC315"/>
<path d="M101.246 74.5471L101.733 73.2611C101.203 73.0071 100.667 72.7691 100.122 72.5641C100.29 71.9701 100.46 71.3791 100.629 70.7871C100.223 70.7681 99.8121 70.7681 99.3961 70.7901C99.2641 71.2541 99.13 71.7161 98.999 72.1811C97.983 71.8671 96.95 71.6391 95.908 71.4971C95.926 71.4381 95.945 71.3791 95.963 71.3201C94.144 71.7641 92.4901 72.3891 91.3541 72.8691C92.3451 72.7511 93.342 72.7101 94.338 72.7631C93.981 74.1931 93.7021 75.6511 93.4951 77.1241C92.7271 77.2341 91.964 77.4061 91.212 77.6351L91.674 78.9651C92.215 78.8101 92.762 78.6851 93.314 78.5961C93.163 80.0191 93.076 81.4521 93.067 82.8881L93.038 82.8921L94.4041 86.8261C94.3251 85.9581 94.269 85.0881 94.247 84.2171C94.74 84.1981 95.234 84.2041 95.726 84.2361C95.406 85.4661 95.096 86.6961 94.786 87.9251L94.851 88.1121C95.031 88.6291 95.5331 88.7481 95.8671 88.4701C96.2131 87.1011 96.5571 85.7311 96.9141 84.3611C97.1071 84.3901 97.3 84.4241 97.493 84.4611L97.998 83.1271C97.759 83.0771 97.5191 83.0311 97.2791 82.9921C97.6561 81.5611 98.034 80.1301 98.421 78.7011C98.805 78.7791 99.1861 78.8771 99.5651 78.9861L100.067 77.6591C99.648 77.5291 99.225 77.4131 98.8 77.3191C99.112 76.1781 99.431 75.0391 99.749 73.9011C100.255 74.0911 100.753 74.3101 101.245 74.5441L101.246 74.5471ZM96.096 82.8441C95.476 82.7911 94.8541 82.7801 94.2321 82.8031C94.2441 81.3491 94.34 79.8991 94.504 78.4601C95.418 78.3911 96.337 78.4051 97.249 78.5121C96.859 79.9541 96.475 81.3991 96.096 82.8441ZM97.6301 77.1111C96.6571 76.9771 95.675 76.9431 94.697 77.0021C94.906 75.6051 95.1811 74.2221 95.5311 72.8661C96.5741 72.9921 97.61 73.2151 98.627 73.5231C98.293 74.7181 97.9581 75.9121 97.6301 77.1101V77.1111Z" fill="#FE9A11"/>
<path d="M90.0761 79.8201L94.853 93.5721C95.084 94.2381 95.8561 94.2521 96.1041 93.5961L102.189 77.5131C102.38 77.0081 102.119 76.4111 101.665 76.3411C97.5311 75.7061 92.2881 77.8801 90.4641 78.7201C90.1011 78.8871 89.9241 79.3861 90.0761 79.8211V79.8201Z" fill="#FEC315"/>
<path d="M101.246 80.0051L101.733 78.7191C101.203 78.4651 100.667 78.2271 100.122 78.0221C100.29 77.4281 100.46 76.8371 100.629 76.2451C100.223 76.2261 99.8121 76.2261 99.3961 76.2481C99.2641 76.7121 99.13 77.1741 98.999 77.6391C97.983 77.3251 96.95 77.0961 95.908 76.9551C95.926 76.8961 95.945 76.8371 95.963 76.7781C94.144 77.2221 92.4901 77.8471 91.3541 78.3271C92.3451 78.2091 93.342 78.1681 94.338 78.2211C93.981 79.6521 93.7021 81.1091 93.4951 82.5821C92.7271 82.6921 91.964 82.8641 91.212 83.0931L91.674 84.4231C92.215 84.2681 92.762 84.1431 93.314 84.0541C93.163 85.4771 93.076 86.9101 93.067 88.3461L93.038 88.3511L94.4041 92.2851C94.3251 91.4171 94.269 90.5471 94.247 89.6761C94.74 89.6571 95.234 89.6631 95.726 89.6951C95.406 90.9251 95.096 92.1551 94.786 93.3841L94.851 93.5711C95.031 94.0881 95.5331 94.2071 95.8671 93.9291C96.2131 92.5601 96.5571 91.1901 96.9141 89.8201C97.1071 89.8491 97.3 89.8831 97.493 89.9201L97.998 88.5861C97.759 88.5361 97.5191 88.4901 97.2791 88.4511C97.6561 87.0201 98.034 85.5891 98.421 84.1601C98.805 84.2381 99.1861 84.3361 99.5651 84.4451L100.067 83.1181C99.648 82.9881 99.225 82.8721 98.8 82.7781C99.112 81.6371 99.431 80.4981 99.749 79.3601C100.255 79.5501 100.753 79.7691 101.245 80.0031L101.246 80.0051ZM96.096 88.3021C95.476 88.2501 94.8541 88.2381 94.2321 88.2611C94.2441 86.8071 94.34 85.3571 94.504 83.9181C95.418 83.8491 96.337 83.8631 97.249 83.9701C96.859 85.4121 96.475 86.8571 96.096 88.3021ZM97.6301 82.5691C96.6571 82.4351 95.675 82.4011 94.697 82.4601C94.906 81.0631 95.1811 79.6801 95.5311 78.3241C96.5741 78.4501 97.61 78.6731 98.627 78.9811C98.293 80.1761 97.9581 81.3701 97.6301 82.5681V82.5691Z" fill="#FE9A11"/>
<path d="M90.0761 85.2781L94.853 99.0301C95.084 99.6951 95.8561 99.7101 96.1041 99.0541L102.189 82.9711C102.38 82.4661 102.119 81.8691 101.665 81.7991C97.5311 81.1641 92.2881 83.3381 90.4641 84.1771C90.1011 84.3441 89.9241 84.8431 90.0761 85.2781Z" fill="#FEC315"/>
<path d="M101.246 85.4631L101.733 84.1771C101.203 83.9231 100.667 83.6851 100.122 83.4801C100.29 82.8861 100.46 82.2951 100.629 81.7031C100.223 81.6841 99.8121 81.6841 99.3961 81.7061C99.2641 82.1701 99.13 82.6321 98.999 83.0971C97.983 82.7831 96.95 82.5551 95.908 82.4131C95.926 82.3541 95.945 82.2951 95.963 82.2361C94.144 82.6801 92.4901 83.3051 91.3541 83.7851C92.3451 83.6671 93.342 83.6261 94.338 83.6791C93.981 85.1091 93.7021 86.5671 93.4951 88.0401C92.7271 88.1501 91.964 88.3221 91.212 88.5511L91.674 89.8811C92.215 89.7261 92.762 89.6011 93.314 89.5121C93.163 90.9351 93.076 92.3681 93.067 93.8041L93.038 93.8081L94.4041 97.7421C94.3251 96.8741 94.269 96.0041 94.247 95.1331C94.74 95.1141 95.234 95.1201 95.726 95.1521C95.406 96.3821 95.096 97.6121 94.786 98.8411L94.851 99.0281C95.031 99.5451 95.5331 99.6641 95.8671 99.3861C96.2131 98.0171 96.5571 96.6471 96.9141 95.2771C97.1071 95.3061 97.3 95.3401 97.493 95.3771L97.998 94.0431C97.759 93.9931 97.5191 93.9471 97.2791 93.9081C97.6561 92.4771 98.034 91.0461 98.421 89.6171C98.805 89.6951 99.1861 89.7931 99.5651 89.9021L100.067 88.5751C99.648 88.4451 99.225 88.3291 98.8 88.2351C99.112 87.0941 99.431 85.9551 99.749 84.8171C100.255 85.0071 100.753 85.2261 101.245 85.4601L101.246 85.4631ZM96.096 93.7601C95.476 93.7081 94.8541 93.6961 94.2321 93.7191C94.2441 92.2651 94.34 90.8151 94.504 89.3761C95.418 89.3071 96.337 89.3211 97.249 89.4281C96.859 90.8701 96.475 92.3151 96.096 93.7601ZM97.6301 88.0271C96.6571 87.8931 95.675 87.8591 94.697 87.9181C94.906 86.5211 95.1811 85.1381 95.5311 83.7821C96.5741 83.9081 97.61 84.1301 98.627 84.4391C98.293 85.6341 97.9581 86.8281 97.6301 88.0261V88.0271Z" fill="#FE9A11"/>
<path d="M102.253 91.4331H76.3201C75.8661 91.4331 75.498 91.0651 75.498 90.6111C75.498 90.1571 75.8661 89.7891 76.3201 89.7891H102.253C102.707 89.7891 103.075 90.1571 103.075 90.6111C103.075 91.0651 102.707 91.4331 102.253 91.4331Z" fill="#811620"/>
<path d="M89.2861 102.605C88.8321 102.605 88.4641 102.237 88.4641 101.783V90.6101C88.4641 90.1561 88.8321 89.7881 89.2861 89.7881C89.7401 89.7881 90.1081 90.1561 90.1081 90.6101V101.783C90.1081 102.237 89.7401 102.605 89.2861 102.605Z" fill="#811620"/>
<path d="M14.178 17.0149H11.943V106.656H14.178V17.0149Z" fill="#811620"/>
<path d="M110.532 17.0149H108.297V106.656H110.532V17.0149Z" fill="#811620"/>
<path d="M0.00100708 14.1431H7.138V19.8841C7.138 21.8541 5.539 23.4531 3.569 23.4531C1.599 23.4531 0 21.8541 0 19.8841V14.1431H0.00100708Z" fill="#F3DBDD"/>
<path d="M10.778 23.4531C8.80698 23.4531 7.20898 21.8551 7.20898 19.8841V14.1431H14.346V19.8841C14.346 21.8551 12.748 23.4531 10.777 23.4531H10.778Z" fill="#D61628"/>
<path d="M17.987 23.4531C16.016 23.4531 14.418 21.8551 14.418 19.8841V14.1431H21.555V19.8841C21.555 21.8551 19.957 23.4531 17.986 23.4531H17.987Z" fill="#F3DBDD"/>
<path d="M25.195 23.4531C23.224 23.4531 21.626 21.8551 21.626 19.8841V14.1431H28.763V19.8841C28.763 21.8551 27.165 23.4531 25.194 23.4531H25.195Z" fill="#D61628"/>
<path d="M32.404 23.4531C30.433 23.4531 28.835 21.8551 28.835 19.8841V14.1431H35.972V19.8841C35.972 21.8551 34.374 23.4531 32.403 23.4531H32.404Z" fill="#F3DBDD"/>
<path d="M39.612 23.4531C37.641 23.4531 36.043 21.8551 36.043 19.8841V14.1431H43.18V19.8841C43.18 21.8551 41.582 23.4531 39.611 23.4531H39.612Z" fill="#D61628"/>
<path d="M46.821 23.4531C44.85 23.4531 43.252 21.8551 43.252 19.8841V14.1431H50.389V19.8841C50.389 21.8551 48.791 23.4531 46.82 23.4531H46.821Z" fill="#F3DBDD"/>
<path d="M54.029 23.4531C52.058 23.4531 50.46 21.8551 50.46 19.8841V14.1431H57.597V19.8841C57.597 21.8551 55.999 23.4531 54.028 23.4531H54.029Z" fill="#D61628"/>
<path d="M61.237 23.4531C59.266 23.4531 57.668 21.8551 57.668 19.8841V14.1431H64.805V19.8841C64.805 21.8551 63.207 23.4531 61.236 23.4531H61.237Z" fill="#F3DBDD"/>
<path d="M68.446 23.4531C66.475 23.4531 64.877 21.8551 64.877 19.8841V14.1431H72.014V19.8841C72.014 21.8551 70.416 23.4531 68.445 23.4531H68.446Z" fill="#D61628"/>
<path d="M75.654 23.4531C73.683 23.4531 72.085 21.8551 72.085 19.8841V14.1431H79.222V19.8841C79.222 21.8551 77.624 23.4531 75.653 23.4531H75.654Z" fill="#F3DBDD"/>
<path d="M82.863 23.4531C80.892 23.4531 79.2941 21.8551 79.2941 19.8841V14.1431H86.431V19.8841C86.431 21.8551 84.8331 23.4531 82.8621 23.4531H82.863Z" fill="#D61628"/>
<path d="M90.071 23.4531C88.1 23.4531 86.502 21.8551 86.502 19.8841V14.1431H93.639V19.8841C93.639 21.8551 92.041 23.4531 90.07 23.4531H90.071Z" fill="#F3DBDD"/>
<path d="M97.28 23.4531C95.309 23.4531 93.7111 21.8551 93.7111 19.8841V14.1431H100.848V19.8841C100.848 21.8551 99.2501 23.4531 97.2791 23.4531H97.28Z" fill="#D61628"/>
<path d="M104.488 23.4531C102.517 23.4531 100.919 21.8551 100.919 19.8841V14.1431H108.056V19.8841C108.056 21.8551 106.458 23.4531 104.487 23.4531H104.488Z" fill="#F3DBDD"/>
<path d="M111.696 23.4531C109.725 23.4531 108.127 21.8551 108.127 19.8841V14.1431H115.264V19.8841C115.264 21.8551 113.666 23.4531 111.695 23.4531H111.696Z" fill="#D61628"/>
<path d="M118.905 23.4531C116.934 23.4531 115.336 21.8551 115.336 19.8841V14.1431H122.473V19.8841C122.473 21.8551 120.875 23.4531 118.904 23.4531H118.905Z" fill="#F3DBDD"/>
<path d="M7.13898 14.143H0.000976562L9.00098 0H15.09L7.13898 14.143Z" fill="#FBFBFB"/>
<path d="M14.347 14.143H7.20996L15.1499 0H21.239L14.347 14.143Z" fill="#D61628"/>
<path d="M21.556 14.143H14.418L21.299 0H27.388L21.556 14.143Z" fill="#FBFBFB"/>
<path d="M28.7639 14.143H21.627L27.4479 0H33.537L28.7639 14.143Z" fill="#D61628"/>
<path d="M35.972 14.143H28.835L33.597 0H39.6859L35.972 14.143Z" fill="#FBFBFB"/>
<path d="M43.181 14.143H36.043L39.746 0H45.835L43.181 14.143Z" fill="#D61628"/>
<path d="M50.389 14.143H43.252L45.895 0H51.9839L50.389 14.143Z" fill="#FBFBFB"/>
<path d="M57.598 14.143H50.46L52.044 0H58.133L57.598 14.143Z" fill="#D61628"/>
<path d="M64.8059 14.143H57.6689L58.1929 0H64.2819L64.8059 14.143Z" fill="#FBFBFB"/>
<path d="M72.015 14.143H64.877L64.342 0H70.431L72.015 14.143Z" fill="#D61628"/>
<path d="M79.223 14.143H72.086L70.491 0H76.58L79.223 14.143Z" fill="#FBFBFB"/>
<path d="M86.4309 14.143H79.2939L76.6399 0H82.7289L86.4309 14.143Z" fill="#D61628"/>
<path d="M93.64 14.143H86.502L82.7891 0H88.8781L93.64 14.143Z" fill="#FBFBFB"/>
<path d="M100.848 14.143H93.711L88.938 0H95.027L100.848 14.143Z" fill="#D61628"/>
<path d="M108.057 14.143H100.919L95.0869 0H101.176L108.057 14.143Z" fill="#FBFBFB"/>
<path d="M115.265 14.143H108.128L101.236 0H107.325L115.265 14.143Z" fill="#D61628"/>
<path d="M122.474 14.143H115.336L107.385 0H113.474L122.474 14.143Z" fill="#FBFBFB"/>
<path d="M119.23 100.536H3.24399C1.45293 100.536 0.000976562 101.988 0.000976562 103.779V165.887C0.000976562 167.678 1.45293 169.13 3.24399 169.13H119.23C121.021 169.13 122.473 167.678 122.473 165.887V103.779C122.473 101.988 121.021 100.536 119.23 100.536Z" fill="#811620"/>
<path d="M119.904 103.78V165.887C119.904 166.258 119.603 166.56 119.231 166.56H3.24507C2.87307 166.56 2.57106 166.258 2.57106 165.886V103.78C2.57106 103.408 2.87307 103.106 3.24507 103.106L119.23 103.106C119.602 103.106 119.904 103.408 119.904 103.78V103.78Z" fill="#FEC315"/>
<path d="M67.8719 129.293C72.6234 124.542 72.6234 116.838 67.8719 112.087C63.1204 107.335 55.4167 107.335 50.6652 112.087C45.9137 116.838 45.9136 124.542 50.6651 129.293C55.4166 134.045 63.1204 134.045 67.8719 129.293Z" fill="#FEC315"/>
<path d="M64.2701 138.411C65.8059 131.869 61.7477 125.321 55.2059 123.785C48.6641 122.249 42.1159 126.307 40.5801 132.849C39.0443 139.391 43.1025 145.939 49.6443 147.475C56.1861 149.01 62.7343 144.952 64.2701 138.411Z" fill="#D61628"/>
<path d="M50.0769 127.956C51.6127 121.415 47.5546 114.866 41.0128 113.331C34.471 111.795 27.9228 115.853 26.387 122.395C24.8512 128.937 28.9094 135.485 35.4511 137.021C41.9929 138.556 48.5411 134.498 50.0769 127.956Z" fill="#811620"/>
<path d="M24.4809 128.383L11.5009 160.151C10.8729 161.688 12.3699 163.239 13.9289 162.666L52.125 148.62C53.325 148.179 53.782 146.693 53 145.681C45.882 136.466 32.0039 129.615 27.0399 127.367C26.0519 126.919 24.8919 127.379 24.4809 128.384V128.383Z" fill="#FEC315"/>
<path d="M48.6769 141.039C47.6609 141.53 46.6449 142.016 45.6289 142.51C44.1369 139.99 42.4719 137.573 40.6469 135.282C40.7779 135.221 40.9119 135.164 41.0439 135.104C36.7349 132.223 32.4559 129.963 29.4329 128.493C31.5789 130.262 33.6119 132.172 35.4899 134.23C32.4559 135.844 29.5319 137.656 26.7239 139.635C25.0299 138.292 23.2459 137.062 21.3899 135.946L20.1339 139.019C21.4519 139.838 22.7349 140.718 23.9689 141.667C21.3539 143.677 18.8479 145.829 16.4909 148.143C16.4699 148.126 16.4469 148.11 16.4259 148.093L12.7129 157.18C13.9699 155.615 15.2779 154.094 16.6519 152.637C17.6559 153.582 18.6189 154.569 19.5379 155.595C16.9029 156.958 14.2899 158.339 11.6759 159.721L11.4999 160.153C11.0119 161.347 11.8099 162.536 12.9189 162.745C15.8329 161.209 18.7399 159.667 21.6749 158.151C22.0099 158.581 22.3339 159.019 22.6539 159.459L25.8219 158.294C25.4329 157.739 25.0339 157.191 24.6239 156.651C27.6979 155.074 30.7749 153.502 33.8659 151.951C34.4969 152.838 35.0879 153.751 35.6559 154.678L38.8069 153.519C38.1919 152.477 37.5479 151.453 36.8609 150.459C39.3359 149.225 41.8179 148.009 44.2999 146.794C44.9889 148.103 45.6129 149.444 46.2039 150.799L49.2589 149.676C48.6269 148.215 47.9589 146.768 47.2179 145.356C48.5149 144.725 49.8139 144.103 51.1129 143.477C50.3439 142.642 49.5319 141.828 48.6769 141.041V141.039ZM22.5339 154.063C21.3969 152.751 20.1899 151.5 18.9259 150.307C21.3179 147.972 23.8699 145.809 26.5349 143.799C28.4499 145.496 30.2399 147.339 31.8629 149.318C28.7439 150.885 25.6349 152.47 22.5329 154.063H22.5339ZM34.8969 147.799C33.1959 145.654 31.3169 143.656 29.2909 141.815C31.9799 139.962 34.7739 138.264 37.6719 136.756C39.5239 139.026 41.2029 141.436 42.7059 143.951C40.1009 145.227 37.4949 146.502 34.8969 147.798V147.799Z" fill="#FE9A11"/>
<path d="M92.5499 125.849L87.4409 126.5L85.0809 131.078L82.8829 126.42L77.7999 125.589L81.5509 122.06L80.7699 116.969L85.2859 119.446L89.8859 117.13L88.9259 122.19L92.5499 125.849Z" fill="#D61628"/>
<path d="M113.821 132.45L107.47 141.317L111.175 151.575L100.779 148.276L92.1679 154.969L92.0939 144.062L83.0669 137.941L93.4169 134.5L96.4489 124.023L102.92 132.803L113.821 132.45Z" fill="#D61628"/>
<path d="M77.1009 143.112L79.0409 149.399L85.3199 151.365L79.9399 155.153L80.0109 161.732L74.7459 157.786L68.5099 159.886L70.6359 153.66L66.7119 148.378L73.2909 148.476L77.1009 143.112Z" fill="#811620"/>
</svg>
